<?xml version="1.0" encoding="utf-8"?>
<!-- Generator: Adobe Illustrator 24.0.1, SVG Export Plug-In . SVG Version: 6.00 Build 0)  -->
<svg version="1.1" xmlns="http://www.w3.org/2000/svg" xmlns:xlink="http://www.w3.org/1999/xlink" x="0px" y="0px"
	 viewBox="0 0 436 391" style="enable-background:new 0 0 436 391;" xml:space="preserve">
	<style type="text/css">
		.st4{fill:#EF6B01;}
		.st4:hover{fill:#33811c;}
	</style>
	<g id="Logo_CIPA">
		<path class="st4" d="M354.72,180.36c6.59,2.1,12.63,4.32,18.84,5.91c6.82,1.75,13.73,2.57,19.75-2.64c0.6-0.52,1.65-0.49,2.43-0.84
			c7.43-3.4,13.07-8.39,14.98-16.77c0.36-1.58,0.98-3.22,1.92-4.51c2.45-3.36,2.65-6.32-0.2-9.37c-1.66-1.77-3.71-3.3-5.83-4.5
			c-3.77-2.13-7.75-3.87-11.6-5.86c-4.15-2.14-6.83-5.25-6.59-10.26c0.45-9.29-3.75-16.66-9.53-23.47
			c-8.33-9.81-20.01-13.83-31.45-18.06c-3.17-1.17-7.14-0.84-10.62-0.37c-10.84,1.48-19.82,7.22-27.67,14.29
			c-10.66,9.6-20.77,19.84-30.89,30.02c-10.6,10.67-22.42,19.08-37.43,22.29c-1.39,0.3-2.6,1.35-3.93,1.98
			c-3.29,1.57-6.48,3.48-9.92,4.53c-3.52,1.08-7.34,1.09-10.95,1.93c-24.08,5.58-48.53,8.54-73.12,10.49
			c-4.79,0.38-9.87,1.17-14.38,0.04c-11.52-2.9-23.12-4.18-34.93-4.31c0,0-66.9-7.31-38.62-65.36c0,0,2.98-10.42-7.44-2.98
			c0,0-38.76,46.38,8.9,90.91c0.78,0.62,3.75,11.04,21.1,3.7c-6.31,6.54-9.03,13.86-9.45,22c-0.31,6.19,0,12.4-0.27,18.59
			c-0.75,17.02-8.31,30.66-20.63,42.14c-3.43,3.19-6.65,7.24-8.3,11.54c-1.85,4.84-2.49,10.4-2.45,15.64
			c0.11,13,0.65,26.02,1.51,38.99c1,15.04,12.88,23.55,27.41,20.14c0.81-0.19,1.75-0.31,2.53-0.1c5.91,1.62,10.84,0.16,15.29-4.07
			c3-2.85,3.7-5.06,0.62-7.79c-2.91-2.58-6.33-4.71-9.82-6.47c-5.12-2.57-5.87-3.39-5.81-9.96c2.44,1.76,4.58,3.2,6.61,4.78
			c5.72,4.43,11.95,1.12,17.94,1.18c1.72,0.02,3.44-0.91,5.16-0.9c4.39,0.03,7.32-1.72,7.95-5.11c0.76-4.09-0.79-6.17-5.68-7.57
			c-2.73-0.78-5.58-1.28-8.19-2.35c-1.09-0.45-2.31-1.98-2.45-3.14c-0.62-5.29-0.98-10.61-1.2-15.93c-0.05-1.18,0.53-2.75,1.38-3.55
			c6.3-5.96,12.69-11.82,19.14-17.62c7.4-6.64,14.92-13.18,24.99-15.46c5.13-1.16,10-1.11,15.11,1.34
			c12.54,6.01,24.8,12.66,39.5,12.83c12.03,0.14,23.68-0.45,35.05-4.76c8.49-3.22,17.33-3.92,26.32-2.11
			c2.02,0.41,2.92,1.23,3.07,3.38c0.63,9.02,1.37,18.04,2.16,27.05c0.97,10.97,1.11,22.11,3.28,32.84
			c3,14.81,16.19,23.72,30.04,21.75c2.38-0.34,4.34-0.43,6.66,0.78c4.03,2.1,8.64,0.38,12.78-4.71c2.38-2.93,0.23-5.88-1.2-8.58
			c-2.2-4.15-6.14-5.46-10.43-6.22c-3.87-0.68-3.86-0.76-4.61-4.49c5.32,2.73,10.27,2.4,15.6-0.29c3.14-1.58,4-3.58,2.91-6.08
			c-2.37-5.44-5.62-10.49-12.28-11.15c-2.78-0.28-3.37-1.6-3.87-3.87c-2.32-10.52-1.27-21,0.53-31.39c1.45-8.36,3.66-16.59,5.6-24.86
			c0.18-0.77,0.81-1.52,1.41-2.09c4.86-4.59,9.49-9.46,14.72-13.59c5.63-4.44,8.42-9.84,8.37-16.92c-0.04-5.2-0.29-10.45,0.23-15.61
			c1.06-10.7,8.04-18.39,14.34-26.34C339.1,189.04,341.93,174.07,354.72,180.36z"/>
		<g>
		</g>
	</g>
</svg>
