<?xml version="1.0" encoding="utf-8"?>
<!-- Generator: Adobe Illustrator 24.0.1, SVG Export Plug-In . SVG Version: 6.00 Build 0)  -->
<svg version="1.1" xmlns="http://www.w3.org/2000/svg" xmlns:xlink="http://www.w3.org/1999/xlink" x="0px" y="0px"
	 viewBox="0 0 446 274" style="enable-background:new 0 0 446 274;" xml:space="preserve">
	<style type="text/css">
		.st16{fill:#118DB0;}
		.st16:hover{fill:#671D6A;}
	</style>
	<g id="Fondo_1_">
		<g>
			<path class="st16" d="M275.6,252.02c3.31-2.39,4.66-3.43,3.54-6.86c-1.66-5.1-5.28-7.62-10.5-8.69c-1.73-0.35-4.47-2.6-4.41-3.86
				c0.72-13.66,1.7-27.31,3.06-40.91c0.62-6.19,3.68-11.16,10.24-12.95c7.89-2.15,15.81-4.2,23.69-6.38
				c2.95-0.81,3.91,0.67,4.98,3.16c2.58,5.99,4.49,12.76,8.65,17.47c10.37,11.73,21.94,22.38,32.81,33.67
				c3.92,4.07,7.48,8.56,10.77,13.17c4.76,6.69,13.61,9.32,21.08,5.96c2.38-1.07,4.95-1.69,7.44-2.5c3.83-1.24,6.65-3.86,5.57-7.84
				c-1.59-5.91-3.64-11.93-11.49-12.64c-8.57-0.78-12.98-7.16-16.41-13.86c-7.05-13.76-13.58-27.79-20.22-41.76
				c-0.71-1.49-1.51-3.64-0.95-4.89c2.72-6.12,5.89-12.05,8.92-18.07c1.31,0.44,2.07,0.52,2.62,0.9c13.6,9.25,24.47,0.23,35.73-5.48
				c1.51-0.77,3.18-3.07,3.18-4.67c0.01-8.22,5.41-13.83,8.57-20.6c3-6.44,2.55-14.49,3.62-21.83c0.95-6.49,1.58-13.04,2.97-19.43
				c0.82-3.77,3.89-7.22,4.1-10.91c0.51-9.17,5.26-14.3,13.34-17.42c2.79-1.07,4.88-3.89,2.38-6.24c-2.74-2.57-6.58-4.91-10.21-5.41
				c-13.9-1.9-28.32-1.37-41.76-4.82c-20.54-5.28-40.14-4.53-59.89,2.26c-2,0.69-4.21,1.84-6.13,1.53
				c-10.73-1.73-16.28,4.57-20.37,12.89c-2.32,4.73-3.91,9.82-5.88,14.86c-0.88-0.17-1.57-0.27-2.23-0.45
				c-27.27-7.45-54.54-11.75-82.68-3.86c-20.89,5.85-41.63,11.87-58.99,25.39c-6.17,4.81-11.39,11.15-16.04,17.52
				c-5.73,7.84-9.48,17.25-15.73,24.58c-16.9,19.82-37.27,36.03-59.54,49.21C34.68,180.98,9,184.13,9,185.44
				c1.4,0.75,35.31,7.31,81.3-16.81c12.45-6.53,23.42-15.58,35.09-23.42c1.44-0.97,2.82-2.01,4.3-3.06
				c4.13,7.16,8.1,14.03,12.31,21.31c-9.61,4.13-11.03,11.97-9.95,21.2c1.16,9.98,3.34,19.32,11.66,26.06
				c0.91,0.74,1.35,2.05,2.06,3.06c4.17,5.95,7.8,12.39,12.65,17.7c7.96,8.71,17.16,15.34,30.17,14.32
				c4.88-0.38,9.78,0.94,14.77,2.59c5.01,1.65,11.44-0.57,17.12-1.69c1.34-0.26,2.35-2.85,3.25-4.51c0.56-1.04,0.39-2.48,0.96-3.52
				c3.19-5.87-0.14-12.22-7.02-11.46c-9.1,1.01-17.07-3.01-25.66-3.88c-3.6-0.36-4.54-2.36-4.76-5.73
				c-0.82-12.78,5.9-22.35,13.18-32.03c10.3,5.02,20.66,1.95,31.14,1.77c1.44,22.97-5.6,47.47,11.79,67.56
				C248.68,259.09,265.8,259.09,275.6,252.02z"/>
		</g>
	</g>
</svg>
