<?xml version="1.0" encoding="utf-8"?>
<!-- Generator: Adobe Illustrator 24.0.1, SVG Export Plug-In . SVG Version: 6.00 Build 0)  -->
<svg version="1.1" xmlns="http://www.w3.org/2000/svg" xmlns:xlink="http://www.w3.org/1999/xlink" x="0px" y="0px"
	 viewBox="0 0 689 529" style="enable-background:new 0 0 689 529;" xml:space="preserve">
<style type="text/css">
	.st0{fill:none;stroke:#EFAE14;stroke-width:6;stroke-linecap:round;stroke-linejoin:round;stroke-miterlimit:22.9256;}
	.st1{fill:none;stroke:#33811C;stroke-width:6;stroke-linecap:round;stroke-linejoin:round;stroke-miterlimit:22.9256;}
	.st2{fill:#D50037;}
	.st3{fill:#FFFFFF;}
	.st4{fill:#EF6B01;}
	.st5{fill:#B9D30E;}
	.st6{fill:#33811C;}
	.st7{fill:#31821B;}
	.st8{fill:#CCCCCC;}
	.st9{fill:none;stroke:#606060;stroke-width:4;stroke-miterlimit:10;}
	.st10{fill:#FAFFCF;}
	.st11{fill:#671D6A;}
	.st12{fill:#118DB0;}
	.st13{fill:none;stroke:#FAFFCF;stroke-width:6;stroke-miterlimit:10;}
	.st14{fill:#090609;}
	.st15{fill-rule:evenodd;clip-rule:evenodd;}
	.st16{clip-path:url(#SVGID_6_);}
	.st17{fill:#FF8300;}
	.st18{clip-path:url(#SVGID_14_);}
	.st19{clip-path:url(#SVGID_18_);fill:#EF6B01;}
	.st20{clip-path:url(#SVGID_18_);}
	.st21{fill:url(#SVGID_19_);}
	.st22{clip-path:url(#SVGID_18_);fill:none;}
	.st23{fill-rule:evenodd;clip-rule:evenodd;fill:#80BC00;}
	.st24{clip-path:url(#SVGID_25_);}
	.st25{clip-path:url(#SVGID_25_);fill-rule:evenodd;clip-rule:evenodd;fill:#C3D82E;}
	.st26{fill-rule:evenodd;clip-rule:evenodd;fill:#FFFFFF;}
	.st27{fill:none;stroke:#FFFFFF;stroke-width:6.8882;stroke-miterlimit:22.9256;}
	.st28{clip-path:url(#SVGID_37_);}
	.st29{clip-path:url(#SVGID_39_);}
	.st30{clip-path:url(#SVGID_43_);fill:#EF6B01;}
	.st31{clip-path:url(#SVGID_43_);}
	.st32{fill:url(#SVGID_44_);}
	.st33{clip-path:url(#SVGID_43_);fill:none;}
	.st34{clip-path:url(#SVGID_50_);}
	.st35{clip-path:url(#SVGID_50_);fill-rule:evenodd;clip-rule:evenodd;fill:#C3D82E;}
	.st36{clip-path:url(#SVGID_62_);}
	.st37{clip-path:url(#SVGID_64_);}
	.st38{clip-path:url(#SVGID_68_);}
	.st39{clip-path:url(#SVGID_72_);}
	.st40{clip-path:url(#SVGID_76_);fill:#EF6B01;}
	.st41{clip-path:url(#SVGID_76_);}
	.st42{fill:url(#SVGID_77_);}
	.st43{clip-path:url(#SVGID_76_);fill:none;}
	.st44{clip-path:url(#SVGID_83_);}
	.st45{clip-path:url(#SVGID_83_);fill-rule:evenodd;clip-rule:evenodd;fill:#C3D82E;}
	.st46{clip-path:url(#SVGID_95_);}
	.st47{clip-path:url(#SVGID_97_);}
	.st48{clip-path:url(#SVGID_101_);fill:#EF6B01;}
	.st49{clip-path:url(#SVGID_101_);}
	.st50{fill:url(#SVGID_102_);}
	.st51{clip-path:url(#SVGID_101_);fill:none;}
	.st52{clip-path:url(#SVGID_108_);}
	.st53{clip-path:url(#SVGID_108_);fill-rule:evenodd;clip-rule:evenodd;fill:#C3D82E;}
	.st54{clip-path:url(#SVGID_120_);}
	.st55{clip-path:url(#SVGID_122_);}
	.st56{clip-path:url(#SVGID_126_);fill:#EF6B01;}
	.st57{clip-path:url(#SVGID_126_);}
	.st58{fill:url(#SVGID_127_);}
	.st59{clip-path:url(#SVGID_126_);fill:none;}
	.st60{clip-path:url(#SVGID_133_);}
	.st61{clip-path:url(#SVGID_133_);fill-rule:evenodd;clip-rule:evenodd;fill:#C3D82E;}
	.st62{clip-path:url(#SVGID_145_);}
	.st63{clip-path:url(#SVGID_147_);}
	.st64{clip-path:url(#SVGID_151_);fill:#EF6B01;}
	.st65{clip-path:url(#SVGID_151_);}
	.st66{fill:url(#SVGID_152_);}
	.st67{clip-path:url(#SVGID_151_);fill:none;}
	.st68{clip-path:url(#SVGID_158_);}
	.st69{clip-path:url(#SVGID_158_);fill-rule:evenodd;clip-rule:evenodd;fill:#C3D82E;}
	.st70{clip-path:url(#SVGID_170_);}
	.st71{clip-path:url(#SVGID_172_);}
	.st72{clip-path:url(#SVGID_176_);fill:#EF6B01;}
	.st73{clip-path:url(#SVGID_176_);}
	.st74{fill:url(#SVGID_177_);}
	.st75{clip-path:url(#SVGID_176_);fill:none;}
	.st76{clip-path:url(#SVGID_183_);}
	.st77{clip-path:url(#SVGID_183_);fill-rule:evenodd;clip-rule:evenodd;fill:#C3D82E;}
	.st78{clip-path:url(#SVGID_195_);}
	.st79{clip-path:url(#SVGID_197_);}
</style>
<g id="Fondo_1_">
</g>
<g id="Divisor">
</g>
<g id="Bulto_cuido">
</g>
<g id="Imagen_Mojarras">
</g>
<g id="Imagen_Truchas">
</g>
<g id="Banner">
</g>
<g id="Imagen_Tilapias">
</g>
<g id="Estimado_txt">
</g>
<g id="titulo_recomendado">
</g>
<g id="txt_cuido">
</g>
<g id="Boton_estimado">
</g>
<g id="Sacos_txt">
</g>
<g id="Boton_N_saco">
</g>
<g id="Botón_Descarga">
</g>
<g id="Footer">
</g>
<g id="Boton_Simular">
</g>
<g id="LOGO">
</g>
<g id="Botón_1">
</g>
<g id="Botón_2">
</g>
<g id="Botón_3">
</g>
<g id="Cantidad_de_peces">
</g>
<g id="Días_de_cultivo">
</g>
<g id="Temperatura_Agua">
</g>
<g id="Texto_Mojarras">
</g>
<g id="Menu">
</g>
<g id="Logo_CIPA">
	<g>
		<path class="st4" d="M357.73,308.84c20.65,5.69,41.82,7.64,63.13,8.3c2.86,0.09,4.69,0.94,5.43,3.64
			c1.32,4.86,2.97,9.68,3.65,14.64c1.45,10.53-0.96,20.92-1.95,31.36c-1.35,14.23-2.76,28.46-3.74,42.71
			c-0.49,7.09,0.07,7.26,7.24,6.89c0.26,1.05,0.48,2.19,0.82,3.28c2.08,6.56,4.22,13.1,6.27,19.67c0.51,1.62,1.11,3.32,1.11,4.98
			c0,9.1,4.91,14.53,13.86,15.06c5.02,0.29,5.17,0.41,6.15,5.34c0.21,1.05,0.43,2.13,0.38,3.18c-0.38,7.11,6.51,12.35,12.44,12.58
			c3.39,0.13,6.8-0.07,10.19-0.18c3.16-0.1,6.33-0.26,9.49-0.44c4.78-0.27,9.48-1.18,14.36-0.88c3.58,0.22,4.58-2.07,2.39-4.98
			c-3.03-4.02-6.37-7.85-9.93-11.4c-1.62-1.62-4.07-2.44-6.2-3.53c-2.75-1.4-5.62-2.58-8.27-4.13c-0.71-0.42-1.23-1.92-1.12-2.84
			c0.42-3.23-0.55-5.63-2.74-8.15c-4.79-5.5-8.97-11.22-8.67-19.35c0.43-11.16-0.38-22.37,0.04-33.53c0.72-19.23,1.99-38.44,3-57.66
			c0.72-13.57,5.4-25.61,14.03-36.07c3.46-4.2,7.36-8.03,10.81-12.23c10.73-13.08,18.75-27.41,20.4-44.68
			c0.18-1.89,1.33-3.86,2.5-5.45c7.13-9.66,11.46-20.43,13.53-32.23c0.48-2.76,1.51-5.77,3.23-7.92
			c6.75-8.44,10.24-17.94,10.71-28.66c0.05-1.12,0.14-2.55,0.82-3.29c4.85-5.28,6.74-11.57,7.42-18.58
			c0.46-4.78,4.37-7.11,9.13-6.16c1.7,0.34,3.32,1.13,5.02,1.49c4.8,1.01,9.63,1.95,14.46,2.84c4.45,0.82,8.98,1.25,13.35,2.36
			c5.93,1.52,11.86,2.57,17.85,1.02c5.39-1.4,11.19-2.59,12.76-9.41c0.29,0.16,0.57,0.27,0.78,0.44c1.52,1.21,3.07,2.83,5.14,1.36
			c2.14-1.52,1.14-3.74,0.2-5.26c-2.96-4.76-6.15-9.38-9.48-13.88c-0.66-0.9-2.43-1.65-3.51-1.45c-4.29,0.76-7.79-0.97-11.33-2.87
			c-3.25-1.75-6.49-3.54-9.85-5.06c-3.85-1.74-7.83-3.19-11.76-4.76c0.02-0.13,0.04-0.25,0.05-0.38c0.92,0,1.83,0.01,2.75,0
			c7.1-0.07,14.21,0.11,21.29-0.27c13-0.7,22.79-7.57,31.14-16.96c4.85-5.46,6.59-12.02,6.49-19.11c-0.07-4.61-1.7-6.75-6.2-7.48
			c-4.48-0.73-9.08-0.94-13.63-1.03c-8.54-0.17-17.12,0.34-25.63-0.27c-6.13-0.43-12.36-2.3-15.87-7.96
			c-2.76-4.45-6.48-7.17-11.17-8.79c-16.23-5.6-32.73-6.04-49.47-2.53c-14.81,3.11-26.08,10.35-31,25.45
			c-1.33,4.08-4.6,6.55-7.75,9.23c-4.41,3.76-9.07,7.51-12.52,12.09c-8.37,11.09-17.44,21.33-28.7,29.62
			c-5.22,3.84-9.61,8.8-14.76,12.75c-8.57,6.56-18.83,9.94-28.56,14.3c-10.66,4.77-21.78,8.07-33.19,10.47
			c-11.65,2.46-23.41,3.72-35.33,3.76c-20.85,0.08-41.29-3.23-61.55-7.57c-22.94-4.92-45.82-5.61-68.91-1.38
			c-15.5,2.84-30.13,8.28-44.69,14.06c-16.32,6.48-28.41,17.62-36.76,32.99c-8.66,15.95-12.92,33.28-16.01,50.96
			c-1.63,9.32-3.25,18.61-7.74,27.07c-9.94,18.73-26.27,27.79-46.66,30.79c-3.5,0.52-7.07,1.47-10.26,2.96
			c-6.76,3.18-12.28,7.9-15.1,15.09c-1.53,3.9-1.57,7.84,0.19,11.4c4.26-1.4,8.03-3.15,11.99-3.84c9.13-1.6,18.36-1.36,27.53-0.1
			c13.56,1.86,25.87-1.36,37.16-8.85c15.07-9.99,24.81-24.12,31.38-40.68c0.41-1.04,0.83-2.07,1.25-3.11
			c0.36,0.02,0.73,0.04,1.09,0.06c1.17,13.44,2.36,26.88,3.49,40.32c1.37,16.19-3.21,30.76-12.24,44.07
			c-4.42,6.52-8.95,12.96-13.29,19.53c-0.9,1.36-1.73,3.18-1.64,4.73c1.16,21.27,2.33,42.54,3.86,63.78
			c0.53,7.43,1.56,14.89,3.22,22.14c1.38,6.01,4.72,7.8,10.89,8.07c3.78,0.17,7.55,0.6,11.31,1.04c5.7,0.66,11.05,0.08,15.74-3.65
			c0.79-0.63,1.88-1.12,2.88-1.2c2.13-0.17,2.55-1.48,1.96-3.01c-2.88-7.51-6.92-15.25-16.31-15.75c-2.42-0.13-4.07-1.33-5.13-3.3
			c-0.96-1.78-1.84-3.67-2.35-5.62c-2.52-9.65-2.24-19.47-1.52-29.29c0.2-2.79,0.42-5.75,1.48-8.28c3.4-8.15,7.19-16.14,10.86-24.17
			c0.33-0.72,0.91-1.31,1.37-1.97c0.35,0.03,0.71,0.05,1.06,0.08c0.63,3.38,1.46,6.74,1.84,10.15c0.53,4.76,0.59,9.75,3.81,13.55
			c7.06,8.33,10.58,18.31,13.57,28.47c1.24,4.21,3.5,6.24,7.51,6.94c0.76,0.13,1.6,0.18,2.26,0.53c4.64,2.47,9.42,1.87,14.23,0.77
			c1.61-0.37,3.34-1.41,4.78-1.08c5.24,1.2,9.08-2.07,13.42-3.72c0.48-0.18,1.03-1.09,0.97-1.6c-0.51-4.6-1.33-9.09-5.77-11.81
			c-4.62-2.83-9.74-3.44-14.91-2.78c-3.76,0.47-6.54-0.89-8.06-3.88c-2.08-4.11-3.99-8.46-5.02-12.93
			c-1.99-8.6-3.85-17.29-0.74-26.15c3.93-11.19,9.29-21.58,16.56-30.96c3.45-4.45,7.2-8.69,10.35-13.34
			c5.53-8.18,11.09-16.39,15.89-25.01c3.7-6.65,6.44-13.87,9.25-20.98c1.38-3.49,0.97-3.39,4.68-2.77
			c4.67,0.78,9.43,1.61,14.13,1.51C256.52,290.08,325.18,286.66,357.73,308.84z"/>
	</g>
</g>
</svg>
