<?xml version="1.0" encoding="utf-8"?>
<!-- Generator: Adobe Illustrator 24.0.1, SVG Export Plug-In . SVG Version: 6.00 Build 0)  -->
<svg version="1.1" xmlns="http://www.w3.org/2000/svg" xmlns:xlink="http://www.w3.org/1999/xlink" x="0px" y="0px"
	 viewBox="0 0 731 468" style="enable-background:new 0 0 731 468;" xml:space="preserve">
	<style type="text/css">
		.st33{fill-rule:evenodd;clip-rule:evenodd;fill:#118DB0;}
		.st33:hover{fill-rule:evenodd;clip-rule:evenodd;fill:#671D6A;}
	</style>
	<g>
		<path class="st33" d="M693.35,228.65c-1.44,5.03-7.04,8.08-12.29,7.92c-7.29,16.47-20.32,6.08-36.4,4.28
			c-8.72-0.98-18,0.47-27.83,1.07c-18.79,1.15-33.18-2.21-42.82,10.7c-5.02,6.72-7.59,17.09-12.85,24.62
			c-8.82,12.63-19.7,21.42-34.26,29.97c1.22,5.78,1.33,18.88,5.35,27.83c3.62,8.05,13.06,17.16,21.41,26.76
			c3.6,4.14,6.85,8.7,10.71,12.85c3.77,4.05,9.05,6.7,12.85,10.71c2.55,2.69,4.08,6.74,6.42,9.63
			c8.64,10.67,19.88,20.68,27.84,32.12c3.88,5.58,15.34,26.68,6.42,36.4c-7.85,8.55-20.85,1.62-32.11,0
			c-7.49-6.17-7.72-14.85-11.78-22.48c-2.54-4.78-7.73-9.08-11.78-13.92c-4.16-4.97-7.64-10.53-11.78-13.92
			c-5.34-4.38-12.45-7.47-18.2-11.78c-15.91-11.92-32.15-27.49-48.17-39.61c-1.53,20.09,5,32.12,8.56,47.1
			c10.87,3.48,23.22,7.73,23.55,19.27c0.38,13.29-17.15,16.81-33.19,14.99c-13.66-1.55-16.12-12.96-22.48-21.41
			c-6.02-30.73-12.37-61.13-13.92-96.35c-17.46-7.51-36.29-15.08-55.67-23.55c-6.15-2.69-13.93-7.3-19.27-6.42
			c-6.88,1.13-18.85,18.49-20.34,25.69c-1.7,8.23,0.28,19.47,1.07,28.91c0.82,9.76,1.84,18.94,4.28,25.69
			c5.49,15.17,20.27,25.37,14.99,42.82c-7.34,7.64-16.94,6.21-26.76,1.07c-11.32-5.93-10.83-12.27-13.92-29.98
			c-3.1-17.78-5.83-30.8-10.71-49.24c-2.31-8.73-8.18-15.94-8.56-20.34c-0.7-8,6.73-18.3,5.35-24.62
			c-21.48,2.54-36.33,23.56-61.02,27.83c-11.27,1.95-24.7-1.02-36.4,4.28c-6.24,9.87-11.56,24.1-12.85,37.47
			c-0.33,3.45-0.67,8.9,0,12.85c1.79,10.6,16.86,25.55,4.28,40.68c-9.97,5.52-21.72,1.34-29.97-3.21
			c-16.48-24.32-1.37-62.92,1.07-93.14c0.6-7.41-0.86-14.24,1.07-19.27c2.84-7.42,17.15-11.63,20.34-21.41
			c5.31-16.28-0.15-43.31,1.07-65.3c0.79-14.18,3.72-26.06,8.56-37.47c-4.07-4.15-11.7-4.64-17.13-7.49
			c-10.82-5.7-20.96-13.88-29.97-21.41c-18.32-15.3-34.29-32.83-46.03-55.67c-5.57-10.83-10.29-22.35-18.2-32.12
			c-9.69-11.96-22.73-21.67-37.47-26.76c-10.21-3.53-35.54-7.15-34.26-21.41c1.06-11.79,11.57-7.48,21.41-5.35
			c13.09,2.83,15.94,2.19,26.76,6.42c13.14,5.15,21.6,9.79,31.05,18.2c7.55,6.72,17.13,17.12,23.55,25.69
			c4.88,6.52,7.57,13.64,11.78,21.41c11.81,21.81,26.65,36.55,48.17,48.17c9.49,5.12,23.07,12.87,40.68,9.63
			c6.79-1.25,12.03-6.7,18.2-9.63c29.29-13.92,70.83-18.66,117.76-16.06c26.61,1.47,53.25,8.15,77.08,14.99
			c12.26,3.52,25.39,9.6,42.82,9.63c7.67,0.01,15.54-1.47,23.55-1.07c6.77,0.34,13.59,2.36,20.34,2.14
			c5.82-0.19,11.62-2.36,18.2-3.21c16.97-2.19,33.14-2.28,46.03-8.56c8.96-6.18,15.29-24.96,27.84-23.55
			c9.65,1.09,9,12.83,14.99,20.34c22.53,3.15,30.68-17.06,49.24-21.41c-5.94,12.62-14.17,22.94-18.2,37.47
			c3.46,14.33,19.18,20.18,20.34,35.33c0.56,7.35-4.15,14.48-3.21,22.48c0.91,7.79,4.34,12.65,7.49,20.34
			c1.15,2.8-2.14,7.01-2.39,9.68C693.6,227.56,693.5,228.12,693.35,228.65z"/>
	</g>
</svg>
