<?xml version="1.0" encoding="utf-8"?>
<!-- Generator: Adobe Illustrator 24.0.1, SVG Export Plug-In . SVG Version: 6.00 Build 0)  -->
<svg version="1.1" xmlns="http://www.w3.org/2000/svg" xmlns:xlink="http://www.w3.org/1999/xlink" x="0px" y="0px"
	 viewBox="0 0 679 391" style="enable-background:new 0 0 679 391;" xml:space="preserve">
<style type="text/css">
	.st0{fill:none;stroke:#340238;stroke-width:6;stroke-linecap:round;stroke-linejoin:round;stroke-miterlimit:22.9256;}
	.st1{fill:none;stroke:#118DB0;stroke-width:6;stroke-linecap:round;stroke-linejoin:round;stroke-miterlimit:22.9256;}
	.st2{clip-path:url(#SVGID_2_);fill:#118DB0;}
	.st3{clip-path:url(#SVGID_2_);}
	.st4{fill:url(#SVGID_3_);}
	.st5{clip-path:url(#SVGID_2_);fill:none;}
	.st6{fill:#090609;}
	.st7{fill-rule:evenodd;clip-rule:evenodd;}
	.st8{fill-rule:evenodd;clip-rule:evenodd;fill:#80BC00;}
	.st9{clip-path:url(#SVGID_7_);}
	.st10{clip-path:url(#SVGID_7_);fill-rule:evenodd;clip-rule:evenodd;fill:#C3D82E;}
	.st11{fill-rule:evenodd;clip-rule:evenodd;fill:#FFFFFF;}
	.st12{fill:#FFFFFF;}
	.st13{fill:none;stroke:#FFFFFF;stroke-width:6.8882;stroke-miterlimit:22.9256;}
	.st14{clip-path:url(#SVGID_19_);}
	.st15{clip-path:url(#SVGID_21_);}
	.st16{fill:#118DB0;}
	.st17{fill:#B9D30E;}
	.st18{fill:#671D6A;}
	.st19{fill:#CCCCCC;}
	.st20{fill:#FAFFCF;}
	.st21{fill:none;stroke:#FAFFCF;stroke-width:6;stroke-miterlimit:10;}
	.st22{clip-path:url(#SVGID_25_);fill:#118DB0;}
	.st23{clip-path:url(#SVGID_25_);}
	.st24{fill:url(#SVGID_26_);}
	.st25{clip-path:url(#SVGID_25_);fill:none;}
	.st26{clip-path:url(#SVGID_30_);}
	.st27{clip-path:url(#SVGID_30_);fill-rule:evenodd;clip-rule:evenodd;fill:#C3D82E;}
	.st28{clip-path:url(#SVGID_42_);}
	.st29{clip-path:url(#SVGID_44_);}
	.st30{fill:#33811C;}
	.st31{clip-path:url(#SVGID_52_);}
	.st32{fill:#FF8300;}
	.st33{fill-rule:evenodd;clip-rule:evenodd;fill:#671D6A;}
	.st34{fill-rule:evenodd;clip-rule:evenodd;fill:#118DB0;}
	.st35{clip-path:url(#SVGID_56_);fill:#118DB0;}
	.st36{clip-path:url(#SVGID_56_);}
	.st37{fill:url(#SVGID_57_);}
	.st38{clip-path:url(#SVGID_56_);fill:none;}
	.st39{clip-path:url(#SVGID_61_);}
	.st40{clip-path:url(#SVGID_61_);fill-rule:evenodd;clip-rule:evenodd;fill:#C3D82E;}
	.st41{clip-path:url(#SVGID_73_);}
	.st42{clip-path:url(#SVGID_75_);}
	.st43{clip-path:url(#SVGID_79_);fill:#118DB0;}
	.st44{clip-path:url(#SVGID_79_);}
	.st45{fill:url(#SVGID_80_);}
	.st46{clip-path:url(#SVGID_79_);fill:none;}
	.st47{clip-path:url(#SVGID_84_);}
	.st48{clip-path:url(#SVGID_84_);fill-rule:evenodd;clip-rule:evenodd;fill:#C3D82E;}
	.st49{clip-path:url(#SVGID_96_);}
	.st50{clip-path:url(#SVGID_98_);}
	.st51{clip-path:url(#SVGID_102_);}
	.st52{fill:url(#SVGID_105_);}
	.st53{opacity:0.05;fill:#118DB0;}
	.st54{fill:none;stroke:#671D6A;stroke-width:6;stroke-linecap:round;stroke-linejoin:round;stroke-miterlimit:22.9256;}
	.st55{fill:none;stroke:#606060;stroke-width:4;stroke-miterlimit:10;}
	.st56{clip-path:url(#SVGID_107_);fill:#118DB0;}
	.st57{clip-path:url(#SVGID_107_);}
	.st58{fill:url(#SVGID_108_);}
	.st59{clip-path:url(#SVGID_107_);fill:none;}
	.st60{clip-path:url(#SVGID_112_);}
	.st61{clip-path:url(#SVGID_112_);fill-rule:evenodd;clip-rule:evenodd;fill:#C3D82E;}
	.st62{clip-path:url(#SVGID_124_);}
	.st63{clip-path:url(#SVGID_126_);}
</style>
<g id="Fondo_1_">
</g>
<g id="Divisor">
</g>
<g id="Bulto_cuido">
</g>
<g id="Imagen_Mojarras">
</g>
<g id="Imagen_Truchas">
</g>
<g id="Banner">
</g>
<g id="Imagen_Tilapias">
</g>
<g id="Estimado_txt">
</g>
<g id="titulo_recomendado">
</g>
<g id="txt_cuido">
</g>
<g id="Boton_estimado">
</g>
<g id="Sacos_txt">
</g>
<g id="Boton_N_saco">
</g>
<g id="Botón_Descarga">
</g>
<g id="Footer">
	<path class="st18" d="M1208.57,82.32c-2.5,0.67-4.71,3.48-7.68,1.39c0.37,1.86-1.43,2.77-0.34,4.21c0.45-0.03,0.32-0.68,0.38-1.13
		c1.13,0.41,0.44,0.61,0.4,1.57c-1.24-0.31-1.93-0.02-2.3,0.61c-1.01,0.05-1.27-0.62-1.17-1.62c-0.61,0.33-0.88,0.96-0.37,1.51
		c-2.58-0.29-3.9,3.62-4.93,6.19c-3.86,0.22-3.43,4.98-4.13,8.55l-0.77-0.06c-1.27-3.01,0.68-5.18,0.31-7.67
		c-0.93-0.22-0.83,0.65-1.92,0.25c-0.93,5.42-3.66,6.58-5.25,11.16c-0.31-0.1-0.39-0.41-0.78-0.44c0.86-1.38,1.56-4.06,1.09-5.69
		c-1.09-0.14-0.88,1.09-1.9,1.02c1.06,0.63,0.76,1.33-0.37,1.51c0.69,0.38,1.21,0.93,1.56,1.65c-1.54,0.61-3.2,3.78-1.11,4.92
		c0.18,1.09-1.44-1.07-1.53,0.28c-0.52-0.3,0.32-1.15-0.79-1.59c-0.88,0.61,0,2.82,0.8,3.13c-0.21,0.79-1.45-0.65-2.31-0.54
		c-0.42,1.56,0.83,1.55,0.8,2.74c-0.03,0.94-1.26-0.01-1.16-0.47c-1.16,0.39,0.29,1.49,0.41,1.95c-0.3,0.15-1.58,0.38-2.31-0.16
		c-0.29-1.2,0.38-1.37,0.36-2.29c-1.8,0.38-0.86,2.33,0.03,3.08c-1.11,1.51-2.21,2.77-1.48,5.28c-1.51,0.39-0.94-1.18-1.93-1.28
		c0.43-1.07,1.03-1.96,1.5-2.97c-1.52-0.13-2.29-0.95-2.33-2.47c-0.89,0.05-0.87,0.96-0.37,1.51c-1.05-0.88-0.95,0.81-2.31-0.16
		c0.05,2.11-0.92,3.01-2.25,4.46c-0.84-0.32-0.04-2.03,1.14-1.46c0.06-0.32-0.16-0.37-0.38-0.41l-0.01-0.76
		c-1.45-0.01-1.48,1.47-1.9,2.56c-1.16-0.46-1.54-1.66-2.71-2.11c0.45,1.24,0.04,0.88,0.02,2.31c-1.17,0.2-1.41-0.49-2.31-0.54
		c-0.15,0.79,0.28,1.03,0.4,1.56c-0.93,0.1-0.85-0.76-1.93-0.52c-0.66,1.58-1.9,2.55-3.03,3.63c-1.37-0.42-0.06-0.94-0.41-2.33
		c-1.09-0.01-0.46,1.79-1.91,1.41c0.33,0.33,0.24,1.07,0.78,1.2c-3.46,1.91-4.32,6.59-7.58,8.69c0.06,0.46,0.7,0.38,1.16,0.47
		c0.06,0.95,0.08,1.86-0.36,2.29c-3.86-2.49-2.79,4.46-4.93,5.42c-2.36-3.35,0.42-4.53,0.68-7.25c-1.43,0.15-0.96,2.53-2.67,1.35
		l0.02,2.31c-0.8,0.11-1.02-0.34-1.54-0.49c0.53-0.45,0.15-1.87,1.14-1.84c-1.15-0.63-0.04-0.97-0.8-1.98
		c-2.39-0.76,0.22,3.78-2.27,2.92c0.26,1.95,0.49,3.94,0.83,5.82c-1.29,0.18-1.42-0.74-1.55-1.65c-1.61-0.44-1.51,0.94-2.29,1.38
		c0.65,0.42,1.01,1.13,0.8,2.36c0.6-0.13,0.31-1.19,1.53-0.67c-0.16,1.1-0.79,1.7-1.9,1.79l0.04,3.46c-1.46-0.9-0.59-1.31-1.93-0.14
		c-1.43,0.31-0.62-1.49-1.93-1.29c1.66,2.23,0.04,2.64,0.45,5.41c-1.43,0.77-2.56,1.85-4.2,2.4c1.03,2.77,0.31,4.21,0.08,6.54
		c-1.39,0.27-0.41-1.69-1.17-2c-1.53,1.85-0.54,6.27,0.1,8.46c2.2-1.25,0.08-4.46,0.69-6.1c0.66,0.02,1,0.35,1.16,0.85
		c0.85-0.1,0.35-2.09-0.4-1.95c3.12,0.04,1.38-7.77,5.67-7.68c1.04,3.64-1.66,6.59-3.74,8.19c1.58,3.96-1.25,6.35-3.35,8.99
		c-0.55-1.9-1.06-3.17-2.36-4.77c0.32,1.36-0.55,1.44-0.36,2.67c-3.8-0.53-1.12,3.46-4.57,3.14c-0.78,2.69-0.49,1.85-1.49,4.12
		c0.85-0.15,0.56,0.77,1.16,0.85c-0.21,0.79-0.95,1.04-0.74,2.26c-1.59,0.08-1.01-1.43-0.41-1.95c-1.08-0.74-2.06,2.53-1.11,3.38
		c-0.82,0.65-0.78,2.21-2.67,1.73c-1.16,0.92-0.19,4.09-1.86,4.48c-1.83-0.49-1.81-2.71-2.36-4.39c-1.2,1.48-0.12,3.71-2.24,5.23
		c-1.43-0.13-1.25-0.66-1.92,0.25c0.12,1.36,1.43-0.86,1.55,0.49c0.63-0.47,1.31-0.89,1.51-1.81c1.29,0.77,1.03,0.83,1.92-0.25
		c0.45,0.09,0.33,0.72,0.39,1.18c-0.15,0.85-2.04-0.13-2.3,0.61c0.33,0.34,0.24,1.07,0.78,1.2c-0.31,0.94-1.33,1.13-1.9,1.79
		c-0.8-0.27-0.82-0.65-0.4-1.18c0.15-0.56,0.49,0.18,1.15,0.08c-0.5-0.7-0.81-1.57-1.94-1.67c0.62,5.71-1.94,8.08-2.92,12.09
		c-0.55,0-1.09-0.01-1.16-0.46c0.43,0.84-0.35,3.89-1.47,5.28c-1.19-0.87,0.29-3.4-0.43-3.87c1.39,0.38,1.38-0.57,0-0.39
		c-1.12,3.04-2.53,5.41-4.14,7.02c-1.96-0.76,1.06-2.83-0.44-4.26c-0.66,0.77-1.32,0.58-0.74,1.87c-3.48,1.38-4.72,8.87-6.76,11.83
		c-1.09-0.01,0.43-2.48-1.18-2c0.8,1.48,0.19,2.73-0.34,3.82c0.76-0.34,1.64-0.55,1.91-1.41c0.31,0.09,0.38,0.41,0.77,0.44
		c-0.41,1.84-2.94,1.45-2.64,4.04c-0.69,0-0.82-0.52-1.54-0.49c0.04,1.82-1.45,2.01-1.88,3.33c-0.66-0.03-1-0.35-1.17-0.85
		c-0.73,0.11-0.28,1.47-1.52,1.05c-0.13,0.65,0.31,0.75,0.78,0.82c-3.59,3.23-5.5,5.91-8.33,9.8c-0.68-0.14-0.89-0.72-0.79-1.59
		c-0.66,0.45-0.76,1.48-1.52,1.82c-0.39,1.41,1.46,0.7,1.18,2c-1.67,0.02-2.2,1.22-2.26,2.92c-0.93,0.09-0.85-0.75-1.93-0.51
		c0.13,0.79,1.05,0.82,1.17,1.61c-2.17-0.13-0.74,0.95-1.89,2.56c-0.92,0.1-0.85-0.76-1.93-0.51c0.18,0.48,0.5,0.82,1.17,0.85
		c-0.58,1.75-4.43,2.92-5.75,1.53c-0.99,2.49,2.59-0.2,2.72,2.1c-0.66,0.61-1.01-0.13-2.3,0.23c-0.09,1.64-1.88,1.9-0.72,3.79
		c-0.79,0.82-1.58,1.88-3.07,0.94l0.03,1.92c1.74,0.4-0.6-1.09,1.15-0.69c0.98,2-2.79,3.64-3.38,6.3c-0.54-1.07-1.37-1.58-0.81-2.74
		c-2.38,0.16,0.03,3.04-1.09,4.53c-2.11-0.45-1.87,1.56-2.26,2.92c-2.14-0.11-2.68,1.47-3.42,2.84c-1.13-0.61,0.66-1.27,0.35-2.28
		c-0.97-0.25-0.66-1.71-1.56-2.03c0.18,2.21-1.09,3.87-0.69,6.09c-0.68-0.08-0.79,0.71-1.91,1.02c-1.57-0.78,1.99-2.42-0.8-2.35
		c-0.23-1.37,1.35-0.85,1.12-2.23c-1.5-0.41-1.41,2.78-2.67,1.36c0.11,1.31-0.86,1.67-1.11,3.38c-1.58-1.69-1.09,1.04-3.06,0.95
		c0.04,2.31-1.41,3.06-1.86,4.86c0.79,0.84,2.33,0.52,2.3-0.61c1.28,1.49-1.15,2.31-1.88,2.95c-0.79-0.45-0.93-1.59-0.8-1.97
		c-0.78-0.52-1.34-0.01-2.32-0.92c1.73,1.86-0.6,1.57-0.33,3.82c1.46,0.66,0.72-1.01,1.91-0.64c-0.53,0.71-0.44,2.06-1.9,1.79
		c-0.57-0.21,0.15-0.48-0.01-1.15c-0.66-0.13-0.99,0.58-1.15-0.08c-1.3,0.07,1.05,1.55-0.75,1.1c0.86,0.49,1.9,0.8,1.95,2.05
		c-0.9,0.88-0.72-0.62-1.93-0.51c-0.05,0.96,0.61,1.24,1.18,1.61c-0.25,0.37-0.88,0.34-0.75,1.1c-1.86,0.07-1.14-2.29-2.73-2.48
		c0.33,0.73,0.52,1.58,1.18,2c0.25,1.52-2.11,0.31-1.51,2.2c-1.17,0.2-1.41-0.49-2.31-0.54c-0.02,1.63-1.33,1.89-2.28,2.54
		c0.93,1.84-0.84,2.81-1.87,3.71c-0.92,0.08,0.19-1.74-1.17-1.23c0.41,2.06-1.15,2.35-2.25,3.69c-0.32,1.21,1.28,0.61,1.18,1.61
		c-0.87,1.29-1.38-1-2.71-0.56c-0.44,0.54-0.43,0.94,0.02,1.54c-4.03-0.45-2.58,4.86-5.69,5.38c0.7,1.98,0.08,2.16-0.32,4.2
		c-0.3,0.37-1.35-0.23-1.91,0.64c-1.21-0.81,0.57-1.63,0.35-2.66c-1.78,0.5-1.81,2.17-1.87,3.71c-1.28,0.56-1.32-0.33-2.7-0.56
		c-0.46,1.01-1.47,0.86-0.74,2.25c-0.51-0.03-1.02-0.07-1.53-0.1c1.4,0.76-0.14,3.15-2.27,2.54c0.88,2.04-0.27,1.94-1.5,2.59
		c-0.04,1.46,0.32,0.15,1.16,0.46c0.08,0.97-0.85,0.88-1.13,1.46c-1.67-0.25-1.18-0.75-1.56-1.64c-0.81,0.79-1.85,1.34-3.84,0.89
		c-0.07-0.44,0.08-0.67,0.38-0.74c-0.88-0.65-2.22,1.44-3.05,2.1c2.53-1.34,3.49,0.31,5.75-1.16c-0.05,3.44-3.2,0.76-4.2,2.41
		c0.92,0.82,3.2,0.35,3.87,1.41c-1.27-0.28-2.4,1.12-3.84,0.51c0.33,1.37,1.18,2.25,1.59,3.56c-1.22-1.64-2.06-0.64-3.47-0.62
		c-0.91-0.18-0.25-1.83-1.57-1.64c0.32,0.97,0.15,1.15,1.18,2c-0.45,0.53-1.88,0.46-0.37,1.13c-0.57,0.53-1.68,0.5-2.68,0.59
		c-0.64-0.6,1.64-1.73-0.04-2.69c-0.29,1.69-3.03,7.84-4.55,4.69c-0.63,0.47-0.26,2-1.51,1.82c1.11,2.69-2.37,3.13-1.84,6.4
		c-1.65-1.01-1.94,0.98-2.7-0.57c-0.95,0.31,0.55,1.51,0.04,2.69c-1.54,1.29-3.52,2.12-3.78,4.74c-1.27-0.97-2.17,0.56-1.52,1.43
		c-1.6-0.54-1.49,0.71-2.68,0.59c0.82,0.49,1.12,0.22,2.32,0.92c-0.6,0.83-2.23,0.84-3.07,0.57c-1.18,0.77,0.67,1.68-1.89,1.79
		c0.25,0.41,0.89,0.45,0.78,1.2c0.56-1.06,1.66-1.54,3.05-1.72c-1.39,1.31-2.9,2.51-4.17,3.95c-0.31-0.09-0.39-0.41-0.78-0.43
		c0.26-1,2.26-1.31,1.12-2.61c-1.6,0.33-0.86,2.77-3.42,2.84c0.04,0.55,0.08,1.09-0.37,1.13c0.17,0.49,0.5,0.82,1.17,0.84
		c-0.14,1.5-1.67,1.53-1.88,2.94c-1.08,0.25-1-0.6-1.93-0.51c-0.22,1.21,1.4,0.62,0.4,1.56c-1.23,0.16-0.55-1.41-1.54-0.48
		c-0.2,0.84,0.74,0.59,0.78,1.2c-5.28,0.43-6.39,6.26-9.89,7.41c-0.71-0.1-0.25-1.31-0.8-1.58c-1.45,0.62-0.73,3.52-3.42,2.85
		c0.18,0.48,0.5,0.82,1.17,0.85c0.33,1.1-0.53,0.96-0.36,1.89c-0.82,0.13-0.74-0.6-0.78-1.2c-1.08,0-1.03,1.19-1.9,1.42
		c0.07,0.45,0.71,0.37,1.16,0.46c0.3,1.06-0.75,0.72-0.75,1.48c-0.39-0.28-0.41-0.91-1.16-0.84c0.01,0.51,0.01,1.02,0.02,1.54
		c-0.92,0.1-0.85-0.76-1.93-0.51c-1.5,2.09-3.01,4.16-4.91,5.81l1.15,0.08c-0.53,0.45-0.14,1.87-1.12,1.84
		c-0.82,0.12-0.75-0.6-0.79-1.2c-1.57,0.59-2.51,3.54-2.62,4.43c-1.12-0.55-1.76-0.31-1.91,1.02c1.73-0.15,0.89,0.7,0.79,1.59
		c1.32-2.06,3.2-1.61,4.56-3.92c-0.17-0.57-0.34,0.02-0.77-0.05c-0.49-1.27,1.24-0.21,0.75-1.49c1.57,0.42,1.32,0.15,3.08,0.2
		c-3.03,1.27-4.31,5.87-7.22,6.05c0.08,0.32,0.39,0.41,0.4,0.8c-0.31,1.11-0.59-0.93-1.54-0.48c0.47,2.76-1.62,2.84-3.03,3.64
		c0.78,1.42-0.08,2.1-1.11,2.61c-0.52-1.07-0.65-2.51-1.97-2.81c0.3-0.79,1.56-1.39,0.74-2.25c-0.59,0.84-0.8,0.67-1.92,0.26
		c0.59,1.21-0.11,1.49,0.42,2.33c-0.32,0.92-1.69,0.75-1.51,2.21c-2.2-0.74-3.07,1.68-3.79,3.59c-1.25-1.19-1.81-0.44-1.91,1.41
		c-0.48-0.2-0.8-0.55-0.79-1.2c-1.81,0.63-1.73,3.23-3.4,4.01c0.05,0.72,1.28,0.35,1.17,1.22c0.17,0.93-1.75-0.32-1.14,1.08
		c-0.66-0.02-1.01-0.35-1.17-0.85c-0.78,0.4,1.14,1.08-0.36,1.51c-0.88,0.05-1.45-0.19-1.55-0.86c-0.36,1.51-3.14,2.08-2.25,3.69
		c-0.93,0.1-0.85-0.76-1.93-0.5c1.22,1.25-0.79,1.14-0.75,1.1c-1.15,1.45,0.01,3.46-2.63,3.67c0.92,1.43-1.2,2.37-1.87,3.33
		c-0.39-0.27-0.41-0.9-1.17-0.84c0.72,1.88-1.45,1.49-1.1,3.76c0.54,1.13,2.03,0.14,1.92-0.65c0.51-0.15,0.05,1.76-0.35,1.9
		c0.59,1.3,1.08-0.59,1.53-0.67c0.53,0.15,0.34,0.98,0.41,1.56c-0.19,0.4-2.31-0.23-1.89,1.8c-0.95-0.01-1.87-0.05-1.94-0.89
		c-1.39-0.06-1.04,1.69-2.67,1.36c0.35,0.7,1.24,1.2,0.42,1.94c-1.06-1.9-0.69-4.33-0.11-6.52c-0.76,0.46-1.82,0.61-2.68,0.98
		c0.11,0.66,0.85,1.56-0.36,1.51c0.14,0.51,0.68,0.65,0.79,1.2c-0.31,1.35-0.95-0.01-2.31,0.24c1.82,1.54-1.27,4.99-3.41,3.62
		c0.99,1-0.8,0.76-0.35,2.27c1.33,0.13,0.96-1.52,2.29-1.38c0.72,0.77-1.58,1.59-2.27,2.15c0.33,0.46,0.52,1.06,0.42,1.95
		c0.01,0.9-1.06-0.21-0.78-0.82c-0.96,0.32,0.34,1.72,1.18,1.61c0.15-0.72,1.09-0.62,0.74-1.87c0.58,0.23,0.99,0.63,1.56,0.86
		c-0.31,1.44-2.39,1.03-2.65,2.51c-0.97-0.59-0.93-3.51-2.35-2.45c1.3,0.87,0.28,0.81,0.03,1.92c-1.29-1.09,0.11-1.15-1.94-0.51
		c0.69,0.85,0.89,1.19,0.42,2.32c-1.82-1.23-0.88,1.89-3.05,1.34c2.05-2.41,2.58-5.38,6.05-6.9c-2.28-0.46,1.11-2.28-0.83-3.5
		c-0.69-0.1-0.81,0.41-1.53,0.28c0.95,1.66-1.58,2.22-2.67,1.75c1.69,0.63,0.16,1.9,1.97,2.42c-0.57,0.42-0.42,1.57-1.52,1.44
		c-1.02-0.28,1.58-1.39-0.79-1.2c-0.5-1.27,1.25-0.21,0.75-1.48c-0.7,0-0.82-0.52-1.55-0.48c0.23,2.39-1.12,1.66-2.3,1.01
		c1.64,1.71-1.85,2.91-2.62,4.43c0.36,1.14,0.59,0.47,1.55,0.48c0.09,2.56-3.23,3.31-2.61,5.2c-1.23,0.26-0.82-1.04-1.56-1.25
		c0.96-1.01,1.69-2.26,3.03-2.87c-0.18-0.87-0.71-1.41-1.57-1.63c0.15,0.66-0.29,0.71-0.76,0.71c0.18,0.36,0.35,0.71,0.79,0.82
		c-2.25-0.2-3.86,3.74-3.37,5.54c-1.55-2.49-2.34,0.33-4.25-0.66c0.03,0.66-0.27,0.98-0.75,1.1c0.72,1.43,1.05-0.61,1.92-0.26
		c1.15,0.53,0.61,2.13,0.84,4.27c-1.96-0.27-0.34-1.92-1.2-2.76c-1.71,0.13-0.64,0.81-1.12,2.23c0.78,0.16,1.04,0.83,1.56,1.25
		c-0.15,0.73-1.49,0.21-1.13,1.47c1.61,0.04,0.78-2.45,3.05-1.73c0.12-1.75,0.38-3.38,1.47-4.12c0.82,0.17-0.53,1.16-0.75,1.49
		c0.3,0.89,1.28,0.14,1.03-0.43c3.37,3.51-5.05,5.64-6.66,9.66c0.55,0.01,1.09,0.01,1.16,0.46c1.02,0.18,0.28-1.47,1.53-1.05
		c0.67,0.47-0.09,2.64-1.51,2.2c1.33,0.58,0.99,3.39-0.71,3.02c-0.44,0,0.26-1.95,1.12-1.85c-1.44-0.94-0.76-1.56-1.59-2.78
		c-1.28,0.33-1.32-0.2-2.69,0.22c0.9-1.74,2.49-1.7,2.61-4.82c-1.74-0.18-0.88-1.02-2.71-0.55c0.7,0.65,2.07,0.64,1.59,2.4
		c-1.24,1.23-2.91,2.01-3.79,3.6c0.87-0.06,1.45,0.18,1.55,0.86c0.76-0.34,1.33-0.87,1.9-1.42c0.52,0.61,0.15,1.67,0.04,2.31
		c-0.65,0.1-0.73-0.35-0.79-0.82c-1.61,0.5,0.86,1.42-0.73,2.26c-0.67-0.54-0.8-1.58-1.58-2.02c0.17,2.79-3.86,3.75-3.74,6.67
		c-0.74-0.21-0.72-1.14-1.94-0.89c-0.24,1.14-1.46,1.25-1.1,3c0.89-0.07,1.48,0.15,1.94,0.5c-0.42,1.33-1.66,1.79-1.87,3.33
		c-1.22-0.39-1.66-2.93,0.34-2.66c-1.03-0.2-0.91-1.48-1.96-1.65c0.63,2.16-0.79,2.43-1.46,4.89c1.25,0.41,0.51-1.23,1.53-1.06
		c0.94,1.02-0.95,1.22-0.73,2.64c-0.69,0.01-0.82-0.52-1.55-0.48c1.74,2.58-2.26,2.06-2.24,4.07c-2.01-0.97,0.39-2.46-0.45-3.47
		c-0.37-0.01-0.29,0.45-0.37,0.75c-1.24,0.4-0.32-1.26-1.56-0.86c-0.06,1.26-1.74,1.57-0.34,2.28c0.23,1.5-1.65,0.8-1.9,1.8
		c-0.67-0.39-1.09-1.48-0.03-1.53c-1.52-1.25-1.31,3.46-3.44,1.71l0.04,2.3c0.8-0.12,1.03,0.33,1.55,0.48
		c-0.25,1.19-1.03,0.44-1.93,0.26c0.43,2.72-2.21,2.28-4.95,3.53c0.01,2.2-4.08,2.92-4.91,5.45c0.91,0.98,1.03-0.54,1.91-0.65
		c0.78,1.33-1.32,2.88-2.24,3.69c-1.31-0.7,1.18-1.14-0.04-1.92c-1.04,0.11-1.79,0.25-2.31-0.14c-0.05,0.84,0.33,2.86,0.46,4.24
		c-0.56,1.12-1.7-0.42-2.7-0.17c-0.59,0.3-0.81,2.89-1.9,1.42c-0.37,2.5-2.11,3.58-3.77,4.75c-1.47,0.22-0.49-1.87-1.96-1.65
		c-0.5,1.64,1.51,0.91,1.2,2.37c-0.26,1.41-1.93-0.15-3.09-0.19c-0.1,0.89-1.17,0.79-1.51,1.44c-0.39-0.68-1.09-1.05-2.33-0.91
		c0.27,0.33,0.62,1.09,0.02,1.15c0.11,0.99,0.66-0.49,1.54,0.09c0.2,1.21-0.95,1.02-1.51,1.44c0.12,0.92,1.43,0.05,1.54-0.29
		c0.53,0.41,0.79,1.07,1.19,1.61c-0.68,0.74-1.43,0.02-0.74,1.49c-1.72-0.13-0.51-0.91-1.19-1.6c-1.32,0.2-0.23,1.14,0.04,1.92
		c-0.56,1.18-1.93,1.52-2.65,2.52c-0.66-0.55-0.64-1.74-1.2-2.37c-1.14,0.5-3.5-0.34-3.83,1.31c-1.96-0.51-2.78-1.01-4.62,0.49
		c0.9-0.07,1.58-0.65,2.32,0.14c-0.01,1.12-0.86,1.37-1.51,1.83c0.02,0.76,1.06,0.55,0.81,1.58c0.64-0.79,3.11-1.02,2.27-2.16
		c0.57,0.37,1.24,0.65,1.19,1.6c-0.54,0.73-1.57-0.7-1.13,1.46c-1.24,0.4-0.32-1.26-1.55-0.86c1.35,1.07,0.27,2.02-1.12,2.23
		c0.28,1.21,1.19,0.72,1.54,0.09c0.06,0.69-0.46,0.78-0.35,1.51c-0.68-0.26-2.26,0.33-2.33-0.52c-0.44,0.21-0.51,2.67-1.52,1.06
		c-0.99,0.22,0.81,2.71-0.71,3.02c-0.53-0.15-0.34-0.98-0.42-1.55c-1.07,0.78-3.9,1.32-3.03,2.88c-0.11,0.43-1.8,1.36-1.54-0.09
		c-1.5,1.75-2.39,5.1-0.62,8.01c-0.37,0.49-1.03,0.69-1.13,1.46c-1.41,0.04-0.65-1.98-2.34-1.67c0.11-1.65,0.64-1.12,1.51-1.44
		c0.23-1.51-0.25-2.36-1.59-2.39c0.02,0.37,0.48,0.32,0.79,0.43c-0.21,0.92-0.3,1.95-1.51,1.83c-0.99-0.15,0.52-0.63-0.03-1.53
		c-1.33-0.37-0.46,1.53-1.91,1.04c1.59,2.28-1.85,2.91-4.18,3.2c0.1,1.31,0.96,3.19,2.35,2.06c-1.33-0.74-0.2-1.13,0.75-1.49
		c0.54,0.17,0.05,0.68-0.37,0.74c1.21,0.61,2.5-1.92,3.81-2.46c-1.65,4.32-7.34,7.7-10.18,12.04c-0.46-0.09-0.34-0.72-0.41-1.17
		c-0.79,0.18-1.45,0.5-1.12,1.85c-1.58-1-0.94,0.55-2.31,0.63c-1.02,0.07,0.32-2.13-1.19-1.6c0.62,1.97-0.53,1.58-2.27,2.55
		c0.44,1.56,0.39,2.92-1.88,2.57c0.27,1.54-0.99,1.48-0.72,3.02c-4.75-0.86-6.28,4.69-11.06,6.65c0.96,0.8,0.83,2.38-0.74,1.49
		c-0.3,1.2,0.37,1.47,0.81,1.96c-0.17,0.33-0.33,0.67-0.76,0.72c-0.51-0.69-1.33-1.08-1.21-2.37c-1.87,0.26,1.38,1.94-1.12,1.86
		c1.12,1.72,0.29,1.53-0.72,2.64c-0.85-0.11-0.86-1.01-0.82-1.96c-0.73,2.82-4.42,4.54-3.3,8.23c-0.45,1.31-1.11,0.64-1.91,1.05
		c-1.12-0.11-0.71-1.67-1.97-1.64c-0.16,1.2,0.52,1.59,1.21,1.98c-1.14,0.67-0.26,1.09-0.73,2.26c-1.61-0.53-1.76-3.06-0.85-3.88
		c-0.69,0.07-0.8-0.4-0.4-0.4c-2.43,0.09-5.48,0.57-5.31,4.68c-1.22,0.12-0.18-1.91-1.58-1.62c0.46,1.77-2.68,2.28-3.79,3.62
		c-0.04,0.68,0.49,0.83,0.42,1.56c-0.4-0.27-0.42-0.9-1.18-0.84c-0.63,0.73,0.04,0.49,0.03,1.54c-0.42-0.11-0.28-0.78-0.79-0.81
		c-1.64-0.05-1.77,1.45-0.72,2.26c-0.45-0.09-0.69,0.04-0.77,0.34c-0.45-0.09-0.34-0.72-0.41-1.17c-1.81,1.65-6.03,2.82-5.68,5.43
		c-2.81,0.55-0.91,1.58-2.67,1.77c0.6,2.51-0.26,2.82-0.67,4.94c0.97,0.11,1.19-0.54,1.92-0.67c0.13,1.26-1.49,0.73-1.51,1.83
		c-0.46-0.08-0.35-0.71-0.42-1.16c-1.29,1.06-3.29,1.38-4.59,2.43c-0.46-0.09-0.34-0.72-0.41-1.18c-0.65,0.46-1.51,0.71-1.51,1.84
		c1.58,2.77-5.23,3.38-5.66,6.6c2.53-1.79,4.9-3.76,7.63-5.35c-0.25,1.24-1.44,1.53-2.27,2.18c0.65,1.23,1.21-0.72,1.92-0.67
		c0.02,0.77,0.03,1.53,0.05,2.3c-0.69,0.01-0.82-0.51-1.56-0.47c-1.07,2.04,0.86,3.83-1.83,4.89c-0.86-0.54,0.41-2.05,0.32-3.05
		c-0.53-0.42-1.45-0.44-1.58-1.23c-0.09,0.66,1.43,4.04-1.06,4.55c-0.68-0.13-0.9-0.71-0.81-1.58c-1.49,0.04,0.24,3.15-1.46,3.76
		c-1.32,0.22-0.53-1.58-1.97-1.25c-0.07,0.32,0.16,0.37,0.39,0.4c0.58,0.51-0.91,1.07,0.43,1.94c-0.5,0.15-2.04,1.1-0.73,1.87
		c-0.6,0.26-0.55,1.19-1.52,1.07c-0.77-0.69-0.19-2.7-1.23-3.13c-0.23,0.69-0.58,1.66-0.71,2.65c-0.93,0.11-0.86-0.74-1.95-0.48
		c-0.86,1.37-2.28,2.17-3.41,3.27c-0.86-0.1,0.48-0.94-0.05-1.92c-2.07,0.79,0.38,3.85-2.62,3.7c-0.2,0.55,0.5,2-0.34,1.9
		c0.12,0.99,0.65-0.49,1.55,0.08c0.01,0.38,0.02,0.76,0.03,1.15c-1.89,0.33-2.24,2.22-4.2,2.47c-1.07-0.98,0.36-2.6,1.89-2.2
		c0.02-0.98,0.17-1.82,0.72-2.26c-0.55,0.66-3.5,0.61-3.04,2.91c-1.37,0.13-0.99-1.4-2.35-1.27c0.7,2.12-1.66,4.17-3.35,5.95
		c-1.17-0.31,0.35-0.8-0.04-1.53c-0.79,0.79-1.11-0.25-2.33-0.11c-0.42,1.57-1.97,1.99-2.24,3.71c-2.63,0.11-1.1,1.59-1.82,4.88
		c0.71-0.91,1.05-2.17,2.26-2.56c0.13-0.65-0.32-0.74-0.79-0.81c0.21-0.78,0.72-1.27,1.52-1.45c0.79-0.08-0.06,1.1-0.36,1.13
		c0.9,0.4,4.6,0.42,4.23-1.7c1.8,0.6,3.83-1.52,4.58-3.22c1.02,0.15,1.29,0.85,1.14-0.71c3.26-0.56,5.51-2.14,6.87-4.63
		c1.44,1.31,2.37-1.69,3.1,0.16c-0.11-0.71,0.58-1.27,1.11-2.25c-0.7-0.08-0.81,0.43-1.54,0.31c0.19-0.56,0.55-0.93,0.74-1.49
		c0.48,0.19,0.81,0.53,0.81,1.18c1.14,0.16,1.17-0.8,2.31-0.64c0.1-0.62-0.38-0.68-0.41-1.17c1.02,0.16,1.94,0.23,1.53-1.07
		c0.61,0,1.48,0.26,1.54-0.31c0.92-0.1-0.18,1.74,1.19,1.21c-0.81-2.27,3.15-4.72,4.94-4.34c1.15-0.19-0.39-0.84-0.04-1.54
		c0.06-0.3,0.38-0.36,0.36-0.75c1.18-0.22,1.16,0.72,2.34,0.51c-0.03-2.46,3.51-3.71,5.69-5.06c-0.31-1.19,0.36-1.37,0.34-2.27
		c-1.83,0.03-0.03,1.44-1.51,1.83c-0.17-1.07-0.12-0.77-1.57-1.23c-0.08-2.47,1.7-2.81,3.05-2.13c0.22,1.22-1.92,0.04-1.52,1.45
		c0.87-0.79,2.41-0.01,2.35,1.27c1.19-1.15,2.96-1.72,4.19-2.83c0.76,1.44,0.47,0.83,1.95,0.49c-0.37,0.87-1.31,1.16-2.69,1
		c0.06,0.72,1.28,0.33,1.19,1.21c0.41-0.96,1.69-1.02,2.28-1.79c-0.07-0.98-1.31-0.83-2.34-0.9c0.79-1.31,2.47-1.71,2.62-3.68
		c-0.38-0.68-1.3-0.84-1.58-1.62c0.83-1.38,1.06,1.03,2.33,0.52c0.58,0.19-0.14,0.48,0.03,1.15c2.47,0.32,4.09-2.97,6.9-2.69
		c0.25-2.74,2.61-3.32,4.15-4.74c1.54,0.53-0.15,1.88,0.84,3.11c1.95-0.3,0.09-2.71,2.3-1.02c-0.32-1-0.98-1.67-1.98-2.02
		c0.84-1.76,2.37-2.81,4.17-3.59c-1.13-1.95,0.75-2.61,1.86-3.35c0.46,0.09,0.34,0.72,0.41,1.17c-0.11,0.52-0.96,0.27-1.54,0.3
		c-0.06,0.44,0.1,0.69,0.4,0.79l0.02,0.76c1.19-0.15,0.72-2.01,2.67-1.38c0.09,0.96-0.85,0.88-1.13,1.46
		c0.84,1.31,1.62-0.55,2.31-0.64c0.44,2.88,1.76-1.09,3.45-1.34c-0.7-0.56-1.6-1.94-0.83-2.72c0.51,1.52,1.5,0.55,2.74,1.68
		c-0.07-0.45,0.08-0.67,0.37-0.74c-1.45-0.78-0.04-1.86-0.84-3.11c0.67-0.34,3.41-0.72,3.41-2.87c1.21-0.11,1.11,1.03,1.58,1.63
		c1.56-0.51,2.62-1.39,3.83-1.32c-0.01-0.5-0.02-1.02-0.03-1.53l-1.55-0.09c0.42,1.81-1.57,1.15-2.28,1.78
		c0.03-1.72,2.16-1.28,2.26-2.93c2.4,2.48,3.09-0.93,5.76-1.2c-0.83,0.27-0.82,1.4-1.9,1.42c0.94,1.06,2.12-0.8,2.68-1.38
		c-0.37-0.7-0.96-1.17-1.2-1.98c0.72-1.28,1.55,0.56,2.33,0.52c-0.16-0.66,0.28-0.71,0.76-0.72c-1.21-1.29-0.32-2.14,1.89-1.81
		c-1.88-0.78-0.15-0.71-0.44-2.71c2.18,0.08-0.38,2.27,1.98,2.03c-1.14-1.8-0.03-2.08-0.46-3.47c1.86,0.06-0.14,1.98,0.81,2.34
		c0.93-0.87,1.12-1.06,0.72-2.63c1.71,0.04-0.16,1.07,0.81,1.58c3.06-0.16,1.9-2.32,3-4.42c0.91,0.05,1.15,0.72,2.33,0.52
		c-0.09-1.72,1.59-1.61,1.87-2.95c0.77,0.31,0.91,1.22,1.57,1.62c0.12,0.63-0.35,0.64-0.36,1.12c-1.04,0.2-0.76-0.84-1.18-1.22
		c-0.94,1.29-0.58,2.35-2.25,3.31c1.14-0.46,2.66-0.52,3.05-1.74c1.2-0.04-0.96,1.05,0.41,1.18c-1.26,0.45-1.95,1.49-3.04,2.11
		c0.1,0.43,0.77,0.31,0.79,0.81c-0.3,1.11-0.98-0.55-1.93-0.11c0.03,0.66-0.27,0.98-0.75,1.1c2.4,2.58-2.4,1.19-1.85,3.71
		c-1.21,0.12-1.05-1.38-1.94-0.49c0.25,1.33,1.77,1.44,1.99,2.79c1.09,0.12,0.87-1.1,1.9-1.04c-0.07-0.45-0.71-0.36-1.17-0.45
		c-0.06-1.31,1.11-1.36,1.89-1.8c0.84,0.62-0.26,0.92,0.43,1.93c-0.62,0.86-1.7,1.25-1.87,2.57c-1.21,0.12-1.05-1.38-1.94-0.49
		c1.7,4.11-4.51,5.95-6.76,8.42c-0.66-0.41-0.31-1.79-1.2-1.98c2.57-1.86,5.52-3.32,7.6-5.69c-0.37-1.05-1.56,0.09-1.13,1.08
		c-1.26-0.14-1.84,0.8-1.95-0.87c-0.47,0.77-0.91,1.56-1.5,2.21c-0.69-0.38-0.52-1.58-1.95-1.26c0.55,1.73-0.02,1.54-1.11,2.23
		c-1.18,0.22-0.76-1.09-1.95-0.88c-1.67,0.92-2.58,3.3-2.6,4.83c-0.32-0.35-1.07-0.29-1.18-0.83c-0.02-1.07,1.07,0.97,0.76-0.72
		c-1.9,0.29-2.35,2.09-4.2,2.44l0.06,2.69c-0.91-0.18-1.47-0.69-2.72-0.54c0.58,2.1,1.8,0.85,2.74,1.3
		c0.01,1.39-2.75-0.07-2.28,1.79c-1.69,0.04-0.83-2.34-2.75-2.07c0.01,0.37,0.48,0.33,0.78,0.43c-0.75,2.1-2.83,2.84-4.55,3.95
		c0.09,1.6,2.18,1.32,2.72,0.53c-0.33,1.04,0.87,3.64-0.71,3.4c-1.09-0.44,0.55-0.99-0.42-1.55c-1.26-0.54-0.26,1.22-1.53,0.68
		c0.34,1.19,1.11,0.98,0.44,2.32c-0.84,0.02-1.24-0.39-1.19-1.22c-1.85,0.18,0.67,2.51-1.11,2.62c-0.88-0.33-0.16-2.19-1.58-2
		c-0.26,1.16,0.43,1.42,0.44,2.32c-0.16,0.33-0.32,0.66-0.76,0.72c-0.68-0.61,0.36-1.63-0.83-2.34c-0.87,1.01-1.28,0.16-3.09,0.21
		c-2.5,0.96-3.34,3.78-4.52,5.1c-0.37-2.48-3.85,2.08-5.74,2.74c-0.98-1.15,1.91-1.53,1.47-3.36c-2.52,0.49-1.78,3.86-4.18,3.59
		c0.08,0.45,0.72,0.36,1.17,0.45c0.45,1.45-0.93,1.04-0.72,2.26c-3.38-0.63-3.4,3.03-5.75,2.36c-0.81,2.58-2.94,2.48-2.97,5.2
		c0.75-0.6,0.49,0.06,1.55,0.08c-0.79,3.3-3.63,1.63-5.41,0.1c0.32,1.26,1.51,1.68,2,2.79c-1.05,0.55-1.76,1.45-3.06,1.75
		c-0.76-0.24,0.32-1.25,0.33-2.08c-0.44,0.55-3.61,1.95-3.8,2.67c-0.63,0.24-1.7-0.85-0.79-0.81c-0.99-0.94-0.77,0.71-1.14,1.09
		c0.07,0.45,0.72,0.36,1.17,0.45c-1.47,1.56-6.27,1.46-7.24,4.6l-1.94-0.1c0.01,0.76-1.05,0.44-0.74,1.49
		c-3.75-0.56-3.28,3.15-6.91,2.71c-0.67,2.68-3.15,3.53-6.11,3.9c0.4-1.64,0.02-2.13,0.3-3.42c-1.82,1.87-2.35,5.1-4.54,4.74
		c1.75,1.65,1.2,3.74,3.62,5.15c-1.16,0.69-2.64,1.07-3.83,1.72c1.87,1.69,4.11-2.68,6.19-0.45c0.09,0.83-1.37,0.1-1.93,0.29
		c1.11,1.39-1.46,1.56-1.08,3.38c-0.54-0.78-1.12-1.54-2.75-1.28c1.05,0.89,0.66,1.68,0.47,3.08c-1.36-0.2-3.44-0.16-2.3,1.03
		c-1.22,0.13-1.54-0.91-2.33-0.12c-1.14-0.39-0.46-0.59-0.43-1.55c-0.99,0.62-2.01,1.21-2.27,2.57c-1.32-0.04-0.64-2-1.99-2.01
		c-0.03,0.63,1.33,2.49-0.33,2.28c0.35,0.57,0.35,1.5,1.59,1.22c-0.62,1.49-0.63,1.15,0.07,2.68c0.31,1.05-1.85-0.36-1.54,0.7
		c-0.1,1.6,1.27,0.33,1.95,0.47c-0.33,0.66-1.41,0.57-1.52,1.46c-0.92-0.16-0.28-1.83-1.59-1.6c0.64,1.08-0.96,1.67-1.15,0.71
		c0.43,2.65-2.25,3.8-5.34,3.97c0.41,0.52,0.42,1.43,0.83,1.95c1.21-0.37,0.88,0,2.34,0.11c0.16-0.81-0.58-0.76-1.19-0.82
		c1.27-1.83,4.04-2.16,6.13-3.17c-0.62,2-3.55,1.67-4.18,3.64c0.93-0.43,1.87-0.86,3.08-1.01c-0.29,1.2-2.09,0.88-1.47,3
		c-0.92-0.16-0.76-1.36-1.97-1.23c0.07,0.68-0.46,0.79-0.35,1.51c-0.82,0.15-0.76-0.58-0.81-1.18c-0.77-0.03-0.46,1.02-1.53,0.69
		c0.96,1.32-0.97,1.83,0.08,3.07c-1.69,0.33-1.31-1.35-2.76-1.27c-0.15,1.36-2.64,2.3-3.45,1.76c-0.43,1.86-1.69,0.6-2.28,2.2
		c-1.17-0.3,0.35-0.8-0.04-1.53c-1.93,0.19-2.12,2.1-3.82,2.51c0.21,1.01,0.34,1.3,1.23,2.34c-0.83,0.42-1.66,1.96-0.69,3.03
		c-1.25,0.42-0.33-1.25-1.58-0.83c-0.81,0.31-0.63,1.6-1.91,1.45c-0.19,1.21,0.77,1.21,0.06,1.91c-1.29-0.06-0.46-2.18-1.24-2.73
		c-0.15-1.02,2.2,0.45,1.52-1.08c-1.12-0.75-2.49,0.82-2.66,2.18c-1.09,0.27-1.02-0.58-1.96-0.46c-0.25,1.62-1.38,4.3-2.62,3.71
		c-0.54,0.12-0.01,0.67,0.41,0.78c-0.55,0.82-0.98,1.75-2.69,1.41c0.31,1.18-0.64,1.1-0.32,2.28c0.15-1.45,3.03-0.22,2.67-2.18
		c1.57,0.45,1.17,1.61,3.15,0.9c0.27,2.39-1.52,1.27-1.91,1.45c0.24,1.7,1.48-0.02,2.37,0.86c-0.26-1,0.11-1.37,1.14-1.09
		c-0.27-1.23,0.7-1.16-0.06-1.92c-1.08,0.16-1.07,1.2-1.95-0.08c0.08-0.78,1.72-0.02,1.52-1.08c1.11,0.45,0.53,1.53,1.98,0.84
		c-1.77-0.98,0.88-0.78,1.52-1.46c0.28,0.09,0.95,0.96,0.77,1.34c0.86-0.34,2.77-0.41,3.12-1.57c2.44,1.02,2.47-1.24,4.66-0.18
		c0.6-1.3-0.38-2.03,0.69-3.02c0.53,0.14,0.35,0.97,0.44,1.54c2.09,0.48,2.14-1.08,3.46-1.37c-0.24-0.8-0.63-0.84-1.18-0.44
		c-0.47-1.5,1.34-1.3,0.32-2.28c0.24,0.13,1.53,1.02,1.56,0.07c1.14,0.39,0.46,0.59,0.43,1.55c1.73-0.26,1.76-2.2,4.22-1.72
		c-1.77-2.43,2.38-0.39,1.47-2.99c1.06,1.43,1.3-0.28,2.34,0.48c-0.54,0.82-0.98,1.74-2.68,1.41c1.06,2.26-2.08,2.64-4.2,2.87
		c0.54,0.67,1.07,1.33,0.86,2.71c-0.1-3.66,8.26-2.43,6.38-7.74c1.4-0.96,2.3-2.41,4.19-2.87c-0.24-0.81-0.63-0.84-1.18-0.44
		c-0.02-0.77-0.04-1.53-0.07-2.3c0.24-0.5,0.81-0.67,1.53-0.69c0.07,1.19-1.19,1.04-0.7,2.65c1.1-0.01,1.6-0.63,2.7-0.64l-0.04-1.53
		c0.27-0.34,0.69-0.54,1.14-0.71c0.85,0.09,0.86,1,0.83,1.95c1.77-1-1.19-2.66,1.07-3.39c-0.18-0.48-0.52-0.81-1.19-0.82
		c0.04-0.71,0.23-1.27,0.74-1.5c1.01,2.47,4.42,0.11,6.2-0.08c-0.62,1.55-4.6,3.03-2.98,4.44c-1.11,1.12-2.93,1.52-3.8,2.88
		c1.03,1.25,1.71-0.99,2.69-1.02c-0.35,1.4-0.8,0.97-0.32,2.66c-2.21-1.29-1.3,0.87-3.5-0.54c-0.21,1.64,0.96,1.95,2.01,2.38
		c-0.36,1.06-1.65-0.18-2.33-0.1c0.03,0.9-0.64,1.09-0.33,2.27c-1.09,0.27-1.02-0.58-1.95-0.47c0.15,1.79-0.44,0.51-1.52,1.08
		c-0.26,1.47-1.65,1.82-1.84,3.35c-1.24,0.28-0.83-1.03-1.59-1.22c0.58-1.23,3.24-1.92,1.46-3.37c-0.63,0.36-0.38,1.61-0.71,2.27
		c-0.32-0.22-0.64-0.43-1.18-0.44c0.06,1.67-0.04,1.91-1.5,1.84c-0.34,1.77,1.6,1.34,1.26,3.11c-0.07,0.31-0.38,0.36-0.37,0.75
		c-1.22,0.12-1.13-1.01-1.6-1.6c-1.47-0.47-1.08,0.9-2.31,0.66c-0.12,0.64,0.33,0.73,0.8,0.8c-0.64,1.58-3.66,0.8-3,3.68
		c-2.75,1.3-3.42,3.68-6.5,3.91c0.38,1.61-1.01,1.47-1.49,2.23c0.76,1.18,1.23,1.13,1.24,2.34c1.77,0.01,1.52-0.25,3.12,0.14
		c-0.58-1.37-0.66-0.79-0.85-2.32c0.55-1.07,2.07-1.15,1.85-2.97c1.22,0.26,0.67,2.24,1.26,3.11c0.98,0.07,1.69-1.99,2.7-0.65
		c1.57-0.91,1.38-3.57,4.18-3.25c-0.13,1.35-1.26,1.71-1.47,2.98c0.68-0.31,0.96-1.02,2.32-0.66c-0.64-1.04-0.47-1.2,0.75-0.73
		c0.01-2.83,3.63-2.07,4.54-3.99c1.16-0.33,0.72,0.89,0.83,1.56c1.22,0.24,0.99-0.98,1.91-1.06c-1.05-0.4-1.8-1.12-3.52-0.93
		c-0.38-0.29-0.61-0.72-0.82-1.18c0.37-0.5,1.02-0.72,1.53-1.07c0.61,0.19,0.37,1.21,1.57,0.83c0.14-0.79-0.29-1.02-0.43-1.54
		c0.08-0.41,0.76-0.22,0.75-0.73c1.32,0.41,0.07,0.86,0.82,1.57c-0.04,1.07-1.83,0.39-1.5,1.83c6.72-4.76,12.5-10.49,19.74-14.71
		c-1.27-2.02,1.47-2.98,3.04-2.13c-0.48-1.24-1.94-1.53-2.4-2.79c0.67-1.45,2.19,0.25,2.68-1.4c0.46,0.09,0.35,0.71,0.42,1.17
		c1.18-0.67,1.19-2.52,2.64-2.91c1.04,3.25,3.44-0.97,6.56-0.81c0.36-1.13-0.88-0.72-1.57-0.84c1.61-1.38,1.15-0.51,3.06-1.37
		c-0.1-0.55-1.16-0.19-1.18-0.83c0.24-0.5,0.81-0.67,1.53-0.68c-0.34-0.46-0.54-1.05-0.44-1.93c0.2-1.44,1.63,0.5,1.51-1.45
		c0.69,0.13,0.9,0.71,0.82,1.57c2.85-1.58,3.1-0.63,5.31-3.92c0.48,0.19,0.81,0.53,0.81,1.19c0.6-2.86,3.48-3.41,4.48-5.87
		c0.35,0.19,0.71,0.37,0.8,0.81c0.73-0.62,0.78-1.94,0.69-3.4c1-0.18,1.39,0.23,1.19,1.21c1.79-2.65,6.27-2.57,6.39-6.92
		c1.18-0.22,0.77,1.09,1.95,0.87c0.01,0.76-1.04,0.43-0.74,1.49c1.44-2.02,2.47-5.35,5.63-6.57c-0.59-1.16-2.1,0.8-1.96-1.26
		c1.82-0.12,3.3-0.2,3.83-1.31c-0.7-1.82-0.88,0.66-1.92,0.66c-0.18-1.56,1.01-1.7,1.49-2.59c0.68,0.65,1.17,1.49,1.6,2.39
		c1.61-2.12,1.52-4.94,4.49-6.24c0.42,0.11,0.28,0.78,0.8,0.81c0.69,0.09,0.81-0.42,1.54-0.29c-0.07-1.43-0.46-1.12-0.05-2.3
		c0.46,0.35,1.05,0.56,1.94,0.49c0.53-1.33,1.71-1.99,2.64-2.9c0.95,0.09,0.11,1.27-0.36,1.13c1.94,0.54,2.1-2.43,1.45-4.12
		c1.51-0.4,1.17,0.97,1.21,1.98c1.32-1.26,1-4.2,2.98-4.8c0.64-0.1,0.62,1.3-0.02,1.25c0.96,0.39,1.88,0.05,2.73-0.72
		c-0.22,0.34-0.86,1.36,0.42,1.17c-0.15,0.59-1.21,0.26-0.73,1.48c1.36,0.15,1.24-1.22,2.28-1.39c-0.78-0.3-1.27-1.81-0.05-1.91
		c-0.18-0.58-0.49,0.12-1.16-0.07c0.39-1.1,1.05-1.91,0.69-3.78c1.43-0.32,0.64,1.47,1.96,1.26c-0.09-1.18,0.87-2.11-0.07-3.06
		c1.85-1.28,4.24-2.49,4.93-3.92c-0.45-0.48-1.12-0.76-0.82-1.96c1.75,0.58,1.26,2.21,3.11,0.94c0.3,1.3-0.77,1.21-1.11,1.85
		c1.09,0.97,1.59-1.84,2.65-2.14c-0.26-0.41-0.9-0.45-0.8-1.2c1.02-0.16,1.14-0.85,2.7-0.22c0.25-1.16-0.7-1.17-0.44-2.32
		c0.43-0.66,2.85,0.73,2.27-1.78c0.93-0.11,0.85,0.75,1.94,0.49c0.09,0.96-0.57,1.17-1.12,1.47c4.79-0.69,7.35-6.92,11.35-9.67
		c0.57,0.51,0.76,1.36,0.82,2.34c0.94-0.4,0.99-1.72,2.28-1.78c0.04-0.95-0.62-1.23-1.19-1.59c1.63-1.62,6.6-2.64,5.64-6.93
		c1.46,0.38,0.05,1.34,0.82,1.96c1.26-1.12,1.47-1.44,2.65-2.14c-0.15-0.51-0.69-0.64-0.8-1.19c0.85-1.58,5.22-1.25,4.16-3.58
		c0.91,0.05,1.15,0.73,2.32,0.52c0.33-0.78-0.03-2.28,1.51-1.82c-1.21-2.95,3.71-2.61,3.74-5.51c0.25,0.55,1.49,0.14,1.56,0.86
		c0.51-1.35,0.73-3,3.03-2.5c-0.14-0.9,0.03-1.46,0.35-1.89c0.31,0.22,0.63,0.44,1.16,0.45c-0.46-0.81,0.57-1.79,0.76-0.72
		c0.02-1.14,1.14-1.95,2.64-2.51c-1.09-0.64-0.66-1.19-0.04-1.91c0.45,0.09,0.34,0.72,0.41,1.17c1.25-0.58,1.78-1.91,3.03-2.49
		c0.22,1.69-1.17,0.74-0.34,2.27c0.76-0.34,1.63-0.56,1.9-1.42c0.52,0.16,0.34,0.98,0.42,1.56c-0.7,0.65-2.68-0.02-2.27,1.78
		c0.57-1.06,1.81,0.91,2.3-0.24c1.13,0.68,0.49,1.46,0.05,2.3c-0.8-0.16-0.79-1.07-1.19-1.6c-1.27,0.15-0.52,1.42-0.34,2.27
		c-0.64,0.59-0.92,1.55-2.28,1.4c1.59-1.14-0.22-2.28,1.1-2.99c-0.37-1.08-1.55,0.8-1.18-1.22c0.09-1.35,1.07,1.41,1.16,0.07
		c0.14-1.8-0.34-0.59-1.56-0.86c0.17-0.33,0.33-0.67,0.76-0.72c-1.55,0.04-2.84,3.56-4.93,4.29c1.54,0.79-0.48,0.92,0.43,1.94
		c0.83-0.9,1.59-1.86,1.86-3.33c3.09,2.26-0.83,4.37-1.03,6.06c-2.39,0.32-2.05-1.95-3.9-2.14c1.25,1.39-1.61,0.83-1.09,2.61
		c0.38-0.76,2.5-1.89,3.07-0.2c-2.36-0.32-0.29,1.65-2.65,2.14c-1.36,0.12-0.98-1.41-2.34-1.29l0.04,1.92c0.55,0,1.09,0,1.17,0.45
		c-0.79,2.69-2.92,3.98-4.11,6.25c1.5,0.42,1.36-0.85,2.29-1.01c-0.39,1.7-1.75,4.04-3.79,2.83c0.65-0.33,0.97-0.99,0.72-2.24
		c-0.54-0.97-1.15,0.62-1.55-0.48c-0.98,1.34-0.4,3.92-3.03,2.88c0.37,1.25-0.56,1.16-1.13,1.46c0.34,0.33,0.25,1.06,0.8,1.2
		c-2.06,0.63-3.04,4.35-5.32,3.51c-0.73,0.87-1.2,2.01-1.87,2.94c-0.36-0.3-0.6-0.73-0.8-1.19c-1.12,0.26,0.26,1.24,0.04,1.91
		c-1.43,0.05-1.64-1.05-1.98-2.03c-1.21,0.47-1.84,1.93-3.45,0.95c0.54,1.05,2.06,1.16,2,2.79c1.78-0.52-1.3-2.18,1.09-2.61
		c1.03,0.57,1.21,1.33,0.82,2.34c-1.08,1.76-4.44,1.17-5.32,3.13c-1.64-0.6-0.03-1.26-0.05-2.3c-1.19,0.02-1.17,1.29-1.49,2.21
		c0.32,0.22,0.64,0.44,1.17,0.45c-0.27,0.71-1.15,0.2-0.36,1.12c-1.87,0.19-0.86,3.35-3.8,2.46c0.78,1.04-0.66,2.69-1.88,1.8
		c1.09,2.33-0.77,3.95-2.59,4.44c-0.1,0.61,0.38,0.68,0.41,1.17c-1.65,0.26-2.15,1.92-3.46,0.56c0.02,0.89,0.04,1.78,0.06,2.68
		c-1.95,0.55-0.94-1.72-2.36-1.67c0,1.62-0.98,2.23-2.26,2.54c0.54,0.78,0.42,2.21,0.84,3.11c-1.32-0.31-0.67-2.48-2.37-2.43
		c1.93,1.98-0.59,4.18-2.6,4.44c-0.58,1.32,0.74,2.42-0.7,3.01c-0.66-0.75-0.77-2.27-1.57-0.85c-0.79-0.42-0.87-1.52-0.84-2.72
		c-0.33-0.09-0.36,0.13-0.38,0.36l-0.77-0.05c-0.08,1.11,0.9,1.22,0.83,2.34c-0.38,1.52-1.85-0.22-3.47,0.18
		c0.09,1.45-1.72,0.97-1.88,2.18c1.87,0.42,2.35-0.58,2.66-1.76c0.47,0.47,1.38,0.51,2.33,0.52c-1.02,0.57-0.03,1.39-1.9,1.42
		c-0.45,1.21,1.26,0.37,0.81,1.57c-1.79-0.2-3.31,1.73-4.95,2.78c0.29,0.74,1.75-0.42,1.91-1.04c1.8,1.33-0.25,2.9-1.46,3.36
		c-1.52-0.43,1.25-1.33-0.03-1.53c-1.98-0.12-0.04,1.43-1.5,1.82c-0.81-2.99-2.61,3.05-5.74,2.35c0.39,1.25-0.56,3.07-0.65,4.92
		c-1.66-1.87-3.16,2.62-3,3.65c-0.55,0-1.1,0.01-1.17-0.45c0.31,0.91-1.17,0.96-1.09,2.61c-2.06-0.89-1.33,1.24-2.24,2.93
		c-0.74-0.2-0.72-1.13-1.95-0.87c-1.29,3.32-3.48,3.59-5.24,6.58c-0.79-0.25-0.79-1.19-1.56-0.47c1.57,1.65-0.64,1.93-2.27,1.4
		c1.61,0.85,1.25,2.9-0.3,3.42c-1.32-0.69,1.18-1.14-0.05-1.91c-0.7-0.08-0.81,0.43-1.54,0.3c0.24,0.79,1.18,0.82,0.43,1.55
		c-0.56-0.12-0.17-1.14-0.81-1.19c-1.71,0.63-1.5,1.6-0.71,2.25c-0.59,1.25-1.26-1.27-1.94-0.11c1.1,0.86,0.61,1.98,0.08,3.05
		c-1.52-0.87-0.61,0.53-2.31,0.26c0.86,0.87-0.18,1.7-1.11,1.85c-0.54-0.41,0.15-0.62-0.8-1.18c0.96,1.54-3.36,2.98-1.04,4.52
		c-1.25,0.1-0.17,2.55-1.48,2.59c-1.42-0.36,0.01-1.21-0.46-2.69c-1.01,0.34-1.27,1.44-2.28,1.79c2.21,2.83-1.55,4.09-1.79,5.24
		c-0.7-0.81-0.09-2-0.07-2.67c0.65-0.1,0.74,0.34,0.79,0.8c1.28-0.34-0.01-1.15,0.71-2.25c-1.51,0.95-1.54,1.52-4.23,0.93
		c-0.31,1.2,1.02,0.84,1.2,1.58c-2.58-0.38-5.42,5.39-7.56,6.47c-0.11,0.37-0.77,2.28,0.45,2.3c-0.09,1.83-2.7,0.95-1.08,2.61
		c-1.1,0.01-1.01-1.13-1.6-1.61c0.11-0.51,0.96-0.26,1.55-0.3c-0.2-1.36-1.72-0.84-0.84-2.33c-0.99,0.91-0.54,1.6-1.07,3.37
		c-0.32-0.21-0.64-0.42-1.17-0.44c0.07,1.29,0.89,0.11,1.59,1.22c-0.19,0.92-1.48,0.74-1.09,2.23c3.85-1.81,6.83-4.49,9.86-7.12
		c1.24-0.4,0.33,1.26,1.57,0.84c0.71-0.68,0.02-0.95-0.05-1.9c1.56,0.07,1.13,2.04,1.26,3.49c-1.66,1.48-5.27,1.41-6.06,4.63
		c-0.53,0.58-1.91,0.31-2.3,1.03c1.43,0.38,1.15,0.41-0.35,1.12c-0.25,1.03,0.8,0.81,0.82,1.57c-2.95-0.16-2.1,1.32-3.4,2.5
		c-0.93,0.11-0.86-0.74-1.95-0.48c0.96,0.8,0.95,1.95-0.32,2.27c-0.92,0.1,0.16-1.73-1.2-1.2c0.16,0.66-0.28,0.71-0.75,0.73
		c0.31,0.36,0.44,0.88,0.43,1.54c-2.08,1.11-3.04,1.72-5.35,2.03c1.39,2.01-1.66,0.79-1.47,2.59c-1.15-0.37,0.47-0.94-0.06-1.9
		c-0.64,0.72-1.14,1.57-2.27,1.79c-0.2,0.55,0.52,2-0.33,1.89c1.29,0.81,0.95,0.92,0.86,2.7c1.21-1.62,3.08-0.93,3.39-2.88
		c1.61,0.23,0.26,1.15,1.59,1.22c0.16-1.33-0.39-1.98-1.24-2.34c0.14-0.72,0.81-0.92,0.72-1.87c1.37,1.26,1.91-0.55,2.27-1.42
		c1.35,0.4-0.04,1.53,0.86,2.71c0.89-0.53,0.57-0.91,0.33-1.89c0.56,0.09,1.91,0.34,3.08-0.61c-0.55-0.52-0.43-1.67-0.47-2.69
		c0.91,0.44,1.29,1.38,2.75,1.28c-0.09-1.08,1.06-0.9,1.5-1.45c0.26,0.67,1.19,0.69,1.58,1.22c1.62-2.32,3.97-3.89,6.41-5.38
		c-0.14-2.37,2.76-1.67,2.99-3.65c4.06,0.17,3.6-5.87,7.61-4.55c-0.36-1.1,0.52-0.96,0.33-1.89c1.26,0.29,1.79-0.16,2.7-0.24
		c-0.28,1.22-1.72,1.01-0.7,2.63c-0.75-1.39-0.97-0.06-1.92,0.28c0.38,1.3,0.88,0.38,1.54,0.08c0.08,1.81-1.34,2.1-2.23,2.93
		c-0.74-0.07,0.2-1.47,0.73-1.48c-1.35-0.73-2.2,2.21-3.4,2.86c1.2,0.35,0.72-1,1.92-0.66c-1.98,1.41-1.64,3.03-2.96,4.79
		c-1.02,0.07,0.3-2.12-1.2-1.59l0.04,1.53c-2.46,0.77-3.71,3.32-4.11,5.11c-0.04-2.16-1.5-0.1-2.68,0.63
		c0.41,0.62,0.41,1.55,1.19,0.82c0.22,2.77-2.31,0.65-2.22,2.93c-1.14-0.08-1.47-0.94-1.99-1.62c-0.82,0.2-0.29,2.33,0.08,2.67
		c-0.28,1.24-3.55,0.87-2.23,2.55c-0.34,0.32-2.15,0.99-2.31,0.27c0.24,1.65-1.59,3.88-4.1,4.74c0.53-1.4,0.6-1.12,0.29-3.03
		c-1.08,0.15-2,0.46-3.08,0.61c-0.31,0.77,2,0.86,0.81,1.18c0.71,1.37,0.82-0.85,1.13-1.09c1.48,1.15,0.18,4.16-2.2,3.7
		c-1.33,1.12,0.04,4.94-2.55,4.82l0.05,1.52c-1.03,0.22-0.77-0.82-1.2-1.19c-1.08,0.39-0.25,2.69-1.85,2.57
		c-1.15-0.38,0.19-1.21-0.06-1.9c-1.57,2.57-2.72,5.27-5.64,5.05c-0.56,0.66-1.36,1.1-1.07,2.61c0.77-0.09,1.22,0.13,1.19,0.81
		c-1.74-0.24-2.45,3.01-4.93,3.18c-0.09-0.94-0.14-1.84,0.71-1.86c-1.07-0.32-3.08,1.59-4.18,2.46c0.14,1.82,0.66-0.62,1.95,0.08
		c0.04,1.27-1.22,1.25-1.07,2.61c0.48,0.19,0.81,0.52,0.82,1.17c1.06,0.08,0.76-0.59,1.55,0.07c-0.19,0.29-0.39,0.6-0.34,1.12
		c-2.48-0.58-2.34,0.09-4.23,0.57c-0.37-1.58,1.83-0.63,1.46-2.21c-1.19-0.32-1.11,0.6-2.31,0.28c1.2,0.42,0.14,2.73-0.64,3.38
		c-0.46-0.08-0.35-0.71-0.43-1.15c-1.47-0.47-1.07,0.89-2.3,0.66c0.09,0.7,1.32,0.29,1.58,0.83c-0.59,1.97-2.91,2.24-3.71,4.01
		c1.07,1.05,0.78-1.08,1.9-1.05c0.32,0.08,0.41,0.39,0.79,0.41c-1.34,0.54-0.81,1.55-1.42,2.97c1.2,1.07,1.74-0.18,1.1-1.47
		c1.4-0.32,0.41,2,1.59,0.82c0.06,1.17-1.02,2.63,0.89,2.68c0.54-0.53,0.25-1.19-0.82-1.17c0.04-0.44,0.69-0.29,1.15-0.33
		c0.23-1.14-0.46-1.4-0.49-2.29c1.14-1.06,2.62-1.8,2.95-3.65c3.41,0.68,2.96-2.43,4.9-3.19c1.54,1.66-1.5,2.6-0.22,4.16
		c1.41-2.64,4.1-2.45,4.8-6.22c1.45,0.33,2.58,0.71,2.28-1.41c1.38,0.38,2.13,1.61,1.65,2.73c0.87,0.25,0.53-0.7,1.14-0.7
		c-1.04-0.31-0.51-2.13-2.01-1.99c2.35-0.23,2.16-2.98,3.73-3.99c-0.85,2.5-1.07,4.41-1.37,4.86c2.03,0.9,2.13-3.25,2.93-4.79
		c1.14,0.94,2.13-0.6,2.66-1.39c-0.11-0.42-0.78-0.3-0.8-0.8c0.07-0.31,0.38-0.37,0.36-0.75c0.4,0.27,0.43,0.89,1.19,0.81
		c1.58-1.48,2.31-3.81,3.68-5.5c0.31,0.08,0.4,0.39,0.79,0.41c-1.24,2.03-1.08,3.25-2.14,5.21c2.22-0.36,2.72-2.42,4.53-3.19
		c-0.29-1.15-0.81,0.32-1.55-0.07c-0.19-0.8,0.23-0.99,0.33-1.5c1.45-0.25,1.86,1.35,2.73,0.51c0.02-0.68-0.5-0.82-0.44-1.54
		c-0.38-0.01-0.29,0.45-0.36,0.74c-0.9-0.04-2.39-1.71-1.55-0.07c-2.2-0.01-1.36-1.76-0.46-2.3c-0.32,1.52,1.78-0.33,1.97,1.23
		c0.87-0.12-0.06-2.01,0.7-2.24c1.32,0.23,0.51,2.05,0.09,2.66c0.07,0.98,1.52,0.61,1.6,1.59c1.2-0.15,0.96-1.74,2.26-1.78
		c0.85,0.91-0.13,1.34,0.48,2.68c1.83,0.48,0.97-1.72,2.66-1.38c-0.39-1.05-1.19,0.47-2.32-0.12c0.58-0.51,0.99-1.2,1.88-1.42
		c-1.66,0-1.68-0.9-2.39-2.02c0.06-0.3,0.37-0.36,0.36-0.74c1.24-0.41,0.34,1.24,1.58,0.84c-0.5-2.09,4.84-5.36,6.06-3.49
		c-0.24-1.21,0.79-1.45-0.08-2.29c1.59-0.35,1.53,0.88,2.73,0.9c-1.14,0.7-1.25,2.42-2.6,2.9c1.45,0.34,3.72-1.66,4.52-3.18
		c0.76,0.05,0.52,1.07,1.57,0.84c0.17-1.38,0.3-2.86,2.6-2.9c-0.92-1.13,0-1.75-1.62-2.37c1.42,0.33,0.82-1.65,2.65-1.76
		c-2.01-0.93,0.94-2.08-0.09-3.05c1.96-0.71,0.41,1.96,1.98,1.63c-0.25-1.36,0.27-1.94,1.09-2.22c0.54,0.4,0.81,1.06,1.21,1.58
		c-1.4,2.38-4.03,3.42-4.46,5.84c1.2,0.35,0.43-1.28,1.91-0.66c0.16-4.63,6.14-3.41,6.73-7.62c4.39-0.27,6.61-6.6,9.88-5.55
		c0.9-0.57,1.66-1.28,2.65-1.76c-1.13-1.91,1.26-2.05,1.83-3.32c0.4,0.27,0.43,0.9,1.18,0.83c-0.98-1.11,0.33-2.44,1.12-1.46
		c0.86-3.2,4.66-3.42,5.99-6.14c-1.16,0-0.47-1.36-0.44-1.93c0.8,0.14,0.15,1.68,0.83,1.95c2.73-0.69,3.2-3.67,4.86-5.44
		c1.46,1.55,3.64-0.39,3.04-1.74c1.1,0.38,0.98-0.48,1.92-0.27c-1.26-3.11,5.69-3.68,5.96-7.66c3.87,0.64,3.28-5.95,6.82-4.94
		c-0.78,0.31-1.04,1.17-1.49,1.81c1.52,0.7,1.84-2.67,3.77-3.59c0.78-0.38,4.14-1.21,3.02-2.49c-0.08-0.83,1.36-0.1,1.92-0.27
		c0.53-2.06,2.54-2.61,2.96-4.78c2.32-0.72,5.41-4.14,7.93-6.4c67.93-56.03,127.36-120.91,186.77-185.94
		c1.01-0.05,1.01,0.86,1.18,1.61c-5.98,3.29-8.21,10.52-13.99,14.01c0.48,1.17,0.13,1.31-0.34,2.27c-0.57-0.2,0.14-0.48-0.02-1.15
		c-1.22,0.24-0.49,2.51-2.27,2.15c-0.04,1.08,1.17,0.97,1.19,2c-3.92,0.04-6.42,3.83-7.94,7.52c-2.38,1.78-5.05,3.26-6.04,6.49
		c-0.45,0.03-0.68-0.12-0.78-0.43c-2.08,4.45-8.11,7.59-8.64,11.31c-1.05-0.03-0.79-0.69-1.54-0.1c0.07,0.46,0.71,0.37,1.16,0.46
		c-5.44,2.87-6.2,8.75-12.1,11.46c0.93,1.7-2.39,2.58-3.4,3.61c-1.69,1.72-1.55,4.27-3.39,3.99c-0.62,2.36-2.04,3.89-4.53,4.3
		c-0.45,1.21,1.25,0.37,0.8,1.58c0.29,0.64-1.8,0.51-1.54-0.1c0.04,2.05-1.86,2.07-2.24,3.69c-0.65,0.09-0.73-0.34-0.79-0.82
		c-0.25,2.37-2.25,2.91-2.99,4.78c-1.63-1.38-0.26-0.06-1.92,0.26c0.51,0.53,0.52,1.45,0.04,1.92c-0.35-0.32-0.88-0.47-1.55-0.48
		c0.63,2.39-3.21,2.12-3.35,5.52c-0.66-0.02-1-0.34-1.17-0.83c-1.69,2.63-7.17,7.25-6.75,8.75c-0.89,1.33-3.3,1.07-3.01,3.63
		c-1.97,0.06-4.35,1.34-3.8,2.82c-7.64,6.2-12.86,13.65-20.77,20.1c-0.09,0.61,0.38,0.68,0.41,1.17c-1.15-0.02-1.13,0.39-2.68,0.6
		c-2.55,5.11-10.26,8.1-12.77,14.49c-0.69,0.01-0.82-0.52-1.55-0.48c-1.53,1.92-2.71,4.18-4.89,5.43c0.65,0.51,2.79,1.82,1.63,3.92
		c-1.29-0.32-1.34-1.21-2.71-0.55c-0.89-0.36-0.43-2.39,0.73-1.87c-0.28-1.64-2.63-0.18-1.52,0.67c-3.85,0.77-4.04,5.31-7.95,6.01
		c0.86,1.9-1.16,3-3.41,2.84c-0.13,0.64,0.32,0.74,0.79,0.81c-2.77,1.38-4.37,3.97-7.2,5.29c0.15,0.51,0.69,0.64,0.8,1.2
		c-3.71,2.27-6.47,7.78-10.6,8.14c0.02,0.37,0.48,0.32,0.77,0.42c-3.71,2.9-6.38,6.86-10.94,8.88c-1.48,3.22-6.28,6.21-9.41,8.98
		c-0.26,1.16,1.08,0.79,0.82,1.95c-0.17,0.33-0.32,0.66-0.75,0.72c-1.48-2.91-3.33,1.21-4.97,1.61c0.73,1.43,1.05-0.61,1.92-0.26
		c1.18,0.53-0.24,1.43-0.34,1.88c-3.83-1.39-4.73,2.65-7.62,3.37c-0.26,1.16,1.08,0.8,0.82,1.95c-0.08,0.41-0.75,0.21-0.75,0.72
		c-0.53-0.15-0.35-0.97-0.43-1.55c-1.08,0-1.63,0.57-1.5,1.82c0.37,0.43,1.43,0.2,1.18,1.21c0.77,0.05,0.47-1.01,1.53-0.67
		c0.18,1.43-1.54,0.91-1.09,2.61c-1.79-0.59-1.86,0.58-2.68,0.98c-1.15-0.84,1.45-0.97,1.1-2.21c-2.54-0.18,0-1.01-0.05-1.91
		c-3.24,0.3-1.44,1.78-4.18,2.42c0.08,0.71,1.31,0.31,1.56,0.86c0,0.37-0.46,0.27-0.76,0.33c0.23,0.8,0.63,0.84,1.17,0.44
		c0.17,2.04-1.19,2.51-1.04,4.51c-0.98,0.15-1.34,0.43-1.94-0.49c-0.8,0.79,0.03,3.25-1.46,3.34c-0.84,0.02-0.21-1.36-0.43-1.93
		c-1.17,0.04-0.68,1.56,0.05,1.9c0.04,1.16-1.94,0.26-1.89,1.41c-0.61-0.2-0.36-1.22-1.57-0.85c0.67,2.36-1.83,5.49-3.37,3.99
		c-0.69,0.9-2.2,0.97-1.84,2.95c-2.62-0.63-2.24,2.72-4.19,1.66c1.41,3.35-4.72,2.06-4.47,5.46c-2.09,0.97-3.02,3.1-5.29,3.89
		c-1.08-0.06,0.89-0.98-0.79-0.8c-0.63,4.29-5.7,4.08-7.11,7.59c0.69,0.09,0.8-0.42,1.53-0.29c0.42,0.12,0.29,0.78,0.8,0.81
		c-1.31,0.9-3.39,1.01-4.57,2.03c0.3,0.69,0.71,0.1,1.16,0.07c1.06,0.4-1.01,0.65-0.33,1.88c-0.59-0.47-0.98-0.5-1.54-0.09
		c1.31,3.21-3.75,2.08-3.71,5.12c-1.21,0.11-1.74-0.42-1.6-1.6c-1.22-0.25-0.99,0.97-1.89,1.04c0.13,0.52,0.98,0.36,1.56,0.46
		c0.34,1.33-0.38,1.59-0.71,2.24c-0.68-0.13-0.9-0.7-0.82-1.57c-0.54,2.03-2.54,2.6-3.74,3.97c-0.61-0.19-0.37-1.22-1.57-0.85
		c1.34,2.79-4.09,5.21-4.4,7.36c-1.41-0.58-2.63,1.12-2.34-0.89c-1.01,0.56-0.53,1.17,0.07,1.9c-0.64,0.89-2.9-0.96-3.05,0.98
		c1.06,0.33,0.75-0.72,1.51-0.68c-0.05,0.44,0.11,0.68,0.42,0.78c-1.94,1.73-4.94,2.38-5.19,5.79c-1.07-1.15-1.08-0.87-2.75-1.28
		c0.03,1.15,1.39,1.02,2.36,1.26c0.65,2.59-2.96,0.95-2.58,3.28c-1.88,0.37-1.01-1.92-2.39-2.01c0.05,1.38,1.16,1.76,1.64,2.73
		c0.01,1.41-1.51-0.05-1.52,0.68c-0.53-0.14-0.35-0.96-0.44-1.54c-0.93,0.35-1.36,1.92-0.3,2.26c-2.66-0.07-1.41,1.11-3.84,0.56
		c-0.42,1.97-0.85,1.77-2.62,2.52c0.37,0.68,1.59,0.56,1.23,1.95l1.94,0.1c0.71-0.63-0.73-1.35,1.12-1.08
		c0.12-0.64-0.33-0.73-0.8-0.8c1.21-1.05,4.35-4.97,5.7-2.36c0.84,0.11,0.13-1.34,0.32-1.87c1.46,0.19,1.62,1.35,1.24,2.33
		c0.64-0.13,2.42-2.07,0.69-2.24c0.49-1.09,2.18-0.98,1.82-2.93c0.81,0.14,0.17,1.67,0.84,1.94c1.45,0.18,1.8-3.21,3.05-0.98
		c0.94,0.01,0.04-1.25-0.43-1.16c0.63-0.71,1.38-1.3,2.65-1.37c-0.16-0.51-0.7-0.63-0.81-1.18c0.09-0.77,1.02-0.69,1.11-1.46
		c0.37,0.3,0.61,0.72,0.81,1.18c0.79-2.38,2.49-3.86,4.44-5.07c1,0.15-0.51,0.63,0.05,1.52c1.13,0.03,0.79-1.4,2.28-1.01
		c0.08-2.27,2.96,0.54,3.03-1.73c-0.56,0.17-0.96,0.51-1.52,0.68c-0.55-1.54,1.24-0.71,0.7-2.24c0.82-0.13,0.76,0.59,0.81,1.18
		c0.39-0.22,0.37-0.85,1.14-0.7c-1.06-1.67,2.97-3.97,4.86-5.05c0.2,0.1,0.28,0.17,0.33,0.23c1.97-2.29,4.15-4.35,6.83-5.92
		c0.53,0.15,0.35,0.97,0.44,1.54c1.8,0.24,1.01-1.73,0.32-2.26c0.88-1.31,1.18,1.18,2.71,0.53c0.58-1.46-1.68-0.22-1.58-1.23
		c1.63-1.43,1.97-4.16,4.89-4.28c-0.84-1.95,0.51-1.97,1.06-3.36c1.08-0.26,1.01,0.59,1.94,0.49c0.33-2,1.73-2.92,2.96-4.02
		c1.03,0.49-0.48,1.45-0.72,1.86c1.6,0.07,2.44-1.86,2.59-3.65c1.18-0.22,0.78,1.09,1.95,0.87c0.14,1.16-1.19,1.41-0.32,2.27
		c2.43-2.2,3.45-4.24,4.41-7.36c1.64-0.41,0.53,1.84,1.97,1.64c1.88-2.03,3.63-4.21,6.79-4.94c-0.31-2.27,1.47-1.84,2.26-2.14
		c-0.03-0.76-1.07-0.55-0.82-1.57c2.78-0.06,4.01-5.5,6.06-3.83c2.1-2.46,6.57-4.4,7.14-7.2c2.31,0,2.29-2.37,4.96-1.99
		c-0.31-1.93,1.5-1.68,1.06-3.75c1.08-0.25,1.02,0.6,1.94,0.5c4.41-4.16,8.31-8.85,13.95-11.75c-0.32-0.51-0.39-1.19-0.81-1.07
		c4.2-2.68,8.22-5.55,10.93-9.76c0.37-1.35,2.7-0.7,3.42-1.7c-0.1-0.42-0.78-0.3-0.79-0.81c1.53-0.66,3.45-1.52,4.15-3.94l2.31,0.14
		c2.76-4.75,7.32-7.65,11.69-10.73c-0.08-0.31-0.39-0.4-0.4-0.79c7.49-5.48,13.23-12.76,20.37-18.59c-0.24-2.24,5.44-5.47,8.29-8.27
		c1.54-1.52,1.99-3.46,4.15-3.55l-0.03-1.54c2.22,0.75,1.9-2.89,4.56-2.77c1.73-4.46,7.97-7.14,10.53-11.94l1.54,0.09
		c3.4-6.09,9.87-9.01,13.16-15.22c3.33-0.79,3.5-4.87,6.81-5.68c0.09-2.4,2.73-2.17,2.99-4.4c4.28-2.55,7.3-6.43,10.18-10.44
		c8.06-7.14,14.22-16.26,22.26-23.43l-0.03-1.53c0.13-0.53,0.68,0.02,0.78,0.43c3.38-4.71,6.43-7.54,9.78-12.38l1.53,0.1
		c0.65-0.89-1.16-1.77,0.73-2.25c0.58,0.2-0.14,0.48,0.02,1.14c0.75-0.25,1.36-1.24,0.74-1.86c29.61-30.26,54.24-63.6,82.21-95.29
		c-0.01-0.38-0.01-0.77-0.02-1.15c4.57-3.51,6.6-9.69,11.72-12.63c0.46-0.97-0.28-2.94,1.13-1.84c-0.02-1.15,1.21-3.26,3.02-3.63
		l-0.03-1.53c1.47-1.35,3.15-2.49,3.77-4.73c7.66-5.93,11.78-15.59,20.45-20.47l-0.02-1.53c2.08-0.17,3.74-2.5,3.4-3.99
		c0.69,0,0.82,0.52,1.55,0.49c-1.01-2,0.54-1.7,1.51-1.81c0.49-3.04,2.93-4.9,5.27-7.31c0.66,0.03,1,0.36,1.17,0.85
		c0.75-0.37-0.79-2.06,1.12-2.22c-0.02-0.38-0.48-0.33-0.78-0.44c0.2-0.92,1.47-0.71,1.12-2.22c0.65-0.1,0.73,0.35,0.78,0.82
		c0.1-1.18,0.72-3.01,1.86-4.09c1.53,0.51-0.08,1.16,0.03,2.3c1.26-3.22,3.01-5.92,4.48-8.9l1.93,0.13
		c0.72,1.09,0.03-1.01-1.16-0.46c0-2.04,1.18-2.74,1.85-4.86c1.11,0.61,2.08-1.05,1.93,0.51c0.93-0.32-0.56-1.8,1.89-1.79
		c0.04-1.69-1.09-0.18-1.54-0.1c0.26-2.38,2.49-2.67,2.62-5.19c0.45,0.09,0.33,0.72,0.4,1.17c0.6-0.12,0.31-1.19,1.53-0.66
		c-1.44-0.78,0.21-1.1-0.04-2.69c4.69-1.71,4.05-9.53,9.08-10.12c-1.21-2.42,1.07-4.09,1.85-5.63c1.23,1.33-1.24,1.95-1.11,3.38
		c0.69,0.09,0.8-0.42,1.53-0.28c-0.51,1.6-0.41,3.86-1.08,5.29c-1.98-2.18-2.74,2.78-3.02,3.63c3.11-1.16,5.86-5.39,6.02-9.17
		c0.52,0.16,0.33,0.98,0.41,1.56c0.87-1.41,3.2-3.81,1.46-5.66c0.31-1.1,1.24,0.32,1.93,0.13c0.81-3.41,2.13-4.76,2.95-8.62
		c2.81-2.84,5.57-5.75,6.39-10.69c1.92-1.38,3.6-5.03,3.35-7.44c4.36-2.82,5.35-14.14,12.85-15.99c-3.68-1.37,1.29-4.22-1.24-6.23
		c1.16-0.8-0.15-4.21,2.26-3.68c1.63-6.23,5.28-10.34,10.98-12.29c-0.15-1.15-0.25-2.35-1.19-2.77c0.38-0.86,1.31-1.14,2.67-0.96
		c-0.35-1.51,0.63-1.62,1.13-2.23c-0.85-1.35-0.18-1.72-0.81-3.13c-0.89-0.18-0.41,1.08-1.13,1.08c1.01-3.87,4.94-7.92,9.87-8.91
		c-1.11-1.83-0.39-3.23,1.1-4.14c-0.71-5.32,0.65-9.96,2.51-14.04l2.31,0.16c-1.6-0.98,0.64-2.63,0.72-4.17
		c0.34,0.2,0.69,0.38,0.78,0.82c2.06-3.26,4.21-6.09,4.49-10.05c2.32-3.27,5.37-7.71,5.23-12.31c2.08-1.72,3.15-7.64,3.72-10.11
		c0.97-4.17,2-7.72,1.79-11.78c-0.71,0.7-1.4,0.02-2.3-0.16c-0.11-1.14,0.86-1.12,0.74-2.26c-1.29,0.52-0.92,1.68-2.29,1.38
		c0.49,2.3-3.01,1.93-1.87,3.71c-0.04,0.84-1.63,0.04-2.3,0.22c-0.87,1.49-1.91,2.8-3.03,4.01c0.08-2.07,0.52-2.62,0.32-5.74
		c-3.8,4.97-9.35,11.37-11.68,19.16c-0.26,0.74-1.01,0.95-1.9,1.02c0.28,0.38,0.7,0.63,1.16,0.85c-0.55,0.56-0.79,1.44-1.13,2.23
		c-2.62-1.02-1.77,4.09-1.46,6.42c-1.21-0.15-1.06-1.59-1.18-2.77c-0.27,0.76-1.61,0.99-2.3,0.22c0.04-1.79,0.97-1.2,0.35-3.05
		c-1.02-0.19,0.39,2.18-1.13,1.46c-0.31,1.06,0.55,1.04,0.41,1.95c-0.17,0.33-0.33,0.66-0.76,0.72c-0.66-0.68-0.5-2.12-1.18-2.77
		c0.06-0.31,0.38-0.36,0.37-0.74c0.79,1.65,1.42-0.88,1.9-1.79c0.69,0,0.82,0.52,1.54,0.49c1-2.25-0.75-4.63,0.31-6.51
		c0.88,0.6,0.18,2.69,0.43,3.87c0.7-0.64,1.66-2.47,0.35-3.04c2.44-1.09,2.55-4.65,3.37-7.45c-1.71,0.46-1.29,3.19-1.86,4.86
		c-1.26-2.6,0.36-5.44,2.62-5.58c0.37-2.52,0.88-4.9,3.01-5.55c1.7-7.19,6.82-10.76,9.01-17.43c-1.92-0.01-2.22,1.7-4.59,1.22
		c-0.66,1.45-1.76,2.45-3.82,2.43c-0.1,0.61,0.37,0.68,0.4,1.18c-2.11-0.59-1.68,1.52-3.05,1.7c-0.85-0.12-0.84-1.02-0.8-1.97
		c-1.77,0.14-1.82,2.13-3.04,2.86c-1.23,0.25-0.54-1.31-1.55-1.27c-2.03,0.84-1.3,3.15-2.64,5.19c-1.57-0.64-0.5-3.39-0.43-4.64
		c-0.34,0.27-0.87,0.35-1.54,0.28c0.01,0.37,0.47,0.33,0.78,0.43c-0.24,1.25-1.51,0.81-0.74,2.26c-0.69,0-0.82-0.53-1.54-0.49
		c-0.56,1.94-1.99,2.96-3.41,3.99c0.06,0.98,0.57,1.53,1.55,1.64c0.13,0.9-0.04,1.48-0.36,1.9c-1.19-0.44-2.13-1.11-3.09-1.76
		c1.24-1.73,1.91-5.54,0.68-7.64c1.83-2.75,3.52-5.65,6.45-7.23c-2.17-1.03,0.06-2.21,1.12-3c1.1,0.59-1.02,0.91-0.75,1.87
		c1.84-0.08,1.13-2.85,1.87-4.1c1.23-0.15,0.54,1.42,1.54,0.49c-1.13-1.6,1.36-4.18,3.02-5.17c-0.16-2.37,1.69-3.08,2.63-5.19
		c-1.21-1.51-1.62,1.04-2.29,1.37c0.47-2.08,2.07-6.75,5.68-7.67c-0.12-3.22,6.81-6.93,3.72-10.89c1.82-0.89,0.56-3.19,2.26-3.69
		c0.71,0.67-0.26,1.2,0.79,1.98c1.56-4.37,2.41-9.38-0.12-12.32C1211.11,83.05,1209.25,83.67,1208.57,82.32 M681.65,618.42
		c-1.06,0.61-0.32,1-1.89,1.82c-0.37-0.88-0.53-1.71-0.06-2.3c0.52,1.2,1.16-0.36,0.37-0.75
		C681.04,617.17,681.3,617.84,681.65,618.42z M693.05,608.65c0.77-0.6,2-2.68,3.06-1.76C695.32,607.72,694.56,608.56,693.05,608.65z
		 M699.95,605.18c-0.71,0.07-2.14,1.27-2.71,0.24C697.3,604.7,699.47,604.24,699.95,605.18z M714.08,596.71
		c0.02-1.36-0.35-3.11,1.1-3.01C715.16,595.07,715.05,596.33,714.08,596.71z M715.51,591.43c-1.31-0.72-1.32,0.17-2.71,0.24
		c1.1-1.45-0.08-4.62,2.24-3.7C714.27,589.32,715.19,590.09,715.51,591.43z M715.03,587.2c1.33-0.23,1.5,0.65,2.72,0.52
		c-0.02,0.98-0.68,1.31-1.12,1.85C716.32,588.56,715.2,588.33,715.03,587.2z M719.77,591.66c-0.13-0.68,1.04-1.85-0.06-2.3
		c-1.21-0.45-1.46,1.96-2.31,0.64c0.68-0.69,1.09-1.63,2.68-1.38c-0.03,0.68,0.4,0.91,1.18,0.83
		C721.15,590.57,720.64,591.3,719.77,591.66z M718.13,587.75c-0.6-1.52,2.13-1.53,2.3-1.03
		C719.95,587.35,719.18,587.69,718.13,587.75z M729.23,582.23c-0.98,0.59-2.2-0.55-2.29,1.41c0.6,0.77,1.61-0.58,1.96,0.87
		c-0.73,0.73-1.54,0.8-2.71,0.23c-0.11-2.12,1.41-4.54,3.02-3.66C728.55,581.2,729.3,581.58,729.23,582.23z M730.57,572.74
		c-0.59,1.27-2.02,1.69-3.04,2.51C728.04,573.91,728.78,572.78,730.57,572.74z M732.66,579.75c-0.44,0.3-1.03,0.45-1.93,0.27
		c0.03-0.97,0.54-1.45,1.52-1.45C732.24,579.1,732.44,579.42,732.66,579.75z M735.35,579.51c-0.17-1.17,1.25-0.72,1.91-1.04
		C737.79,580,736.38,579.56,735.35,579.51z M742.22,575.3c-0.23-0.24-0.94-1.86-0.04-1.91C742.64,573.98,743.58,575.07,742.22,575.3
		z M736.38,573.45c-0.62-1.12,0.79-1.72-0.07-3.45c1.51-0.53,0.17,1.66,1.2,1.6c0.91-0.07,0.19-1.8,1.51-1.45
		C738.93,572.05,737.52,572.61,736.38,573.45z M745.19,569.72c-1.6,0.13-2.59-1.63-1.98-2.4
		C744.36,567.65,745.07,568.41,745.19,569.72z M752.17,570.5c-0.49-0.01-0.52,0.46-1.15,0.32c-0.02-0.64-0.03-1.28-0.04-1.92
		C751.99,568.84,751.99,569.76,752.17,570.5z M747.06,566.38c-1.54-0.98-1.17,0.66-2.69,0.62c0.08-1.54,1.85-1.35,1.86-2.96
		c0.68,0.07,1.2-0.02,1.54-0.3C747.33,565.11,746.33,564.47,747.06,566.38z M753.18,563.66c-0.52,0.09-0.73,0.51-1.54,0.3
		c0.55-1.09-0.46-1.45,0.73-1.87C752.4,562.85,753.44,562.64,753.18,563.66z M753.51,561.01c-2.57-0.25-2.95,3.71-4.97,2.78
		C749.75,562.82,751.51,558.68,753.51,561.01z M759.21,556.35c-0.1-0.56-0.65-0.69-0.79-1.2c1.19,0.35,0.72-1.01,1.92-0.66
		C760.21,555.38,759.97,556.13,759.21,556.35z M768.72,549.62l-0.05-2.29c1.7,0.62,0.8-1.44,2.3-1.02
		C770.68,547.89,769.66,548.71,768.72,549.62z M655.68,665.82c-0.14-0.52-0.58-0.75-0.43-1.55c0.74,0.12,0.85-0.39,1.55-0.32
		C656.9,665.06,656.9,666.05,655.68,665.82z M661,661.46c-1.7-1.08-0.66,0.85-1.91,1.07C657.66,661.35,661.09,659.13,661,661.46z
		 M667.93,658.7c-1.16,0.03-1.37-1.47-2.35-0.48c-0.13-2.69,2.55-0.45,3.85-1.36C669.77,658.31,667.37,657.04,667.93,658.7z
		 M677.56,655.69c-1.06-1-1.13,0.36-0.74,1.5c-1.81-0.48-1.35-3.73,0.28-3.82C677.88,654.13,677.89,655.18,677.56,655.69z
		 M673.3,669.64c1.48,0.82,0.84-0.32,1.92-0.68c0.03,0.63,1.09,0.26,1.19,0.82c-1.03,0.78-1.53-0.2-1.51,1.46l-1.17-0.05
		C673.6,670.66,673.15,670.43,673.3,669.64z M670.64,671.81c0.71-0.3,1.3-2,1.93-0.3C671.7,671.18,671.39,673.22,670.64,671.81z
		 M676.18,675.1c1.39-1.09,2.02-2.92,3.78-3.64C679.82,673.63,677.48,675.3,676.18,675.1z M677.6,670.59
		c-0.36-1.6,0.54-1.94,1.89-1.82C678.97,669.49,679.08,670.83,677.6,670.59z M684.78,664.05c-0.38-0.02-0.77-0.04-1.16-0.05
		c-0.37-1.24,0.56-1.17,1.12-1.48C684.76,663.02,684.77,663.54,684.78,664.05z M698.08,624.21c0.36-0.38,1.99-0.25,1.96,0.87
		C699.08,625.08,698.16,625.05,698.08,624.21z M688.43,626.02c0.06,0.72,1.29,0.33,1.19,1.21
		C688.98,628.34,687.21,626.55,688.43,626.02z M701.26,642.32c0.71,1.29,0.94,2.17-0.71,2.64
		C701.85,643.77,699.83,643.37,701.26,642.32z M690.6,634.91c0.92-0.92,0.85,0.85,2.34,0.5l0.05,1.91c-0.69-0.26-1.58,1.04-1.94-0.1
		c0.23-0.64,1.16-0.57,1.52-1.07C692.28,635.38,690.26,636.28,690.6,634.91z M683.28,651.75c-0.46-0.08-1.1,0.02-1.18-0.44
		c0.67-0.09-0.54-1.36,1.13-1.1L683.28,651.75z M685.88,647.66c-1.35,0.15-1.78,3.15-3.44,1.76l0.78,0.03
		c-0.23-0.96-0.98-1.41-1.61-1.99c0.77,0.03,0.47-1.02,1.53-0.69C683.04,649.65,685.2,646.13,685.88,647.66z M687.03,646.95
		c-0.08-0.45-0.63-0.45-1.18-0.44c0.46-1.39,2.66-1.04,3.04-2.52C688.97,645.61,688.24,645.92,687.03,646.95z M686.91,642.37
		c0.73-0.13,0.95-0.78,1.92-0.67C689.02,642.93,687.23,643.79,686.91,642.37z M690.87,659.75c0.5-0.62-0.21-2.45,1.1-2.24
		C692.02,658.67,692.27,660.04,690.87,659.75z M693.9,656.83c-0.39-0.02-0.78-0.04-1.17-0.05l-0.03-1.15
		c-0.06-0.73-1.29-0.33-1.19-1.21c1.27,0.53,0.26-1.23,1.53-0.69C693.13,654.95,693.96,655.46,693.9,656.83z M696.05,650.45
		c-0.73,0.39-1.82,0.4-2.7,0.63c0.7-0.91,0.92-2.3,1.46-3.36c-0.03,0.68,0.41,0.91,1.19,0.82L696.05,650.45z M691.61,644.12
		c-1.01,0.11-1.14,1.09-2.3,1.04C689.05,643.99,690.89,643.07,691.61,644.12z M686.46,640.05c0.67,0.01,1,0.35,1.19,0.82
		c-1.13,1.09-1.8,1.06-1.95-0.09c-0.64,1.07-2.62,4.38-5.35,3.18c1.48-0.34,0.49-0.85,1.52-1.46c-0.59-0.35-0.6-1.26-0.83-1.95
		c0.34-0.66,0.84-1.14,1.51-1.46c0.81,0.4,1.11,1.29,1.61,1.99c-0.55-2.28,0.78-2.69,1.45-3.75c2.21,0.63,2.73-0.31,4.63-0.92
		C690.72,638.01,687.88,639.16,686.46,640.05z M692.25,639.2c0.15,1.01-0.5,1.23-1.52,1.07l-0.04-1.53
		C691.42,638.68,691.56,639.21,692.25,639.2z M701,647.26c-1.75-1.14-1.31,1.14-2.68,1.39C697.01,646.39,699.99,645.21,701,647.26z
		 M693.48,641.55c-0.54-0.52-0.58-1.83-0.06-2.29c1.24-0.41,0.33,1.25,1.57,0.84C694.98,641.07,694.47,641.55,693.48,641.55z
		 M705.61,645.98c0.08,0.94,0.12,1.85-0.73,1.86c-0.05-0.47-0.14-0.91-0.79-0.8c-0.29,1.07,0.57,1.02,0.44,1.93
		c-1.6,0.1-1.08-1.84-1.62-2.75c0.87-0.48,1.48,1.06,1.55,0.08c-0.14-0.79-1.08-0.8-1.21-1.59c0.52,0.02,1.03,0.05,1.56,0.07
		C704.87,645.39,704.79,646.11,705.61,645.98z M696.5,638.26c-0.02-0.5-0.69-0.38-0.8-0.81c1.77-0.19,1.69-2.26,3.43-2.5
		C697.94,635.75,698.4,638.2,696.5,638.26z M710.72,648.53c0.21-1.39,1.27-1.93,2.66-2.15
		C713.38,647.99,712.52,648.73,710.72,648.53z M706.54,636.86c-1.2-0.35-0.72,1.01-1.92,0.66l-0.04-1.53
		C705.28,636.25,706.19,636.27,706.54,636.86z M697.37,626.85c0.44,1.93-1.71,1.26-1.87,2.58c-1.53-0.43-2.15-0.3-3.09,0.61
		c0.02,0.63,1.08,0.27,1.18,0.82c-2.77,0.51-2.65-1.24-3.58-3.61c0.76-0.08,0.78,0.56,1.19,0.82c-0.01-0.63,1.07-0.16,1.14-0.71
		c-0.68,0-1.21-0.14-1.56-0.46c0.05-1.3,1.25-1.09-0.05-1.91c0.46-0.41,0.67-1.06,1.92-0.68c0.18,0.68-0.55,0.95,0.03,1.15
		c0.61-0.63,1.42-1.05,2.29-1.41c-0.03,1.46,0.32,0.15,1.17,0.44c0.37,1.25-1.26,0.46-1.13,1.47c1.73,0.5,1.92-0.55,3.09-0.61
		c0.52,0.2,2.56,0.88,1.2,1.59C698.95,625.81,698.34,627.39,697.37,626.85z M708.44,635.43c-0.27-1.63,1-1.72,1.88-2.19
		C709.75,634.03,709.42,635.06,708.44,635.43z M721.34,640.3c-0.29-1.53,1.44-1.02,1.09-2.61c0.67,0,1.21,0.15,1.56,0.46
		C723.39,639.15,723.09,640.46,721.34,640.3z M717.29,633.22c-0.19-1.33,2.06-2.1,2.68-1.39C719,632.22,718.7,633.28,717.29,633.22z
		 M713.66,627.68c-0.5-0.01-0.52,0.46-1.15,0.32c-1.06-0.72-0.36-3.08,1.07-3.38L713.66,627.68z M710.48,624.46
		c-0.3,2.59,2.4,4.5,0.14,5.36c0.38-1.77-0.73-5.41-3.21-4.37c-0.74-0.71,0.14-1.11,0.34-1.89c1.52,0.87,1.75-1,3.06-1.37
		c0.32,2.03,0.82-0.78,2.32,0.12C712.76,623.53,711.06,623.42,710.48,624.46z M736.48,627.36c-0.31-1.18,0.64-1.09,0.33-2.28
		C738.76,625.04,737.6,627.33,736.48,627.36z M721.66,606.68c1.95,0.11,1.41-2.31,3.44-2.11
		C725.93,605.52,722.36,608.53,721.66,606.68z M728.94,603.63c-0.94-0.2-0.83,0.65-1.93,0.28c0.18-1.51,0.19-1.14-0.07-2.68
		c1.63,0.42,1.82-0.64,3.08-0.59C730.06,602.03,728.24,601.54,728.94,603.63z M747.39,615.34c-0.14-1.02,0.51-1.22,1.52-1.06
		C749.05,615.29,748.4,615.51,747.39,615.34z M734.58,596.68c0.11-1.26,1.12-1.6,1.88-2.19
		C736.39,595.78,736.06,596.81,734.58,596.68z M754.28,612.67c-0.24-0.87-0.59,0.43-1.17-0.45c0-1.63,2.09-3.07,3.43-2.09
		C754.6,609.76,755.08,611.86,754.28,612.67z M744.45,588.42c-0.91,0.07-0.69,1.3-1.91,1.04
		C742.29,588.44,744.09,587.61,744.45,588.42z M740.98,589c1.18-0.43,2.22,1.21,1.2,1.6C742.27,589.6,740.67,590.21,740.98,589z
		 M748.14,597.81c-0.14-1.02,0.51-1.22,1.52-1.06C749.8,597.76,749.15,597.97,748.14,597.81z M745.74,594.62
		c0.1,0.49,0.62,0.82-0.37,0.74c-0.33-0.46-0.54-1.05-0.43-1.93c1.79-0.16,1.71-2.24,3.03-2.89
		C748.79,592.6,747.03,593.13,745.74,594.62z M753.37,589.69c-1.1-0.46-1.66-0.53-1.53,1.06c-0.67-0.01-1.2-0.16-1.55-0.47
		c-0.22-1.22,0.52-1.46,0.72-2.25c1.35,0.38,1.63-0.33,2.31-0.64C752.9,588.58,753.3,588.26,753.37,589.69z M753.2,582.41
		c0.44-0.3,1.02-0.44,1.92-0.27C755.53,583.57,753.26,583.56,753.2,582.41z M767.2,569.43c-0.01,1.83-0.86,0.46-2.3,0.64
		C764.54,568.6,766.61,568.81,767.2,569.43z M760.76,574.43c-0.46,0.03-0.86,0.63-1.16-0.06c0.69-1.56,1.99-1.28,3.45-1.34
		c0.13,0.53,0.57,0.76,0.42,1.55c-1.22,0.26-1.21-0.67-1.95-0.87c-0.14,1.8-0.5,2.25,0.46,3.47c-0.67,0.67-1.13-0.23-1.94-0.5
		C759.82,575.46,760.55,575.22,760.76,574.43z M760.82,577.49c0.3,1.3-0.77,1.21-1.12,1.84
		C758.78,578.41,759.56,577.3,760.82,577.49z M756.27,581.44c-0.04-1.17,0.31-1.93,1.11-2.23
		C756.88,579.82,757.58,581.65,756.27,581.44z M773.2,595.79c0.04-1.82,1.17-2.54,2.24-3.31
		C775.33,594.24,774.29,595.04,773.2,595.79z M765.89,579.69c-0.67-0.01-1.2-0.15-1.56-0.47c0.5,1.78-1.65,2.77-2.66,1.76
		c1.59,0.13,0.73-2.25,2.66-1.76c-0.11-1.37,0.51-1.97,1.9-1.81C766.45,579.1,765.05,578.17,765.89,579.69z M763.13,577.24
		c-1.7-2.07,1.46-3.43,3.39-4.02C766.04,575.23,764.67,576.32,763.13,577.24z M768.07,573.31c-0.46-0.09-1.1,0.01-1.17-0.45
		c1.03,0.18-0.41-2.17,1.13-1.47L768.07,573.31z M770.4,574.21c0-2.43,3.15-1.83,3.86-0.16C772.89,573.8,772.61,573.29,770.4,574.21
		z M787.27,587.04c-0.87,0.06-1.45-0.18-1.56-0.86c1.1-0.49,0.76-2.46,2.65-2.14C788.46,585.5,787.44,585.83,787.27,587.04z
		 M828.24,555.06c1.41-0.29,1.58,1.97,0.43,1.93C828.81,556.09,827.95,556.13,828.24,555.06z M717.76,665.28
		c-0.87-0.2-0.43-2.11,0.33-1.89C718.4,663.67,719.17,665.71,717.76,665.28z M687.17,724.24c-1.85-0.72-0.43,1.76-2.28,1.04
		c-0.46-1.68,1.52-2.85,2.24-2.18C686.47,723.23,687.22,723.6,687.17,724.24z M717.04,704.05c-0.24-1.82,1.32-1.42,1.5-1.44
		C718.1,703.15,718.26,704.29,717.04,704.05z M732.38,675.94c-0.07-1.08,0.98-2.93,1.88-1.8
		C733.59,674.7,733.63,675.98,732.38,675.94z M748.91,685.96c-0.18-1.41,0.91-1.54,1.87-1.8
		C751.51,684.99,750.31,686.14,748.91,685.96z M738.15,646.91c-0.69,0.43-1.95,2.21-2.67,1.38
		C736.03,647.72,737.2,645.85,738.15,646.91z M720.39,662.37l1.55,0.08c0.13,0.87-0.05,1.43-0.73,1.48
		C721.65,662.73,719.94,663.58,720.39,662.37z M724.79,667.55c-1.26-0.63,0.11-1.97-1.21-1.97c0.03-0.71,0.22-1.26,0.73-1.48
		C724.11,665.56,726.59,666.93,724.79,667.55z M732.37,661.85c-2.35-0.93-0.49,0.84-2.32-0.12c-0.65,1.22-1.7,3.96-3,3.27
		c0.3-0.03,1.14-1.19,0.36-1.13c-0.39,0.85-1.14,1.33-2.29,1.41c-0.21-1.2,0.79-1.18,1.91-1.05c-0.01-1.16,1.36-1.91,0.3-3.03
		c2.07-0.32,1.63-3.65,4.19-2.44c-1.1-1.3,0.23-2.52,1.48-2.59C731.44,658.18,733.18,659.29,732.37,661.85z M753.38,680.49
		c1.28-0.19,1.23-1.72,3.05-1.36C756.29,680.25,754.35,681.45,753.38,680.49z M741.45,654.71c-0.56,0.41-0.96,0.39-1.54-0.08
		c-0.35,2.24-3.09,2.07-3.36,4.39c-1.09,0.09-1.7-1.82-1.54,0.3c-1.24,0.04-2.87-1.55-1.21-1.97c0.06,0.47,0.14,0.91,0.79,0.8
		c-2.12-2.41,0.77-3.82,1.4-5.65l1.93,0.11c0.65-0.82,0.23-2.73,1.86-2.57c0.91,1.6-0.58,3.5-1.82,4.1c0.47,0.1,0.25,0.43,0.02,0.76
		c0.69-0.54,2.16-0.29,2.67-1c-0.19-2.05-0.11-3.83,1.84-3.71c-1.54,1.44-0.25,1.95-0.31,3.03
		C741.12,652.22,741.06,653.57,741.45,654.71z M765.14,673.53c-0.14-1.5,1.39-1.3,2.26-1.78
		C767.35,673.06,766.31,673.35,765.14,673.53z M744.74,648.03c-1.34-0.37-1.84,0.11-1.51,1.44c-0.38-0.02-0.77-0.04-1.15-0.06
		c0.24-1.62,1.6-2.1,2.63-2.91L744.74,648.03z M748.9,644.44c-0.02,1.22-0.83,1.63-2.28,1.4
		C746.78,644.77,748.06,644.83,748.9,644.44z M770.76,667.75c-0.79-0.85,0.07-2.11,1.09-2.22
		C772.84,666.56,771.5,667.33,770.76,667.75z M753.05,640.85c-1.52-0.05-1.84,1.11-2.26,2.17c0.96,0.38,1.7,0.99,1.61,2.38
		c-0.85,0.25-1.49,0.72-2.69,0.62c-0.1-1.21,0.99-1.22,0.7-2.63c-1.12-0.51-2.12,1.31-3.07,0.59c0.48-0.13,0.78-0.45,0.75-1.1
		c0.64,0.03,1.29,0.07,1.93,0.1c0.32-2.18,1.48-1.64,2.22-3.69C752.26,640.04,753.3,639.82,753.05,640.85z M755.3,638.3
		c-1.26,0.33,0.12,1.52-1.49,1.83C753.44,638.86,754.37,637.03,755.3,638.3z M782.79,657c0.76-0.34,0.57-1.65,1.89-1.41
		C785.6,657.38,781.82,657.53,782.79,657z M759.44,634.33c0.73-0.99,1.97-1.47,3.04-2.11C762.53,633.83,760.54,636.24,759.44,634.33
		z M762.86,632.24c0.17-0.94,0.7-1.53,1.11-2.23C764.48,631.12,764.07,631.95,762.86,632.24z M759.6,625.19
		c-0.16-1.18,0.99-2.94,1.89-1.8C760.18,623.29,760.95,625.31,759.6,625.19z M767.43,629.44c-0.77-0.04-0.46,1.01-1.53,0.68
		c-0.01-0.38-0.02-0.76-0.03-1.15C766.84,628.98,767.07,628.31,767.43,629.44z M765.47,628.19c0.05-0.57-0.17-1.41,0.35-1.5
		c0.03,0.23,0.07,0.45,0.4,0.4c-0.04-0.66,0.27-0.96,0.74-1.11C766.96,627.22,766.52,628.01,765.47,628.19z M792.28,650.69
		c-0.96-1.65,1.62-2.44,3.01-2.88C794.83,649.33,792.94,649.38,792.28,650.69z M770.19,615.48c0.65-1.95,2.16-3.02,4.16-3.58
		C772.71,613.62,771.89,614.3,770.19,615.48z M782.97,617.36c0.01-1.04-0.66-0.81-0.03-1.53
		C784.41,615.61,784.46,617.74,782.97,617.36z M783.83,604.8c-0.74,0.4-1.97-0.47-2.69,0.61c-0.44-1.45,0.94-1.04,0.72-2.26
		C783.18,603.07,784.06,603.4,783.83,604.8z M796.22,590.24c0.27-1.23,1.03-1.95,2.26-2.17
		C798.22,589.29,797.46,590.01,796.22,590.24z M809.41,593.68l-0.77-0.04c-0.02,0.23-0.05,0.45-0.38,0.36
		c-0.61-1.25-0.27-2.75,1.09-2.99C809.69,592.4,808.52,592.8,809.41,593.68z M823.29,519.55c-0.31,0.73-1.28,2.42-1.92,0.65
		C822.65,520.84,822.45,518.11,823.29,519.55z M807.98,505.22c0.33,0.47,0.53,1.06,0.42,1.94c-1.45-0.49-1.08,0.88-2.31,0.63
		c0-0.26-0.01-0.51-0.01-0.76C807.43,507.27,806.85,505.92,807.98,505.22z M800.68,506.7c1.24-0.72,1.38-2.59,3.42-2.48
		c-0.8,1.14,0.81,2.16,0.06,3.07c-1.44,0.55-1.79-1.89-2.34-0.91c0.18,0.74,1.12,0.76,0.81,1.96
		C801.51,508.26,801.19,507.39,800.68,506.7z M805.33,507.74c0.16,1.42-0.55,1.94-1.5,2.21
		C804.25,509.14,804.23,507.86,805.33,507.74z M817.92,520.76c-0.15,0.97-0.5,1.73-1.11,2.23c0.04-0.65-1.67,1.33-1.94-0.5
		C816.04,522.07,816.87,521.3,817.92,520.76z M810.13,516.46c-0.47,1.02-1.35,1.61-1.88,2.57
		C807.76,518.41,809.09,515.51,810.13,516.46z M801.14,510.56c0.01,0.63,1.07,0.27,1.17,0.83c-0.91,0.06-0.69,1.29-1.91,1.03
		C800.33,511.47,800.3,510.57,801.14,510.56z M796.58,514.5c1.47-0.36,1.97-1.73,3.43-2.1c-0.67,1.56-2.31,2.13-3.41,3.25
		L796.58,514.5z M795.83,515.61c0,0.53,0.2,0.85,0.41,1.18c-0.85,0.03-2.05,1.61-2.69,0.6
		C794.82,517.32,794.29,515.39,795.83,515.61z M797.44,518.77c0.54,0.52,0.72,2.33-0.34,2.28
		C797.31,520.39,796.59,518.76,797.44,518.77z M787.47,522.01c1.82-0.11,0.63-2.74,1.09-3.38c1.82,0.27,0.51,1.25,1.21,2.75
		c-1.17-0.46-0.67,0.81-0.74,1.49C788.15,522.92,787.58,522.69,787.47,522.01z M796.28,537.84c0.79-0.31,0.76-1.46,1.9-1.42
		C797.87,537.03,797.19,539.12,796.28,537.84z M788.47,533.55c0.13,1.02-0.1,1.65-1.13,1.47
		C787.21,534.01,787.45,533.38,788.47,533.55z M790.97,542.51c0.89-0.21,1.01-1.21,1.9-1.42
		C792.96,542.08,791.83,543.73,790.97,542.51z M788.68,543.9c-0.6,0.13-0.3,1.19-1.53,0.68C786.4,543.25,788.51,543.05,788.68,543.9
		z M772.52,546.39c0.31-0.93-0.16-2.66,1.1-2.62C773.63,545.04,773.84,546.5,772.52,546.39z M774.02,544.19
		c0.68-1.17,1.76-1.94,3.04-2.5C776.56,542.94,775.42,545.05,774.02,544.19z M784.13,547.84l0.03,1.53l-1.16-0.07
		C782.63,548.06,783.57,548.14,784.13,547.84z M784.96,550.57c0.36,0.7,1.36,0.78,1.95,1.26c0.14,1.02-0.78,0.94-1.52,1.06
		C785.54,552.04,784.15,550.74,784.96,550.57z M785.79,553.68c1.42,0.32,1.88-2.29,2.67-1.38
		C787.9,553.03,786.87,555.79,785.79,553.68z M786.52,551.42c-0.44-0.49-1.12-0.76-0.81-1.96
		C787.23,549.11,787.79,551.36,786.52,551.42z M777.44,541.71c-0.21-1.21,0.45-1.54,1.12-1.85
		C779.15,540.46,778.64,541.84,777.44,541.71z M789.92,547.8c-1.21,0.1-1.25-0.9-1.2-1.99c1.98,0.29,1.94-1.51,3.44-1.71
		c0.3,1.29,1.63,1.34,0.83,2.73c-1.43,0.32-1.26-0.88-1.95-1.26C790.7,546.36,789.88,546.63,789.92,547.8z M791.48,548.65
		c-0.03-1.95,1.5-0.13,2.68-0.99C793.85,548.61,792.3,549.39,791.48,548.65z M794.96,548.87c0.96-0.01,0.09-1.29-0.03-1.54
		l1.54,0.09C796.78,548.53,795.7,550.08,794.96,548.87z M803.81,548.24l-1.16-0.07c-0.13-1,0.11-1.64,1.13-1.47L803.81,548.24z
		 M804.73,536.44c0.15-0.48,0.48-0.75,1.14-0.7c-0.33,2.36-3.55,0.5-4.61,0.87l0.04,1.91c-2.63,0.17-3.86,1.77-4.94,3.54
		c0.81,1.15,1.02,2.45,0.83,3.11c-1.63-1.48-0.17,1.22-1.91,1.03c0.15-2.23,0.49-3.77-0.12-5.75c2.97,0.63,3.19-3.43,4.53-5.09
		c0.22,0.57-0.41,1.95,0.42,1.94c0.13-1.24,1.04-1.68,1.1-3c-0.46,0.03-0.86,0.63-1.16-0.07c1.37,0.01,1.75-2.92,3.05-1.73
		c-1.46,0.34-1.36,3.24,0.46,3.47c-1.34-1.56,1.94-3.11,2.64-2.52C805.47,534.08,802.85,535.43,804.73,536.44z M803.52,533.68
		c-0.46-0.43-0.17-1.77,0.34-2.28c0.28,0.97,1.02-0.65,1.92-0.27C805.67,532.64,804.48,533.04,803.52,533.68z M793.58,518.53
		c-0.83,0.29-1.97,2.19-3.07,0.97c0.23-1.36-0.01-3.24,1.86-3.72c0.3,1.19-0.64,1.08-0.34,2.28
		C792.99,518.07,793.22,517.4,793.58,518.53z M809.28,532.49c-0.05-0.73-1.28-0.34-1.17-1.22c0.58-0.4,0.92-1.04,1.51-1.44
		C809.68,531.12,810.43,531.91,809.28,532.49z M806.54,530.41c0.35-1.56,1.76-1.19,1.5-2.59c0.57,0.1,1.42-0.05,1.55,0.47
		C808.34,528.76,808.6,530.79,806.54,530.41z M813.84,529.32c0.67,0.07,1.2-0.01,1.54-0.29c0,0.26,0.01,0.52,0.02,0.77
		c0.23,0.03,0.46,0.08,0.39,0.41c-1.95,0.08,0.59,1.12,0.42,1.94c-0.73,0.12-0.68,1.05-1.91,0.65
		C814.54,531.27,813.89,530.59,813.84,529.32z M838.44,544.97c0.97,0.01,1.19-0.66,1.55,0.48c-0.82,0.81-1.32-0.4-2.7-0.16
		c0.18,1.81-2.15,1.03-1.86,2.95c0.68-0.3,0.96-1.01,2.3-0.63c0.18,0.94-0.69,0.79-0.35,1.9c-0.98,0.35-1.39-1.73-1.94-0.5
		c-0.09,1,1.51,0.39,1.19,1.6c-0.25,0.5-0.81,0.66-1.53,0.67c-0.55-0.65-0.37-1.99-1.2-2.37c-0.32,0.55-1.23,0.48-1.91,0.65
		c2.38-2.79,4.81-5.53,8.33-7.15C841.01,544.62,838.11,543.13,838.44,544.97z M820.29,523.58c-1.53,1.02-2.2,0.52-1.5,2.2
		c-0.7,0.7-1.55,0.17-1.94-0.5c-0.39,2.23-3.12,4.02-5.33,3.13c2.5-0.61,3.81-2.94,4.14-4.73c0.29,0.78,1.05,1.08,1.96,1.27
		c-0.78-0.94-0.79-1.07-0.04-1.92c0.75-0.07,0.77,0.56,1.17,0.84c-0.68-1.46,0.07-0.75,0.75-1.49c-1.36-0.32-0.37-1.62,0.74-1.48
		C820.93,521.58,819.92,522.16,820.29,523.58z M843.42,543.36c-1.5,0.33-1.59-2.38-0.43-2.32
		C843.73,542.09,842,542.26,843.42,543.36z M844.93,541.92l-1.16-0.08c0.05-1.33-0.19-2.95,1.1-2.99
		C845.74,539.75,844.52,540.4,844.93,541.92z M826.74,518.61c-1.9-1.49-1.21,0.35-3.07,0.58c-0.08-1.46,0.47-2.01-1.22-3.14
		c3.44,1.04,3.83-2.95,6.48-3.82c-0.58,1.71-2.46,3.5-3.76,5.13C825.92,517.57,826.84,517.61,826.74,518.61z M833.52,509.83
		c-0.02,0.67,0.11,1.2,0.41,1.55c-0.25-0.01-0.51-0.03-0.77-0.05c-0.61-1.32-1.48-1.16-2.71-0.55
		C830.62,508.83,831.8,509.63,833.52,509.83z M832.82,513.62c1.86-0.07,2.12-1.81,3.82-2.06c-0.17,1.97-2.74,3.42-3.79,3.22
		C833.44,514.71,833.09,513.95,832.82,513.62z M835.2,517.59c1.25-0.22,1.92-3,3.44-1.7C837.81,516.55,836.43,518.6,835.2,517.59z
		 M854.74,531.81c-0.24-1.35-0.51-2.41-1.96-1.65c0.22-1.03,1.03-1.44,2.29-1.39C855.21,530.06,856.66,531.64,854.74,531.81z
		 M834.25,507.97c1.85-0.09,1.09-2.89,3.03-2.88C836.36,505.9,835.78,510.17,834.25,507.97z M827.33,488.01
		c0.99,0.03,0.38-1.62,1.91-1.03C829.45,487.98,827.91,489.07,827.33,488.01z M844.99,504.79c-0.59-0.6-0.08-1.98,1.12-1.84
		C846,503.84,845.74,504.57,844.99,504.79z M839.18,503.29c2.2-0.1,3.22-3.42,4.95-2.75C842.54,501.19,841.17,505.48,839.18,503.29z
		 M828.9,489.64c0.42-0.82,0.4-2.09,1.5-2.21C830.82,489.12,829.58,489.09,828.9,489.64z M850.99,496.36
		c2.17,0.03-0.27-2.7,1.87-2.95c-0.35,1.67-0.04,1,0.43,2.33C852.79,496.32,851.53,498.03,850.99,496.36z M831.18,487.86
		c0.48-2.35-3.96-4.68-1.26-5.44c0.23,0.41,0.15,1.78,1.2,2.38c0.04-0.84,0.96-0.77,1.91-0.65
		C832.63,485.6,832.87,487.73,831.18,487.86z M835.8,487.38c0.13,1.01-0.11,1.64-1.13,1.46c0.26-0.93-1.73-1.68-0.43-2.32
		C834.31,487.23,835.55,486.83,835.8,487.38z M866.85,520.31c0.28-1.92,0.16-1.92-0.83-3.11c1.01,0.29,1.39-0.07,1.14-1.08
		C869.1,516.65,868.58,519.99,866.85,520.31z M834.58,484.24c-0.13-1.01,0.12-1.64,1.13-1.46
		C835.84,483.79,835.6,484.42,834.58,484.24z M854.55,501.17c-0.63-0.64,0.15-1.75,1.12-1.84
		C855.88,500.55,855.22,500.87,854.55,501.17z M851.82,499.47c0.14-0.91-0.72-0.88-0.42-1.94c2.73,0.71,2.44-1.74,4.2-2.04
		C856.2,497.35,853.09,498.32,851.82,499.47z M856.71,492.89c-0.7-0.77-0.48-2.71,1.12-2.23
		C858.06,492.02,857.53,492.61,856.71,492.89z M866.64,488.52c0.74-0.11,0.28-1.47,1.52-1.05
		C868.69,488.68,867.11,489.58,866.64,488.52z M866.58,484.69c-1.2,0.37-0.95-0.66-1.56-0.86l0.03,1.92
		c-2.07-0.28-1.72-1.78-3.48-0.6c0.7-1.04,2.08-2.92,3.43-2.08c0.02-1.32,2.4-1.45,1.09-2.99l1.54,0.09
		c0.25,1.24-0.7,1.14,0.04,1.92C866.1,482.6,865.53,483.12,866.58,484.69z M868.85,482.91c-0.1-0.55-0.64-0.69-0.79-1.2
		c1.1-1.31,2.29,0.64,1.51-1.82C871.79,480.1,870.33,483.17,868.85,482.91z M871.87,479.27c-0.61,0-0.29,0.96-1.14,0.7
		c-0.63-2.01,0.55-1.55-0.44-3.48C871.93,476.35,871.7,478,871.87,479.27z M878.02,478.51c-0.12-1.25,0.42-1.82,1.51-1.82
		C879.32,477.61,879.23,478.64,878.02,478.51z M871.57,440.17c-0.25,1.63-1.29,2.43-2.26,3.31
		C869.69,441.98,869.98,440.39,871.57,440.17z M870.16,447.74c-0.15,1.1-0.79,1.7-1.9,1.8C868.01,448.01,869.1,447.89,870.16,447.74
		z M885.88,466.36c1.33-0.25-0.12-1.54,0.73-2.63C888.88,463.88,887.45,468.16,885.88,466.36z M876.58,440.1
		c-1.76,0.33-2.09,7.89-4.17,3.95c-0.78,0.71-1.64,3.3-3.04,2.11c-0.32-1.21,1.6-3.49,3.03-2.88c-1.04-2.05,0.86-0.9,1.52-1.44
		c-1.53-0.61-1.33-2.25-1.6-3.17c1.78,0.01,0.58,2.83,2.36,2.83c-0.13-0.52-0.56-0.77-0.41-1.56
		C874.53,439.67,876.4,439.24,876.58,440.1z M875.75,436.6c-1.55,0.27-1.75,0.85-1.12,2.23c-1.71-0.59-0.75-1.68-0.43-2.71
		C874.78,436.21,875.62,436.07,875.75,436.6z M874.13,431.89c0.88-0.05,1.45,0.18,1.55,0.87c-0.45,0.03-1.1-0.14-1.15,0.31
		c-0.08,0.29,0,0.76-0.38,0.74L874.13,431.89z M879.96,434.95c1.19,0.36,0.44-1.3,1.91-0.65
		C881.77,435.26,880.2,436.31,879.96,434.95z M889.47,427.88c-1.19,0.78-1.96,1.99-3.42,2.47c0.29-1.15,0.01-1.95,0.34-2.28
		c0.27,0.52,1.27-0.35,1.53-0.28c-0.1-0.56-0.64-0.69-0.79-1.2C887.97,425.47,889.38,426.26,889.47,427.88z M892.5,424.62
		c-0.03-0.23-0.07-0.46-0.39-0.41c0.24-0.87,0.66-1.57,1.9-1.41C894.1,424.03,893.39,424.42,892.5,424.62z M897.75,416.52
		c0.73,0.14,0.84-0.37,1.54-0.28c-0.17,0.86-0.73,1.91,0.05,2.69c-1.34-0.55-2.49-1.28-3.5-2.14c1.21-0.38,2.27-2.9,3.43-2.08
		C898.41,414.95,898.32,415.99,897.75,416.52z M901.13,411.38c0.09,0.3,0.33,0.47,0.78,0.43c0.04-0.47,0.1-0.9,0.76-0.72
		c-0.8,1.18-1.48,2.47-3.04,2.87C900.5,412.72,900.35,412.13,901.13,411.38z M903.91,416.15c-0.53-0.05-0.84,0.13-1.15,0.31
		c-0.3-1.15-2.2-0.78-1.97-2.43C902.57,414.04,903.34,415,903.91,416.15z M903.11,414.57c0.08-1.12-0.89-1.24-0.81-2.36
		c1.09-0.37,1.51-1.44,2.67-1.75c0.11,0.55,0.85,0.49,1.16,0.84C905.9,413.2,904.66,414.05,903.11,414.57z M906.47,408.26
		c-0.45,0.03-1.1-0.14-1.15,0.31c0.45,0.09,0.43,0.63,0.4,1.18c-0.38-0.03-0.77-0.05-1.15-0.07c0.15-1.86,0.24-1.43-0.43-2.71
		c0.73-0.04,0.86,0.49,1.55,0.48c0-0.39-0.32-0.48-0.4-0.79C906.57,406.35,906.57,407.26,906.47,408.26z M909.54,407.3
		c0.14-1.11,1.3-1.16,1.9-1.79C911.78,407.13,910.75,408.47,909.54,407.3z M912.53,401.75c0.3,0.1,0.76,0.06,0.78,0.44
		c-0.53-0.02-0.85-0.24-1.16-0.46c0.41-0.7,0.51-1.73,1.51-1.82C914.08,401.35,912.86,401.09,912.53,401.75z M915.59,400.41
		c0-1.04,1.45-2.48,2.29-1.39C916.83,399.19,916.94,400.56,915.59,400.41z M919.81,399.91c-0.55,0.06-0.64,0.59-1.15,0.69
		c-0.01-0.5-0.68-0.39-0.78-0.81c0.3-0.06,0.45-0.29,0.37-0.74C919.13,398.99,919.71,399.23,919.81,399.91z M919.8,399.14
		c0.14-1.86,2.01-1.91,2.64-3.28C922.39,397.82,921.27,398.67,919.8,399.14z M919.37,396.43c-0.05-1.69,0.14-3.13,1.49-3.36
		C921.86,394.85,920.48,395.8,919.37,396.43z M927.42,394.27c0.89-1.02,1.23-2.46,0.72-3.03c0.52,0.16,0.75,0.6,1.54,0.48
		C929.6,393.27,929.16,394.46,927.42,394.27z M784.59,679.19c-0.37-1.72,0.62-2.08,1.86-2.18
		C787.24,678,785.93,679.23,784.59,679.19z M806.07,662.16c0.15-0.71-0.59-2.33,0.72-1.86
		C807.69,660.65,807.23,662.68,806.07,662.16z M807.62,647.39c-0.22-1.21,0.44-1.53,1.11-1.84
		C808.71,646.52,808.7,647.51,807.62,647.39z M816.69,640.3c-0.78-0.76-0.27-1.85,1.12-1.46
		C817.66,639.57,817.71,640.48,816.69,640.3z M826.19,635.14c-2.88-0.26-2.99,0.1-4.99,0.85c0.08-1.49,0.33-3.39,1.82-4.47
		c0.62,0.32-0.04,1.87,1.2,1.6c0.42-1.58-0.67-1.71-0.84-2.72c0.73,0.13,0.84-0.38,1.53-0.29
		C825.84,632.18,825.43,633.24,826.19,635.14z M830.25,628.14c-0.52,1.58-1.87,2.3-3.4,2.84c-0.3-1.33,0.35-0.9-0.45-2.7
		c0.57-0.03,1.43,0.22,1.53-0.29c-0.02-0.51-0.68-0.39-0.79-0.81c1.04-0.3,0.68-2.03,2.66-1.37
		C830.12,627.29,828.07,627.78,830.25,628.14z M835.49,621.97c-0.21-1.21,0.29-1.69,1.5-1.44
		C837.21,621.74,836.05,621.55,835.49,621.97z M844.94,614.53c0.27-1.27,1.38-3.07,2.65-2.13
		C847.03,613.44,846.49,614.51,844.94,614.53z M861.87,596.47c0.78-0.16,0.73-1.1,1.54-0.29
		C863.73,597.51,861.96,597.59,861.87,596.47z M924.52,536.95c-0.53-0.05-0.84,0.12-1.15,0.31c-0.54-0.52-0.56-1.84-0.05-2.3
		C924.53,534.87,924.58,535.87,924.52,536.95z M933.52,524.91c0.2-0.82,1.06-2.87,1.89-1.79
		C934.47,523.39,935.03,525.23,933.52,524.91z M982.55,471.82c-0.98-0.02-0.88,1.37-0.35,1.89c-0.67-0.01-1.19-0.16-1.54-0.48
		C980.71,472.38,981.72,470.61,982.55,471.82z M987.51,469.85c-1.43-0.07-1.89-1.07-2.72-1.71c0.36,1.55-0.37,2.95-1.5,1.82
		c0.63-1.36,1.91-4.02,3.79-2.82C985.14,467.82,987.51,468.71,987.51,469.85z M988.96,464.19c-0.67,0.3-0.61,1.37-1.52,1.43
		C986.1,464.47,988.68,462.54,988.96,464.19z M998.32,449.11c1.33-0.26,1.38-3.81,3.03-2.48
		C1000.35,447.35,1000.09,450.39,998.32,449.11z M936.02,378.34c0.72-0.05-0.23-0.65,0.37-0.75c0.11,1,0.66-0.48,1.54,0.1
		C938.22,378.67,936.32,379.21,936.02,378.34z M1007.8,441.3c-1.23-0.41-1.18,0.53-1.91,0.64c0.05-1.21,0.23-2.27,1.5-2.2
		C1007.52,440.28,1007.95,440.52,1007.8,441.3z M1012.36,438.16c-0.51-0.03-1.02-0.07-1.54-0.1
		C1010.49,436.56,1012.64,436.7,1012.36,438.16z M1019.88,427.93c-0.13-0.9-1.05-0.97-1.16-0.08c0.56,0.26,0.96,0.66,1.18,1.23
		c-0.76-0.05-0.47,1.01-1.53,0.66c0.35-1.51-1.17-1.23-0.81-2.74c0.73-0.11,0.95-0.76,1.91-0.64
		C1019.42,426.88,1021.05,427.63,1019.88,427.93z M1022.14,425.4c-0.99-0.15-2.29-1.71-0.8-1.97
		C1021.52,424.17,1022.19,424.45,1022.14,425.4z M1022.89,424.3c-0.12-1.01,0.12-1.64,1.13-1.46
		C1024.15,423.85,1023.92,424.48,1022.89,424.3z M1028.2,419.67c-1.07,0-1.03,1.18-1.89,1.4c-0.21-2.34-1.3-0.27-1.56-1.63
		c1.62-0.06,1.43-2.03,2.65-2.51C1027.29,418.2,1027.37,419.29,1028.2,419.67z M959.9,354.58c0.68-0.3,0.48-1.53,1.92-1.03
		C962.01,354.56,960.48,355.64,959.9,354.58z M1004.66,311.5c-1.01-0.39-2.09,1.02-2.69-0.18
		C1003.38,311.74,1004,309.68,1004.66,311.5z M1013.01,303.61l-1.15-0.08c0.63-1.47,0.63-1.14-0.04-2.69
		c0.81-0.17,1.09-0.88,2.3-0.62C1014.25,301.88,1013.61,302.73,1013.01,303.61z M1019.06,295.95c-1.78-0.21-1.21,2.56-2.69,0.59
		C1017.29,296.59,1018.18,294.69,1019.06,295.95z M1037.25,277.21c-1.04,0.21-0.78-0.81-1.56-0.87c0.02-1.13,0.86-1.37,1.52-1.82
		C1037.9,275.22,1036.89,275.79,1037.25,277.21z M1040.27,273.2c-1.3,0.49,0.25,1.62-1.13,1.84
		C1038.51,274.75,1039.2,271.6,1040.27,273.2z M1057.67,252.49c-0.06-1.46,0.73-2.01,1.9-2.18
		C1059.57,251.7,1058,251.44,1057.67,252.49z M1150.36,288.38c-0.45,0.03-1.09-0.14-1.15,0.3c0.14,0.69,1.94,1.76,0.8,2.36
		c-0.61-0.34-0.6-1.26-1.56-1.26c0.82-1.15-0.94-2.76-0.05-3.84C1149.34,286.48,1150.45,286.86,1150.36,288.38z M1152.26,286.59
		c-1.49-0.27-1.37-0.51-2.3,0.23c-0.4-0.72-1.5-2.46-0.03-2.69C1149.57,287.24,1152.14,282.75,1152.26,286.59z M1154.89,282.94
		c-0.9,0.06-0.2,1.8-1.51,1.43c-0.47-1.55-0.23-1.52-0.81-3.13C1153.76,281.41,1154.07,282.41,1154.89,282.94z M1154.49,281.37
		c-0.07-0.45-0.61-0.46-1.15-0.46c-0.08-0.84,0.3-1.2,1.13-1.07C1154.74,280.53,1154.91,281.05,1154.49,281.37z M1087.95,216.53
		c-0.46-1.64,0.94-3.28,1.9-2.17C1088.54,214.36,1089.09,216.34,1087.95,216.53z M1089.45,213.56c0.16-1.72,1.07-2.66,3.04-2.48
		C1091.48,211.91,1091.02,213.31,1089.45,213.56z M1092.87,210.34c-0.39-0.03-0.77-0.05-1.15-0.08c-0.35-1.26,0.57-1.17,1.13-1.46
		L1092.87,210.34z M1122.02,175.09c-0.28-1.82,0.59-2.42,1.11-3.39C1123.77,172.64,1123.17,174.83,1122.02,175.09z M1132.16,155.42
		c1.26-1.15,0.27-2.86-1.96-2.83c-0.03-0.67,0.08-1.19,0.37-1.51c1.89,0.04,1.2,2.5,3.48,2.16
		C1133.53,154.08,1133.74,155.7,1132.16,155.42z M1185.9,184.89c-0.37,1.39-1.74,2.61-2.24,4.84c-0.46-0.09-1.09-0.01-1.16-0.46
		c-0.06-1.91,1.01-4.7,1.84-6.79C1185.6,182.58,1185.82,183.67,1185.9,184.89z M1190.81,178.32c-1.06,1.41-1.63,3.34-3.02,4.4
		c0.36-1.89,1.11-3.38,1.47-5.27C1189.98,177.55,1190.55,177.78,1190.81,178.32z M1207.45,157.21c1.08,0.01,0.97,1.15,1.56,1.64
		c-0.73,0.11-0.68,1.05-1.91,0.64C1207.08,158.58,1207.74,158.4,1207.45,157.21z M1192.33,176.89l-1.53-0.1
		c0.69-1.53-0.63-5.47,2.22-6.76C1192.45,172.67,1191.44,174.44,1192.33,176.89z M1157.67,135.67c-1.01-0.18-0.29,1.47-1.52,1.05
		C1155.63,135.49,1157.21,134.61,1157.67,135.67z M1160.73,133.96c0.87-0.98,0.66-3.1,2.27-3.3
		C1162.66,132.21,1162.29,133.72,1160.73,133.96z M1162.91,123.73c1.13,0.19,1.32,0,0.76-0.72c1.5-0.14,0.64,2.31-0.36,1.9
		C1163.32,124.38,1163.12,124.06,1162.91,123.73z M1167.18,127.49c-0.12,0.88-0.23,1.79-1.52,1.43
		C1165.69,127.94,1166.2,127.47,1167.18,127.49z M1185.85,148.39c-0.45,0.46-1.45,0.06-1.92-0.52c0.77-0.26-0.27-2.05-0.42-2.72
		c1.2-0.36,0.94,0.67,1.54,0.88c0.09-0.29,0.32-0.42,0.77-0.33C1185.09,146.82,1184.11,147.42,1185.85,148.39z M1188.12,145.86
		c0.59,0.59,0.4,2.03-0.74,1.87C1187.43,146.48,1186.46,145.82,1188.12,145.86z M1170.97,122.76c-2.74-0.24-1.42,3.82-3.41,4.38
		c-1.52-0.23,0.27-1.17-0.78-1.59c-0.13,1.06-1.13,2.18-1.9,1.41c0.69-1.62,0.61-1.96,0.33-4.21c1.29,0.48,1.25-0.45,1.14-1.46
		c1.45,0.29,1.63,0.22,3.08,0.98c0.2-1.75-1.27-1.92-2.33-2.47C1169.07,118.75,1170.83,120.82,1170.97,122.76z M1203.38,101.58
		c-0.53-0.55-0.76-2.74,0.36-2.67C1204.45,99.66,1203.97,101.08,1203.38,101.58z"/>
</g>
<g id="Boton_Simular">
</g>
<g id="LOGO">
</g>
<g id="Botón_1">
</g>
<g id="Botón_2">
</g>
<g id="Botón_3">
</g>
<g id="Cantidad_de_peces">
</g>
<g id="Días_de_cultivo">
</g>
<g id="Temperatura_Agua">
</g>
<g id="Texto_Mojarras">
	<g>
		<g>
			<path class="st34" d="M638.55,102.06c-0.2,4.27-1.17,8.89-5.75,10.27c-1.21,2.18-0.39,6.38-1.85,8.3
				c-3.46,5.07-8.71,7.99-13.84,11.99c-2.77,2.16-5.32,4.59-7.26,7.39c-0.69,1-1.84,1.83-2.68,2.73c-1.66,1.76-2.9,3.46-4.19,5.48
				c-1.34,2.09-2.9,4.03-4.26,6.01c-1.21,1.77-3.42,2.36-4.57,4.2c-1.31,2.09-2.26,4.45-3.78,6.47c-2.37,3.13-5.22,6.05-7.38,9.22
				c-6.84,10.08-12.36,21.02-19.37,31.36c-1.03,1.53-2.57,2.97-3.69,4.61c-1.52,2.21-2.54,4.29-4.61,6.46
				c-0.75,0.78-1.1,1.99-1.85,2.77c-0.83,0.86-2.4,4.39-3.69,6.46c-10.04,16.08-21.33,33.99-33.21,49.81
				c-0.68,0.9-1.19,1.96-1.85,2.77c-0.52,0.63-1.43,1.28-1.85,1.84c-1.16,1.57-1.59,3.97-2.77,5.54c-0.58,0.77-2.23,1.08-2.77,1.85
				c-0.62,0.89-0.29,1.97-0.92,2.77c-0.6,0.76-2.23,1.08-2.77,1.85c-0.62,0.89-0.25,2-0.92,2.77c-4.43,5.05-10.6,8.51-14.76,13.84
				c17.46-2.86,44.27-3.61,56.27,4.61c19.06-0.61,28.4,8.5,32.29,23.06c-1.71,0.95-1.98,3.2-2.77,4.61
				c-1.67,2.99-5.77,8.72-9.22,11.07c-0.94,0.64-1.12,0.23-1.84,0.92c0.17-0.16-3.14,1.73-3.69,1.84
				c-12.34,2.55-26.36-10.16-37.82-1.84c-23.38,1.71-49.67,3.87-74.72,2.77c-6.57-0.29-13.04-2.07-19.37-1.85
				c-5.48,0.2-10.76,2.41-15.68,2.77c-12.02,0.86-24.36-1.3-32.29-5.54c-2.68-1.43-4.68-3.29-7.38-5.53
				c-0.27-0.23-0.67-1.73-0.92-1.85c-1.3-0.58-2.85-0.7-4.61-1.84c-3.3-2.14-8.66-4.77-11.99-8.3c-8.17-0.97-15.34-2.59-22.14-5.53
				c-7.6-3.3-13.24-8.43-22.14-10.15c-4.57-0.88-9.77,1.44-13.84-2.77c-5.03,4.2-12.46,6-16.6,11.07
				c-10.38,0.39-13.03,8.5-23.06,9.22c6.89,0.77,14.09,0.41,22.14,1.85c9.37,1.67,13.25,3.08,18.45,9.22
				c2.83,3.35,5.47,6.08,5.53,9.23c0.09,4.75-4.95,9.4-7.38,12.91c-9.24,2.02-18.41,3.32-28.6,0.92c-5.11,3.51-9.26,2.24-17.53,3.69
				c-2.37,0.42-3.51,1.74-5.53,1.84c-2.49,0.12-9.54,0.02-13.84-0.92c-3.62-0.8-6.64-3.61-10.15-4.61
				c-3.72-1.06-7.87-0.57-13.84-0.92c-2.08-0.12-4.71-1.07-6.46-0.92c-4.62,0.39-10.27,3.16-15.68,4.61
				c-23.88,6.39-54.04,9.78-87.63,8.3c-5.39-0.24-11.18-1.47-16.6-1.85c-6.14-0.43-11.84-0.01-17.53-0.92
				c-9.4-1.51-21.63-5.89-30.44-9.23c-1.72-0.65-3.73-0.47-4.61-0.92c-0.98-0.51-2.4-2.8-3.69-3.69c-3-2.08-10.87-5.77-12.91-8.3
				c0.08,0.1-1.04-2.31-1.85-3.69c-2.81-4.82-3.86-18.75-0.92-25.83c0.93-2.25,2.15-4.24,3.69-6.46c1.44-2.08,2.66-4.44,3.69-5.54
				c1.13-1.2,2.98-1.4,4.61-2.77c1.85-1.55,3.25-3.79,5.53-5.53c0.74-0.57,1.91-0.32,2.77-0.92c5.95-4.21,14.2-9.9,21.22-14.76
				c4.23-2.93,8.32-5.77,12.91-9.22c3.57-2.68,7.97-6.62,11.99-10.15c4.9-4.29,7.88-7.33,11.07-13.84c1.16-2.37,1.64-5.23,2.77-7.38
				c3.11-5.94,6.49-10.76,10.15-16.6c2.44-3.91,5.22-8.31,8.3-12.91c1.28-1.92,2.83-3.88,4.61-6.46c0.23-0.33,1.71-0.63,1.84-0.92
				c1.75-3.88,6.76-9.09,10.15-12.91c10.18-11.49,22.32-23.14,35.98-32.29c1.7-1.14,3.93-2.86,6.46-4.61
				c0.33-0.23,0.63-1.71,0.92-1.85c8.95-4.03,18.85-10.98,28.6-15.68c4.56-2.2,9.9-4.33,14.76-6.46
				c14.61-6.4,30.55-12.53,47.97-15.68c5.67-1.03,11.81-2.31,17.53-2.77c9.66-0.78,19.21,0.48,28.6,0.92c4.16,0.2,8.79-0.23,12.91,0
				c24.32,1.35,48.23,6.61,68.26,13.84c12.12,4.37,24.14,6.76,42.43,5.53c4.45-0.3,8.99-1.35,13.84-1.84
				c6.64-0.68,12.8-0.36,18.45-1.85c11.01-2.9,17.13-11.34,23.98-19.37c6.15-7.2,11.72-15.26,18.45-23.98
				c-4.32-11.4-5.72-23.52-6.46-39.67c-0.31-6.87-0.71-14.62,0-21.22c1.1-10.2,5.32-17.27,15.68-12.91
				c2.35,0.99,2.72,0.95,4.61,2.77c0.78,0.75,1.99,1.1,2.77,1.85c1.59,1.52,6.82,4.5,9.22,6.46c6.89,5.61,13.17,14.5,20.29,15.68
				c3.89,0.64,11.74-2.45,17.53-1.84c4.53-4.98,7.03-13.22,11.07-20.29c0.7-1.23,1.88-1.58,2.77-2.77c1.21-1.62,2.17-6.43,5.53-4.61
				c2.5,8.88,2.46,20.29,3.69,30.44c3.61,2.54,7.82,3.28,11.99,4.61c3.1,0.99,3.99,1.34,6.46,2.77c3.13,1.81,6.62,5.58,9.22,8.3
				c1.42,1.48,2.34,6.6,3.69,10.15c2.59,4.18,7.76,5.77,11.99,8.3c2,4.09,4.06,8.04,6.03,12.06c0.72,1.46,0.69,2.63,0.69,4.25
				C638.6,99.37,638.62,100.7,638.55,102.06z M113.46,341.09c-2.57-1.92-5.67-3.83-7.38-5.54c-0.31-0.31,0.26-1.48,0-1.84
				c-0.21-0.3-1.53-0.56-1.85-0.92c-2.46-2.8-4.5-7.06-7.38-8.3c-2.46-1.06-7.38-1.46-11.07-0.92c-4.98,0.72-10.53,4.16-15.68,6.46
				c-1.66,0.74-3.21,0.23-4.61,0.92c-0.97,0.48-1.51,2.09-2.77,2.77c-2.63,1.43-7.07,1.38-7.38,4.61
				c19.24,5.05,45.56,7.93,68.26,6.46C118.7,344.93,115.29,342.46,113.46,341.09z"/>
		</g>
		<g>
			<path class="st16" d="M650.97,82.49c-4.07,1.08-8.1,2.51-11.77,4.66c-3.51,2.13-7.34,5.22-7.58,9.9c0.37,0,0.51,0,0.89,0
				c0.09-4.11,3.6-7.21,7.03-9.34c3.56-2.16,7.53-3.64,11.55-4.77c8.09-2.25,16.51-3.16,24.91-3.3v-0.03
				C667.59,79.56,659.14,80.35,650.97,82.49z"/>
			<path class="st16" d="M641.19,92.92c-1.74,0.86-3.8,1.93-4.99,3.63c-1.9,0.4-3.79,0.93-5.65,1.61c0.1,0.24,0.13,0.33,0.23,0.58
				c1.66-0.65,3.35-1.17,5.05-1.58c-0.31,0.59-0.53,1.25-0.59,1.99c0.26,0,0.36,0,0.62,0c0.04-0.8,0.31-1.52,0.73-2.16
				c9.4-2.08,19.4-0.95,28.95,0.09l0-0.02c-9.35-1.21-19.13-2.45-28.51-0.66c1.11-1.32,2.83-2.3,4.36-3.05
				c2.61-1.24,5.4-2.08,8.23-2.74c5.67-1.28,11.5-1.8,17.32-1.89v-0.02c-5.82-0.04-11.67,0.4-17.39,1.6
				C646.69,90.9,643.86,91.71,641.19,92.92z"/>
			<path class="st16" d="M663.44,67.76c-10.74,9.07-24.2,14.25-34.44,24.15c0.22,0.22,0.31,0.3,0.53,0.52
				c9.87-9.99,23.37-15.36,33.93-24.66L663.44,67.76z"/>
		</g>
	</g>
</g>
<g id="Menu">
</g>
<g id="Logo_CIPA">
	<g>
	</g>
</g>
</svg>
