<?xml version="1.0" encoding="utf-8"?>
<!-- Generator: Adobe Illustrator 24.0.1, SVG Export Plug-In . SVG Version: 6.00 Build 0)  -->
<svg version="1.1" xmlns="http://www.w3.org/2000/svg" xmlns:xlink="http://www.w3.org/1999/xlink" x="0px" y="0px"
		viewBox="0 0 650 559" style="enable-background:new 0 0 650 559;" xml:space="preserve">
	<style type="text/css">
		.st4{fill:#EF6B01;}
	</style>
	<g>
		<path class="st4" d="M198.39,410.89c-0.58,9.62-0.89,18.63-1.74,27.59c-0.94,9.9-2.04,19.82-3.7,29.62
			c-2.19,12.93-0.97,24.87,8.76,34.54c1.84,1.83,4.99,2.8,7.69,3.22c3.51,0.54,7.17,0,10.76,0.16c10.95,0.47,9.95-2.66,8.65-11.65
			c-0.74-5.14-3.31-10.55-10.23-11.29c-2.56-0.27-3.13-2.42-3.27-5.07c-0.78-14.53,2.5-28.11,10.45-40.14
			c3.2-4.84,8.46-8.36,12.97-12.27c10.55-9.15,20.89-18.38,28.09-30.71c3.82-6.54,8.93-11.76,17.53-12.81
			c4.26-0.52,8.51-3.31,12.19-5.88c4.71-3.29,7.01-3.01,12.07-0.18c10.48,5.87,20.84,12.2,33.16,13.92
			c10.26,1.44,20.42,3.64,30.7,4.87c5.79,0.7,11.73,0.13,17.84,0.13c3.35,7.55,3.09,15.12,2.37,23.05
			c-0.9,9.83-1.36,19.69,0.58,29.65c2.15,11.02,3.18,22.28,4.08,33.49c0.6,7.52,0.11,15.12,0.14,22.69c0,1.3-0.27,2.78,0.24,3.88
			c4.59,9.89,9.17,19.8,14.11,29.52c1.96,3.87,9.02,5.67,13.28,4.86c2.49-0.48,5.23,0.37,7.86,0.61c4.64,0.42,9.29,1.26,13.91,1.11
			c3.89-0.12,6.41-2.79,7.13-6.77c2.05-11.43-3.69-15.04-11.51-18.23c-2.23-0.91-4.6-1.62-6.63-2.88
			c-3.01-1.86-4.67-4.33-4.68-8.38c-0.03-11.36,0.1-22.82-1.35-34.05c-1.38-10.63,0.18-20.75,1.09-31.19
			c0.86-9.85,2.03-19.51,4.2-29.11c0.18-0.78,0.03-2.17,0.4-2.3c6.85-2.52,6-9.41,6.55-14.17c0.73-6.25,3.64-9.61,8.28-12.58
			c2.96-1.89,5.84-3.91,9.65-6.47c0.71,3,1.79,5.25,1.68,7.44c-0.79,16.05,4.07,31.19,7.13,46.62c1.22,6.14,2.37,12.32,2.99,18.54
			c0.76,7.56,1.72,15.25,1.16,22.77c-0.62,8.32,2.25,15.52,4.71,22.98c1.85,5.63,4.47,11.08,5.67,16.83
			c1.46,7.06,6.94,7.47,11.95,8.09c7.66,0.96,15.44,0.93,23.15,1.52c4,0.31,6.4-2.11,7.4-5.09c0.84-2.52,0.78-6.06-0.41-8.36
			c-1.45-2.82-4.09-6-6.92-6.95c-9.14-3.06-13.42-9.75-16.31-18.22c-3.18-9.3-3.4-18.6-1.66-28.2c0.97-5.38,1.42-10.94,1.39-16.41
			c-0.07-12.56,3.16-24.52,5.72-36.63c1.42-6.73,2.67-13.58,3.09-20.43c1.02-16.4,1.13-32.85,6.19-48.76
			c1.2-3.77,0.83-8.01,1.5-11.98c1.67-9.79,3.24-19.62,5.4-29.31c1.26-5.66,3.19-10.94,1.24-16.98c-0.78-2.42,0.83-5.6,1.32-8.45
			c1.15-6.77,2.52-13.52,3.33-20.33c0.72-6.03,1.51-11.4,5.34-16.94c6.17-8.92,10.11-19.28,8.69-30.8
			c-0.92-7.46,6.32-16.79,13.62-16.75c5.33,0.02,10.74,1.3,15.96,2.62c9.8,2.48,17.88-0.21,25.42-6.61
			c7.6-6.45,12.91-14.12,15.78-23.68c0.75-2.5,2.95-4.56,4.42-6.87c4.1-6.43,2.79-11.19-3.99-14.55
			c-9.09-4.51-18.15-9.09-27.3-13.5c-4.95-2.38-8.03-6.3-8.31-11.55c-0.37-7.06-4.23-11.76-9.07-16
			c-5.09-4.46-10.02-9.26-15.67-12.87c-3.72-2.37-8.52-3.49-12.99-4.13c-6.7-0.96-13.53-0.93-20.3-1.47
			c-7.69-0.61-14.71,1.39-21.38,5.04c-9.2,5.03-18.38,10.11-27.66,14.99c-5,2.63-6.86,7.27-9.08,12.03
			c-5.1,10.98-10.43,21.86-16.16,32.53c-5.85,10.89-11.63,21.93-18.72,32.01c-4.38,6.24-10.69,11.43-16.95,15.97
			c-8.57,6.23-17.42,12.52-27.04,16.75c-10.87,4.79-22.66,7.62-34.19,10.78c-15.01,4.1-30.4,5.02-45.95,5.44
			c-9.61,0.26-19.16,3.11-28.7,4.99c-9.56,1.88-19.07,4.01-28.6,6c-17.41,3.64-33.05,10.84-47.42,21.49
			c-12.96,9.6-23.02,21.61-32.89,34.11c-7.16,9.07-16.51,15.77-27.48,19.97c-10.6,4.06-21.74,5.14-32.88,6.55
			c-19.73,2.51-39.61,4.74-57.1,15.55c-1.91,1.18-3.59,2.71-5.41,4.05c-3.04,2.24-3.38,5.78-1.85,8.28
			c1.13,1.86,4.45,2.84,6.96,3.27c3.17,0.54,6.52-0.02,9.78,0.15c15.35,0.8,30.68,2.11,46.04,2.36c7.63,0.12,15.36-1.27,22.9-2.71
			c6.71-1.28,13.43-3.05,19.75-5.59c4.84-1.95,9.03-5.52,13.59-8.22c1.28-0.76,2.87-0.99,4.32-1.46c-0.24,1.44-0.12,3.07-0.77,4.29
			c-4.12,7.68-9.11,14.98-12.46,22.97c-3.56,8.51-5.68,17.64-8.32,26.52c-3.89,13.05-6.33,26.78-17.24,36.49
			c-2.04,1.81-4.22,3.57-6.6,4.88c-5.31,2.92-7.91,7.7-8.89,13.23c-0.95,5.39-0.8,10.96-1.47,16.41
			c-1.05,8.6-2.89,17.12-3.47,25.74c-0.62,9.28-0.71,18.67-0.02,27.94c0.55,7.27,8.12,8.11,12.86,11.59
			c4.76,3.5,10.3,1.8,15.27,3.39c2.28,0.73,4.71,2.02,6.9,1.74c2.18-0.28,5.75-2.01,5.94-3.47c0.96-7.17,0.39-14.45-8.26-18.2
			c-4.75-2.06-5.54-5.75-4.53-10.75c1.37-6.76,1.9-13.69,2.96-20.52c0.73-4.73,1.68-9.42,2.67-14.1c0.18-0.86,0.85-1.81,1.58-2.33
			c12.33-8.71,24.85-17.17,37.01-26.11c5.2-3.82,9.64-8.66,14.53-12.91C194.46,413.07,196.36,412.17,198.39,410.89z"/>
	</g>
</svg>
