<?xml version="1.0" encoding="utf-8"?>
<!-- Generator: Adobe Illustrator 24.0.1, SVG Export Plug-In . SVG Version: 6.00 Build 0)  -->
<svg version="1.1" xmlns="http://www.w3.org/2000/svg" xmlns:xlink="http://www.w3.org/1999/xlink" x="0px" y="0px"
	 viewBox="0 0 370 389"  xml:space="preserve">
<style type="text/css">
	.st13{fill:#118DB0;}
	.st13:hover{fill:#621d68;}
</style>
<g id="Logo_CIPA">
	<g>
		<path class="st13" d="M154.54,346.36c-2.23-0.84-3.77-1.79-5.39-1.95c-4.22-0.41-8.49-0.28-12.71-0.74
			c-5.88-0.64-11.76-1.47-17.58-2.53c-2.29-0.41-3.35-0.01-3.8,2.3c-0.46,2.39-1.08,4.77-1.81,7.09
			c-2.58,8.19-8.88,13.23-17.49,13.13c-7.19-0.08-14.41-0.72-21.55-1.65c-7.12-0.93-9.96-7.9-6.07-14.04
			c0.77-1.22,1.74-2.32,2.97-3.93c-6.35-0.44-9.38-4.2-10.8-9.58c-1.41-5.31,0.55-9.19,5.68-11.14c2.48-0.94,4.99-1.86,7.56-2.45
			c2.98-0.69,4.14-2.57,4.54-5.36c1.01-7.14,1.91-14.31,3.2-21.4c1.52-8.34,3.61-16.58,5.01-24.94c0.47-2.8,0.16-6.02-0.77-8.71
			c-4.65-13.5-11.05-26-19.82-37.49c-10.46-13.72-17.44-29.43-20.56-46.45c-0.89-4.85,0.66-10.26,1.62-15.31
			c0.64-3.4,2.03-6.71,3.4-9.92c3.55-8.3,3.81-16.86,2.6-25.62c-0.68-4.89-3.13-8.26-7.99-9.63c-4.29-1.21-8.58-2.41-12.88-3.54
			c-4.73-1.24-8.41-3.49-9.27-8.82c-0.12-0.73-0.81-1.47-1.42-2c-2.06-1.82-3.63-3.82-3.62-6.78c0-0.76-0.51-1.59-0.98-2.26
			c-2.82-4.02-3.05-8.51,0.4-11.85c5.65-5.46,8.17-12.29,10.77-19.47c4.73-13.08,14.21-21.88,27.47-26.21
			c7.25-2.37,7.52-2.48,5.12-9.68c-1.21-3.62-2.46-7.24-3.46-10.92c-0.29-1.07,0.19-2.36,0.32-3.55c1.26,0.3,2.79,0.25,3.73,0.96
			c2.23,1.7,4.18,3.76,6.4,5.82c0.51-0.75,0.93-1.13,1.06-1.59c0.83-2.83,2.57-2.83,4.6-1.41c5.04,3.52,10.13,6.98,15.01,10.71
			c8.09,6.18,16.23,12.33,24.01,18.9c13.59,11.49,20.73,26.84,25.25,43.66c2.23,8.29,4.56,16.56,7.02,24.79
			c0.69,2.31,1.92,4.48,3.06,6.63c3.51,6.62,9.55,8.95,16.56,9.62c9.4,0.9,18.87,1.37,28.18,2.85c26.85,4.27,46.26,19.61,60.44,42.1
			c10.57,16.76,16.13,35.45,20.01,54.7c5.07,25.16,7.65,50.55,6.59,76.25c-0.04,0.93,0.09,1.87,0.15,3.1
			c0.71-0.28,1.25-0.35,1.58-0.65c15.47-14.38,26.45-31.4,30.71-52.37c2.02-9.92,0.91-19.66-3.38-28.63
			c-7-14.62-14.73-28.89-22.15-43.31c-7.28-14.13-15.66-27.83-21.57-42.51c-7.64-18.96-9.84-39.04-5.46-59.38
			c4.89-22.72,20.59-36.11,43.59-39.52c17.6-2.61,33.19,2.07,45.17,15.71c14.26,16.22,16.64,40.83,5.75,58.17
			c-6.3,10.03-15.18,16.78-27.2,18.67c-5.63,0.88-9.4-1.01-11.26-5.47c-2.31-5.52-1.36-10.39,3.27-13.61
			c3.1-2.16,6.58-3.87,10.07-5.37c10.2-4.36,14.41-13.49,10.86-24.02c-3.8-11.25-16.74-19.84-29.14-19.34
			c-13.14,0.53-23.59,9.01-26.5,21.72c-3.21,14.04-0.67,27.65,3.54,41.05c3.62,11.52,9.13,22.12,16.2,31.93
			c13.56,18.8,24.8,38.8,30.99,61.31c5.94,21.61,6.54,43.22-1.47,64.47c-9.25,24.56-26.03,42.42-49.49,54.03
			c-2.82,1.4-5.04,2.91-6.54,5.96c-2.68,5.49-8.13,8.11-13.1,11.2c-2.44,1.52-4.46,3.67-6.83,5.32c-1.33,0.92-2.93,1.8-4.49,1.98
			c-7.38,0.84-14.79,1.34-22.17,2.13c-8.55,0.92-17.05,2.42-25.61,2.91c-6.72,0.39-13.51-0.45-20.27-0.59
			c-2.49-0.05-5.02,0.16-7.48,0.53c-5.95,0.89-11.84,2.36-17.82,2.8c-5.74,0.42-10.95-1.77-13.35-7.36
			c-2.34-5.44-0.26-10.39,3.63-14.56C150.75,349.86,152.27,348.54,154.54,346.36z"/>
	</g>
</g>
</svg>
