<?xml version="1.0" encoding="utf-8"?>
<!-- Generator: Adobe Illustrator 24.0.1, SVG Export Plug-In . SVG Version: 6.00 Build 0)  -->
<svg version="1.1" xmlns="http://www.w3.org/2000/svg" xmlns:xlink="http://www.w3.org/1999/xlink" x="0px" y="0px"
	 viewBox="0 0 564 594" style="enable-background:new 0 0 564 594;" xml:space="preserve">
	<style type="text/css">
		.st16{fill:#118DB0;}
		.st16:hover{fill:#671D6A;}
	</style>
	<g id="Logo_CIPA">
		<g>
			<path class="st16" d="M551.39,289.99c0.17,0.12,0.34,0.25,0.51,0.37c0.72,0.52,1.48,1.07,2.38,1.74c0-0.01-0.01-0.02-0.01-0.03
				c0.01,0.01,0.02,0.01,0.02,0.02c-0.43-1.43-0.81-2.69-1.16-3.86c-0.52-1.74-0.97-3.27-1.41-4.79c-0.16-0.51-0.57-1.36-0.3-1.74
				c0.01-0.01,0.02-0.02,0.04-0.03c0.03-0.03,0.06-0.05,0.1-0.07c0.1-0.05,0.25-0.08,0.44-0.07c2.97,0.18,1.78-0.97,1.12-1.84
				c-0.14-0.2-0.26-0.38-0.3-0.53c-0.07-0.25-0.15-0.49-0.23-0.74c-0.32-0.98-0.71-1.95-1.21-2.84c-1.31-2.35-0.53-3.1,1.99-2.52
				c-0.3-0.76-0.62-1.5-0.95-2.22c-1.2-2.64-2.62-5.01-4.14-7.36c-0.24-0.31-0.97-0.86-0.97-1.21c0.01-0.11,0.09-0.2,0.3-0.24
				c2.89-0.68,0.88-1.65,0.25-2.19c-0.07-0.06-0.12-0.12-0.15-0.17c-0.15-0.24-0.32-0.47-0.5-0.7c-0.61-0.76-1.38-1.42-2.06-2.14
				c0,0,0,0-0.01,0.01c-0.21-0.26-0.46-0.46-0.67-0.67c-0.68-1.04-1.31-2.14-1.99-3.19c0.94-0.89,2.25,0.42,3.19-0.57
				c-1.25-2.19-3.24-3.45-5.17-5.07c0.99-0.26,1.88-0.47,3.24-0.84c-2.87-1.57-5.12-2.77-7.58-4.13c0.94-0.42,1.62-0.73,2.56-1.15
				c-0.78-0.68-1.46-1.15-1.99-1.72c-1.2-1.31-2.61-2.56-3.08-4.28c-0.68-2.66-0.52-2.66-2.61-4.6c-0.84-0.73-1.99-1.25-2.25-2.51
				c1.1-0.84,2.77-0.05,3.81-1.31c-2.14-1.93-6.06-1.88-4.13-7.05c7.21-19.38,9.04-39.5,5.75-60.03c-0.37-2.35-0.78-4.86-3.34-5.8
				c-2.72-0.99-4.6,1.05-6.48,2.61c-0.47,0.37-0.84,0.84-1.25,1.25c-5.49,5.8-11.23,11.23-17.24,16.35c0,0.05,0,0.05-0.05,0.05
				c-3.5,3.08-7,6.06-10.61,8.93c-5.38,4.34-10.87,7.68-18.08,6.84c-1.15-0.16-2.35,0.31-3.5,0.42c-0.42,0-1.52,0.37-1.25-0.47
				c0.99-2.77-0.78-1.2-1.62-1.1c-4.13,0.52-8.05,1.67-12.38,0.52c-2.56-0.73-5.54-1.25-8.52-0.78c0.52,1.31,2.04,1.2,2.19,2.56
				c-4.18-0.21-8.2-1.99-12.38-1.31c0,0.05,0.05,0.1,0.1,0.21c0.05,0.05,0.1,0.1,0.1,0.16c0.31,0.47,0.68,1.05,0.99,1.62
				c-4.6-0.52-4.6-0.47-6.11-1.57c-6.22-4.49-12.28-9.14-18.13-14.05c-0.05-0.05-0.1-0.05-0.1-0.1c-6.74-5.59-13.17-11.6-19.18-18.03
				c-1.15-1.25-2.51-2.51-3.97-3.45c-3.03-1.99-5.75-0.99-6.79,2.56c-0.68,2.35-1.1,4.81-1.36,7.21
				c-1.93,17.92-0.42,35.42,5.33,52.51c0.63,1.88,0.52,3.4-0.99,4.81c-0.89,0.84-1.78,1.83-2.09,3.13c0.84,0.63,1.88-0.42,2.66,0.57
				c-1.88,2.87-3.81,5.8-5.75,8.73c-1.05,1.36-2.19,2.61-3.14,4.08c-0.26,0.37-0.31,0.63-0.31,0.78c0,0.1,0.05,0.16,0.16,0.21
				c0.31,0.16,0.89,0,1.2,0.05h0.05l0.01,0.02c0.15,0.3,0.2,0.56,0.2,0.81c0,0.42-0.21,0.78-0.47,1.1c-0.21,0.31-0.52,0.68-0.73,0.99
				c-2.4,4.08-5.59,7.63-9.61,12.07c3.76-1.57,3.13,0.1,2.56,1.52c-0.68,1.72-1.41,3.4-2.19,5.07c-0.1,0.37-0.26,0.68-0.42,0.99
				c-0.26,0.05-0.68,0.21-0.42,0.52c0.31,0.31,0.52,0,0.63-0.37c0.26-0.1,0.47-0.26,0.73-0.37c0.78-0.42,1.67-0.84,2.51-1.31
				c0,0,0.01,0.01,0.01,0.01c0,0-0.01,0-0.01,0.01c0.09,0.08,0.18,0.16,0.27,0.24c0.11,0.1,0.21,0.18,0.3,0.27
				c-0.52,1.15-0.99,2.3-1.52,3.45c-2.04,4.65-4.13,9.3-5.75,14.16c1.67,0.21,1.72-1.99,3.24-1.78l0.05,0.05
				c-0.42,1.72-1.57,3.71-1.05,5.02c0.63,1.62,0.68,1.83-0.89,2.46c-14.37,5.9-28.74,11.6-43.78,15.52
				c-16.67,4.39-33.54,7.05-50.68,8.2c-13.9,0.89-27.74,0.47-41.59-0.68c-16.3-1.25-32.45-3.61-48.59-6.11
				c-12.17-1.88-24.24-4.96-36.68-4.39c-14.05,0.68-26.23,5.96-36.21,15.99c-1.1,0.37-1.78,2.77-3.45,0.73
				c-0.52-1.25-0.94-2.61-1.62-3.81c-3.29-5.9-7.47-11.34-10.24-17.56c-1.31-2.82-2.46-5.85-4.55-8.26c-0.42-0.37-0.84-1.1-1.25-1.1
				c-2.93,0.05-3.03-2.04-3.4-4.18c-0.68-4.02-1.57-7.99-2.35-12.02c-0.31-1.52-0.73-2.98-2.66-1.46c-2.82,2.25-2.56,0.05-2.72-1.83
				c-0.42-6.53-0.26-13.11-0.21-19.7c0-0.52,0.52-1.41-0.57-1.62c-1.67-0.31-1.62-0.31-1.62-1.83c0-7.94,1.88-15.57,3.45-23.25
				c0.26-1.25,1.15-2.72,0.37-3.71c-1.52-1.99-0.57-3.76-0.21-5.64c0.89-2.61,1.78-5.17,2.66-7.78c0.78-0.94,1.04-1.83,0.57-2.77
				c-0.1-0.26-0.31-0.52-0.57-0.78c0-0.01,0.01-0.02,0.01-0.03c0,0,0.01,0,0.01,0.01c0.59-1.43,1.18-2.85,1.77-4.28
				c1.15-2.75,2.3-5.49,3.43-8.24c1.15-2.4,2.3-4.81,3.45-7.21c1.93-2.93,3.61-6.01,5.02-9.2c1.15-1.88,2.29-3.81,3.44-5.68
				c0,0,0,0,0,0c0.19-0.28,0.38-0.56,0.58-0.84c0.18-0.27,0.37-0.54,0.55-0.8c2.35-3.36,4.83-6.63,6.57-10.37
				c0.03,0.01,0.06,0.01,0.1,0.03c0-0.03,0-0.07,0-0.1c0,0,0,0,0,0v0c-0.03,0.01-0.05,0.03-0.08,0.04c0,0.01-0.01,0.02-0.01,0.03
				c-1.33-0.51-2.3,0.56-3.45,0.86c0,0-0.01,0-0.01,0c-0.03,0.01-0.05,0.01-0.08,0.02c-0.14,0.03-0.29,0.05-0.44,0.05
				c-0.26-0.22-0.52-0.45-0.78-0.67c0.78-1.48,1.56-2.96,2.34-4.44c-0.01,0-0.01,0-0.02,0c0,0,0,0,0-0.01
				c0.63-0.94,1.25-1.88,1.88-2.82c0,0,0,0,0-0.01c0.01,0,0.01,0,0.02,0c0.71-1.09,1.42-2.17,2.12-3.26
				c0.36-0.54,0.71-1.09,1.07-1.64c0.78-1.2,1.57-2.4,2.35-3.6c-0.01-0.01-0.01-0.01-0.02-0.02c1.46-2.3,2.87-4.6,4.28-6.9
				c0-0.01,0.01-0.01,0.01-0.02c0,0,0,0,0.01,0c3.06-3.92,5.64-8.16,8.23-12.39c0.54-0.88,1.08-1.76,1.63-2.64
				c2.51-3.66,5.12-7.26,7.11-11.23c-0.13-0.13-0.26-0.3-0.36-0.45c0.11,0.15,0.22,0.3,0.36,0.42c0.27-0.08,0.46-0.23,0.44-0.44
				c-0.01-0.07-0.03-0.15-0.09-0.23c-0.06-0.08-0.51,0.1-0.78,0.17c0,0,0.01,0.01,0.01,0.01c-0.57,0.16-1.09,0.36-1.66,0.57
				c0,0,0,0,0,0c0.01,0,0.01-0.01,0.02-0.01c-0.2-0.16-0.39-0.31-0.59-0.47c2.35-6.06,5.74-11.7,7.62-17.96
				c0.04-0.05,0.08-0.1,0.13-0.14c0.06-0.05,0.13-0.11,0.19-0.16c0.03-0.02,0.06-0.05,0.1-0.07c0,0,0,0-0.01,0c0,0,0,0,0,0
				c-0.06-0.06-0.15-0.16-0.2-0.19c0,0-0.01-0.01-0.01-0.01c0,0,0,0-0.01,0c0,0-0.01-0.01-0.01-0.01c-0.16,0.1-0.29,0.23-0.44,0.35
				l0,0c-0.01,0.01-0.01,0.01-0.02,0.01c-1.36-0.05-2.09,1.25-3.23,1.72c0-0.01,0.01-0.01,0.01-0.02c-0.08-0.09-0.16-0.17-0.23-0.26
				c-0.09-0.12-0.19-0.23-0.31-0.35c0.31-0.83,0.57-1.66,0.88-2.49c0,0,0,0,0,0c1.79-4.04,3.24-8.18,4.42-12.41
				c1.34-4.79,2.34-9.7,3.06-14.78c-0.99,0.2-1.53,0.76-2.05,1.25c-0.44,0.41-0.85,0.77-1.5,0.81c-0.02-0.13-0.02-0.25-0.03-0.37
				c-0.15-2.17,1.14-4.01,1.44-6.03c0.26-1.88,1.52-4.34,0.1-5.33c-0.95-0.65-2-0.08-3.04,0.67c-0.38,0.27-0.76,0.57-1.13,0.84
				c-0.23,0.17-0.47,0.33-0.69,0.47c-0.11,0.07-0.29,0.04-0.52,0.01c-0.06-0.01-0.12-0.02-0.18-0.03c-0.06-0.01-0.12-0.02-0.19-0.03
				c0.16-5.02,2.61-9.77,1.99-15.2c0,0-0.01,0.01-0.01,0.01c0-0.01,0-0.01,0-0.02c-2.5,1.78-4.32,3.97-6.47,6.37
				c-0.5,0.55-1.01,1.11-1.55,1.67c0-7.49,0-14.17,0-21.47c0,0-0.01,0.01-0.01,0.01v-0.01c-0.56,0.74-1.06,1.48-1.52,2.2
				c-0.01,0.01-0.02,0.03-0.03,0.05c-0.95,1.48-1.77,2.92-2.75,4.25c-0.49,0.66-1.03,1.29-1.64,1.89c-1.2-6.45-2.07-12.6-2.6-19.29
				c-0.01,0.01-0.01,0.01-0.02,0.02c0-0.01,0-0.02,0-0.04c-1.28,1.11-2.16,2.32-2.89,3.57c-0.96,1.62-1.66,3.29-2.62,4.84
				c-0.11,0.18-0.22,0.35-0.34,0.53c-0.38-2.34-0.2-4.6-0.14-6.87c0.04-1.43,0.03-2.87-0.21-4.35c0,0.01-0.01,0.01-0.01,0.02
				c0-0.01,0-0.02,0-0.03c-3.55,4.96-7.11,9.93-10.97,15.31c-0.13-0.74-0.18-1.44-0.2-2.14c-0.02-1.7,0.25-3.3,0.52-5.06
				c0.11-0.67,0.21-1.37,0.3-2.11c0,0.01-0.01,0.01-0.01,0.02c0-0.01,0-0.01,0-0.02c-0.16,0.23-0.3,0.45-0.45,0.68
				c-0.11,0.16-0.21,0.32-0.31,0.48c-2.87,4.41-4.77,8.76-8.22,12.2c-0.49-1.59,0.16-3.07-0.4-4.53c-0.08-0.21-0.18-0.42-0.32-0.63
				c-0.63,0.72-1.25,1.44-1.87,2.15c-2.11,2.42-4.2,4.82-6.28,7.23c-1.64,1.89-3.29,3.78-4.95,5.7c-1.05-2.12,0.3-4.31-1.46-6.15
				c0,0-0.01,0.01-0.01,0.01c0,0,0,0,0,0c-0.21,0.32-0.42,0.62-0.63,0.94c-3.15,4.67-6.19,9.18-9.3,13.79
				c-0.04-0.06-0.06-0.11-0.09-0.16c-0.61-1.09-0.01-2.12-1.01-2.96c-2.04,2.19-4.23,4.23-5.07,7.31c-2.56,2.4-3.29,5.96-5.33,8.99
				c-0.89-3.34,0.1-6.64-1.15-10.19c-1.46,3.66-2.66,6.79-3.92,9.87c-3.71,9.25-7.42,18.44-11.29,28c-1.31-1.72-0.68-3.45-1.31-5.49
				c-6.17,11.39-10.03,22.94-13.17,35.48c-1.31-3.34-2.4-6.01-3.81-9.61c-1.52,11.6-2.87,22.05-4.39,33.49
				c-1.2-2.61-0.99-4.6-2.51-6.69c-1.15,8.46-2.14,16.35-2.35,24.4c-1.1-2.46-2.25-4.96-3.34-7.42c-0.26,0.05-0.47,0.16-0.73,0.21
				v25.92c-1.04-0.52-0.78-1.72-1.99-1.99c1.62,11.91,3.76,23.67,4.44,35.95c-2.14-0.94-2.09-3.08-3.97-3.87
				c1.52,5.43,3.24,10.4,4.34,15.52c0.89,4.02,2.82,7.68,2.4,12.12c-0.05,0.57-0.16,1.15-0.26,1.78c-0.68,3.19,1.25,7.26,2.25,10.87
				c0.94,3.45,2.98,6.64,3.08,10.4c-1.1,0-1.15-1.41-2.19-1.15c-0.05-0.31-0.1-0.63-0.52-0.47c0.1,0.26,0.21,0.47,0.31,0.68
				c-0.05,1.31,0.78,2.19,1.31,3.19c3.55,6.74,7.11,13.48,10.66,20.22c0.1,0.16,0,0.37,0,0.57c-0.89,0.31-1.67-0.78-2.87-0.05
				c4.96,10.19,11.96,18.86,19.8,26.91c-1.2,1.41-2.93,0.42-4.18,1.52c3.87,3.97,7.63,7.94,12.12,11.13c2.61,2.4,5.43,4.6,8.46,6.53
				c2.14,1.93,4.44,3.71,7.16,4.86c6.37,4.7,13.32,8.57,20.43,12.12c1.25,0.84,0.89,1.88,0.47,3.08c-0.78,2.19-1.31,4.44-2.04,7.21
				c1.1-0.68,1.67-1.04,2.72-1.67c-2.19,8.93-5.85,16.98-7.42,25.65c1.93,0.21,1.78-2.04,3.4-1.62c1.62,6.22-1.46,12.23-1.05,18.44
				c4.28-1.2,4.28-1.15,3.34,2.77c-0.16,0.68-0.52,1.52-0.31,2.04c2.35,5.64,1.62,11.49,1.2,17.35c-0.57,2.51-1.15,4.96-1.72,7.47
				c1.52-0.05,1.99-1.88,3.61-1.52c0,1.1,0,2.14,0.05,3.19c0.05,6.95-2.66,13.27-4.44,19.8c-4.86,13.32-12.02,25.34-21.11,36.26
				c-6.37,7.63-9.04,16.51-8.15,26.49c0.89,10.29,1.67,20.59,2.61,30.88c0.63,6.74,0.52,13.58,2.09,20.22
				c-0.21,1.83-0.05,3.66,0.31,5.43c-0.47,4.23,1.04,8.1,2.46,11.91c2.35,6.27,6.58,10.82,13.53,12.02
				c10.66,1.83,21.47,1.83,32.24,1.78c2.3,0,3.61-1.72,4.34-3.61c2.87-7.68-2.87-17.92-10.97-18.76c-4.6-0.47-7.11-2.3-7.94-6.64
				c0.1-1.2,0.26-2.35,0.42-3.45c0.05-0.31,0.1-0.68,0.16-0.99c0.04-0.27,0.07-0.56,0.11-0.84c1.25-7.8,3.4-13.34,6.64-25.41
				c0.06-0.22,0.13-0.44,0.2-0.67c0.06-0.29,0.14-0.59,0.21-0.89c0.18-0.69,0.36-1.39,0.55-2.12l0.02-0.02c0-0.1,0.05-0.16,0.05-0.26
				c0-0.05,0-0.16,0.05-0.21c1.1,0.47,0.52,1.57,0.94,2.35c0.1,0.37,0.21,1.1,0.37,1.15c0.73,0.16,0.94-0.52,1.15-1.04
				c1.93-1.72,2.4-4.44,4.34-6.48c0.31,1.04,0.52,1.83,0.84,2.72c2.98-2.19,5.33-4.86,7.73-7.47c0.21-0.26,0.47-0.47,0.68-0.73
				c0.42-0.42,0.78-0.78,1.15-1.2c0.16-0.16,0.31-0.31,0.47-0.47c0.1-0.1,0.21-0.21,0.31-0.31c0.1-0.1,0.21-0.21,0.31-0.31
				c0.05-0.05,0.16-0.1,0.21-0.21c0.42-0.37,0.84-0.78,1.31-1.15c0.04,0.08,0.07,0.16,0.09,0.24c0.01,0.08,0.01,0.15,0.01,0.23
				c0.03,0.05,0.04,0.11,0.04,0.18c0,0.16-0.01,0.34-0.03,0.52c-0.01,0.01-0.01,0.02-0.02,0.03v0.16c-0.05,0.42-0.16,0.84-0.16,1.2
				c0,0.78,0.31,1.36,1.99,1.36c1.2,14.68,2.4,29.42,3.61,44.1c-0.37,3.29,0.42,6.48,1.1,9.61c1.99,8.67,5.8,15.83,15.73,17.61
				c10.45,1.88,21,1.67,31.56,1.83c1.99,0.05,3.13-1.1,4.08-2.82c3.87-7.16-1.67-18.44-10.24-19.49c-4.65-0.63-7.37-2.35-8.31-6.9
				c1.62-11.91,3.87-23.72,8.93-35.16c0.68,1.57,0.1,2.98,1.05,4.08c2.56-2.09,3.24-5.28,5.33-7.84c0.31,1.2,0.57,1.99,0.84,2.93
				c4.6-3.5,7.94-7.89,11.91-11.86c0.84,1.72-0.47,2.98,0.16,5.17c3.24-6.58,10.35-7,14.21-11.7c0.16,0.16,0.37,0.31,0.52,0.47
				c-0.21,0.94-0.99,1.83-0.31,3.19c2.46-2.19,4.91-4.18,7.11-6.43c1.57-1.62,2.46-1.52,2.98,0.94c1.72-2.72,3.4-5.02,5.38-7
				c0.63-0.63,1.1-1.72,2.19-1.46c0.99,0.31-0.52,1.88,0.94,2.25c2.56-3.08,5.12-6.17,7.94-9.51c0.73,2.98-0.26,5.33-0.42,8.57
				c5.9-6.06,11.18-11.65,15.88-17.76c4.96-0.05,7.99-4.81,12.75-5.33c1.1,1.67-0.68,3.4,0,5.28c2.72-1.31,4.44-3.92,7-5.8
				c0.57-0.47,1.25-0.84,1.93-1.2c-0.05,0.37-0.1,0.73-0.21,1.04c-0.09,0.54-0.18,1.06-0.27,1.58c-0.12,0.67-0.23,1.31-0.34,1.93
				c-0.1,0.57-0.2,1.14-0.31,1.69c-0.02,0.02-0.03,0.04-0.03,0.07c-0.04,0.27-0.09,0.55-0.14,0.82c-0.04,0.23-0.09,0.46-0.13,0.68
				c-0.05,0.23-0.1,0.46-0.14,0.69c0-0.01,0.01-0.01,0.01-0.02c0,0.02-0.01,0.05-0.01,0.07c0.5-0.61,1.01-1.2,1.52-1.79
				c0.14-0.15,0.27-0.31,0.42-0.45c0-0.02,0-0.02,0-0.03c0.22-0.26,0.45-0.51,0.68-0.76c0.09-0.09,0.17-0.17,0.26-0.26
				c0.37-0.42,0.68-0.78,1.05-1.15c0.31-0.31,0.57-0.57,0.84-0.84c0.37-0.42,0.78-0.78,1.2-1.15c0.47-0.47,0.99-0.94,1.52-1.36
				c0.21-0.16,0.42-0.37,0.63-0.52c0.52-0.52,1.04-0.94,1.62-1.36c1.67-1.2,2.25-0.94,2.35,0.68c0.05,0.16,0.05,0.37,0.05,0.57
				c0.1,3.55-0.99,6.84-2.3,10.55c2.82-0.68,4.49-2.35,6.53-3.4c3.29-1.83,5.85-4.75,9.09-6.53c0.47-0.26,0.94-0.52,1.41-0.68
				c-0.16,1.04-0.68,1.93-1.15,2.87c-0.21,0.47-0.47,0.94-0.63,1.46c-0.1,0.26-0.21,0.52-0.21,0.84c-0.06,0.17-0.09,0.36-0.11,0.55
				c-0.02,0.16-0.02,0.33,0.01,0.49v0.05l0.05-0.05c0.06-0.03,0.13-0.06,0.21-0.1c0.33-0.16,0.66-0.32,0.99-0.49
				c0.04-0.02,0.07-0.04,0.11-0.05c0.48-0.24,0.95-0.48,1.42-0.73c0.41-0.22,0.81-0.44,1.24-0.67c2.61-1.46,5.17-3.13,7.63-4.96
				c0.26-0.21,0.52-0.37,0.73-0.57c0.99-0.73,1.93-1.46,2.93-2.25c0.47,2.93,0.84,5.49,1.31,8.73c2.77-3.97,5.17-7.37,7.84-11.13
				c0.94,3.24-1.25,5.33-0.84,8.1c3.45-2.35,5.85-5.49,8.78-8.41c0.16,2.46-1.41,4.02-1.62,6.22c3.76-0.47,6.48-2.46,9.14-4.65
				c0.1-0.16,0.16-0.21,0.26-0.26c0.26-0.21,0.52-0.47,0.78-0.68c0,0.05,0,0.05,0,0.05c0.05,0.26,0.16,0.47,0.21,0.63
				c0.05,0.21,0.21,0.31,0.31,0.42c0.63,0.26,1.57-0.47,2.19-0.37c-0.42,3.34-0.89,6.64-1.31,9.98c0.16,0.05,0.31,0.1,0.42,0.16
				c0.47-0.84,0.89-1.72,1.67-3.29c0.26,3.87,1.15,6.79,0.37,9.88c1.31,0.1,0.94-1.93,2.46-1.62c0,5.28,0,10.55,1.67,15.88
				c1.31-1.31,1.15-2.98,2.66-3.81c0.57,6.53,1.1,12.96,1.72,20.12c1.04-1.93,1.67-3.08,2.51-4.6c1.25,3.45,1.1,6.84,3.19,9.67
				c0.68-2.09,0.78-4.18,2.35-5.96c1.62,4.6,2.09,9.35,3.19,14.05c1.83-1.41,1.1-4.18,3.19-5.38c0.94,5.85,1.52,11.7,3.03,17.45
				c1.36-0.99,1.46-2.98,3.34-3.4c0.52,1.93,1.1,3.81,1.62,5.75c1.57-0.57,2.04-2.46,3.87-2.82c0.47,1.41,0.94,2.82,1.41,4.23
				c0.73,2.09,1.15,5.12,3.34,5.43c3.81,0.52,3.45,3.5,4.6,5.64c0.94,1.88,0.84,4.13,2.14,5.9c0.89,3.4,1.93,6.74,3.55,9.88
				c0.52,3.34,2.3,6.11,4.08,8.83c2.66,3.92,6.06,7,10.76,7.99c12.07,2.61,24.24,2.61,36.47,2.25c2.35,0,4.65-0.1,7-0.16
				c6.01-0.16,8.93-4.81,7-10.55c-2.66-7.89-8.15-12.91-16.3-13.58c-6.06-0.57-8.36-3.81-9.67-8.83c-2.4-10.4-4.44-20.85-4.02-31.61
				c10.39,13.05,20.73,26.11,31.12,39.16c0,0.02,0,0.03,0,0.05c3.58,4.56,7.08,9.18,10.7,13.71c1.2,1.51,2.41,3.02,3.64,4.5
				c1.55,1.85,3.29,3.46,5.24,4.7c1.67,1.07,3.5,1.86,5.51,2.29c1.01,0.22,2.06,0.35,3.15,0.38c10.08,0.26,20.12-0.1,30.09-1.93
				c5.23-0.96,7.81-4.53,7.94-9.16c0.02-0.69-0.01-1.4-0.09-2.13c-1.02-8.96-5.84-13.96-14.83-15.83c-5.85-1.22-11.9-2-15.77-7.39
				c-1.57-2.18-3.03-4.44-4.55-6.66c-0.01,0-0.02,0-0.03,0c-3.97-7.52-7.99-15.04-12.01-22.56c0,0,0,0,0,0
				c0.08-0.09,0.17-0.19,0.25-0.28c0.07-0.07,0.13-0.14,0.2-0.22c0.05-0.06,0.11-0.12,0.16-0.18c0,0,0,0,0,0c0,0,0.01-0.01,0.01-0.01
				c0.68,0.16,2.04,1.52,1.57-0.57c-1.36-6.27-4.49-11.91-5.33-18.55c-0.78-6.32-4.08-12.33-5.22-19.44c1.36,1.25,2.3,2.14,3.71,3.4
				c-0.37-5.64-0.68-10.66-0.94-15.67c1.67-0.05,1.88,1.99,3.61,1.78c-2.51-14.47-2.72-29-0.94-43.52c0.23-0.53,0.38-1.12,0.62-1.66
				c0.09-0.2,0.19-0.39,0.31-0.57c2.65-3.89,5.08-7.9,7.36-12c1.67-2.99,3.25-6.03,4.77-9.1c0.65-1.3,1.29-2.61,1.91-3.93
				c0.15-0.31,0.27-0.64,0.43-0.94c0.01-0.01,0.01-0.02,0.02-0.04c0.27-0.48,0.64-0.85,1.4-0.81c0.12,0.44,0.09,1.08,0.37,1.28
				c0,0,0,0,0,0c0,0,0,0,0,0c0,0,0,0.01,0,0.01c0.41,0.28,0.65,0.26,0.8,0.11c0.25-0.24,0.25-0.83,0.35-1.06
				c0.11-0.23,0.22-0.47,0.33-0.71c0.8-1.66,1.58-3.34,2.36-5.02c0.78-1.69,1.57-3.37,2.37-5.04c0.02-0.04,0.04-0.1,0.06-0.15
				c0.07-0.22,0.13-0.52,0.21-0.81c0.21-0.79,0.57-1.44,1.72,0.29c0.03,0.05,0.07,0.06,0.12,0.06c0.13,0,0.3-0.24,0.45-0.58
				c0.13-0.29,0.24-0.63,0.29-0.95c0.02-0.12,0.03-0.23,0.04-0.33c1-2.62,1.98-5.26,3.02-7.86c0.11-0.27,0.24-0.72,0.42-1.04
				c0.07-0.13,0.15-0.24,0.24-0.31c0.12-0.1,0.26-0.12,0.42,0.01c0.72,0.59,1.17,0.74,1.47,0.64c0.66-0.19,0.55-1.59,0.84-2.03
				c0.7-1.22,1.05-2.6,1.55-3.96c0.36-0.96,0.79-1.91,1.49-2.77c0.12,0.15,0.22,0.29,0.33,0.43c0.23,0.3,0.46,0.6,0.69,0.89
				c0.2,0.26,0.4,0.51,0.6,0.78c0.18,0.23,0.36,0.47,0.56,0.73c0.62-1.68,1.14-3.24,1.69-4.74c0.34-0.92,0.69-1.81,1.08-2.69
				c0.51-1.19,0.91-2.1,1.27-2.76c0.44-0.81,0.82-1.24,1.24-1.28c0.77-0.06,1.72,1.13,3.6,3.47c0-0.01,0-0.01,0.01-0.02
				c0,0,0,0,0,0.01c1.35-3.53,2.64-6.88,4.02-10.47c0.13,0.25,0.24,0.49,0.35,0.72c0.37,0.81,0.69,1.51,1.08,2.37
				c0-0.01,0.01-0.02,0.01-0.03c0,0,0,0.01,0,0.01c1.46-3.81,2.82-7.3,4.12-10.74c1.6,0.59,0.55,2.59,2.18,3.79c0-0.01,0-0.01,0-0.02
				c0.01,0,0.01,0.01,0.02,0.02c1.15-3.51,2.25-6.9,3.34-10.25c0.9-2.73,1.78-5.43,2.67-8.13c0.13,0.06,0.24,0.13,0.34,0.21
				c0.53,0.44,0.69,1.09,1.17,1.5c0.05,0.04,0.11,0.07,0.17,0.11c0.04,0.03,0.08,0.06,0.13,0.08c0.13,0.06,0.27,0.11,0.45,0.14
				c0.17-3.24,0.21-6.41,1.03-9.47c0.01-0.01,0.02-0.03,0.03-0.04c0.12-0.12,0.22-0.25,0.31-0.38c0.06-0.08,0.13-0.16,0.19-0.23
				c0.97,0.52,1.61,1.61,2.66,2.11c0.41,0.2,0.88,0.32,1.45,0.27c0-0.01,0-0.01,0-0.02c0,0,0,0,0,0c0-0.05-0.01-0.1-0.01-0.15
				c-0.01-0.32-0.03-0.64-0.06-0.96c0-0.04-0.01-0.07-0.01-0.11c-0.09-0.82-0.24-1.63-0.4-2.43c-0.05-0.26-0.1-0.52-0.15-0.78
				c-0.01-0.04-0.02-0.09-0.02-0.13c-0.06-0.35-0.12-0.7-0.17-1.05c0-0.03-0.01-0.05-0.01-0.08c-0.05-0.32-0.08-0.65-0.1-0.97
				c-0.01-0.08-0.01-0.16-0.02-0.24c-0.01-0.25-0.02-0.51-0.01-0.76c0-0.19,0.01-0.38,0.03-0.56c0.01-0.14,0.03-0.28,0.04-0.41
				c0.02-0.14,0.04-0.28,0.06-0.42c0.07-0.47-0.21-1.34-0.18-1.98c0.03-0.72,0.46-1.13,2.23-0.35c0.68,0.3,0.58-0.78,0.59-1.3
				c0.05-1.41,0.05-2.82,0.05-4.24c0-1.1,0.01-1.93,0.07-2.53c0.21-1.79,0.94-1.49,3.88-0.27c0.09,0.05,0.3-0.14,0.52-0.33
				c0.03-0.02,0.06-0.05,0.1-0.07c0,0,0,0,0-0.01c0,0,0.01-0.01,0.01-0.01c-1.04-3.61-2.21-7.23-2.99-11.09
				c-0.35-1.78-0.63-3.6-0.76-5.52C550.03,289.03,550.71,289.5,551.39,289.99z"/>
			<path class="st56" d="M108.88,149.4c0.13-0.07,0.27-0.13,0.4-0.2c-0.13-0.05-0.26-0.11-0.39-0.16
				C108.89,149.15,108.89,149.28,108.88,149.4C108.88,149.4,108.88,149.4,108.88,149.4C108.88,149.4,108.88,149.4,108.88,149.4z"/>
			<path class="st56" d="M28.93,275.69c-0.16-0.05-0.31-0.16-0.47-0.21c-0.05,0-0.1,0.16-0.21,0.21c0.16,0.1,0.31,0.16,0.42,0.26
				C28.77,275.85,28.82,275.8,28.93,275.69z"/>
			<path class="st56" d="M439.29,189.43c0.1,0.1,0.21,0.16,0.31,0.26c0-0.1-0.05-0.26-0.05-0.31
				C439.44,189.38,439.34,189.38,439.29,189.43z"/>
			<path class="st56" d="M439.6,189.69c0,0.05,0,0.05,0,0.1c0,0,0.05,0,0.1,0l-0.05-0.05L439.6,189.69z"/>
		</g>
	</g>
</svg>
