<?xml version="1.0" encoding="utf-8"?>
<!-- Generator: Adobe Illustrator 24.0.1, SVG Export Plug-In . SVG Version: 6.00 Build 0)  -->
<svg version="1.1" xmlns="http://www.w3.org/2000/svg" xmlns:xlink="http://www.w3.org/1999/xlink" x="0px" y="0px"
	 viewBox="0 0 459 460" style="enable-background:new 0 0 459 460;" xml:space="preserve">
	<style type="text/css">
		
	</style>
	<g id="Logo_CIPA">
		<path class="st4" d="M445.82,69.54c-0.55,2.91-1.06,5.82-1.65,8.72c-1.12,5.54-1.44,11.27-3.88,16.5
			c-2.61,5.59-6.46,9.55-13.02,9.94c-7.7,1.55-39.03-7.14-39.03-7.14c-2.2,0.26-3.32,1.36-4.39,3.01c-1.79,2.79-2.69,5.89-3,9.11
			c-0.66,6.94-1.27,13.9-1.61,20.86c-0.52,10.41-0.48,20.82,0.61,31.2c0.69,6.49,1.66,12.98,1.92,19.49
			c0.39,9.51,0.29,19.04,0.33,28.56c0.01,1.93,0,3.94-0.49,5.78c-2.25,8.31-5.34,16.34-8.47,24.36c-1.87,4.8-4.48,9.21-7.7,13.24
			c-1.85,2.31-3.94,4.44-5.66,6.84c-2.98,4.16-3.9,9.13-4.51,14.03c-1.01,8.09-1.64,16.24-2.36,24.37c-0.5,5.6-0.95,11.21-1.32,16.82
			c-0.78,11.92-1.59,23.85-2.21,35.78c-0.38,7.44-0.45,14.9-0.62,22.35c-0.16,6.96-1.11,13.89-0.4,20.9
			c0.61,5.99,3.02,9.62,9.09,11.82c1.95,0.71,3.94,1.63,4.04,4.29c0.02,0.5,0.65,0.95,0.94,1.46c1.18,2.09,2.41,4.16,3.47,6.31
			c0.57,1.15,0.14,2.08-1.22,2.43c-2.77,0.71-5.52,1.52-8.41,0.49c-0.49-0.18-1.06-0.14-1.98-0.24c1.12,2.02,1.81,3.85,3,5.25
			c2.15,2.54,2.27,5.48,2.37,8.61c-0.46,0.05-0.87,0.13-1.29,0.14c-8.6,0.11-17.2,0.28-25.8,0.28c-4.74,0-4.52-0.06-4.99-4.46
			c-1.11-10.31-2.3-20.62-3.65-30.9c-0.51-3.86-0.98-7.82-3.64-11.05c-0.55-0.67-0.84-1.66-0.97-2.54c-0.35-2.4-0.73-4.83-0.79-7.25
			c-0.26-10.71-0.47-21.42-0.58-32.13c-0.2-18.44-0.25-36.9-3.42-55.15c-0.85-4.91-2.5-9.69-3.84-14.51
			c-0.43-1.56-1.59-2.41-3.2-2.55c-2.05-0.17-4.1-0.36-6.15-0.43c-9.07-0.28-18.15-0.2-26.98-2.91c-3.8-1.17-7.78-1.72-11.65-2.68
			c-8.76-2.18-17.19-5.32-25.56-8.67c-6.83-2.73-13.73-5.28-20.52-8.11c-4.07-1.7-7.93-3.9-11.99-5.64
			c-3.45-1.47-7.01-2.71-10.6-3.81c-0.93-0.29-2.33,0.01-3.17,0.56c-3.2,2.13-4.94,5.38-5.12,9.1c-0.2,3.97-0.03,8.02,0.52,11.96
			c1.09,7.7,0.38,15.2-1.71,22.61c-1.17,4.16-2.59,8.19-5.46,11.61c-3.32,3.95-6.4,8.1-9.62,12.14c-5.27,6.61-9.76,13.79-15.57,20.02
			c-7.05,7.57-13.78,15.45-20.53,23.3c-2.08,2.42-4.62,4.73-4.99,8.14c-0.32,2.94-0.45,5.93-0.28,8.88c0.29,5.02,2.48,9.56,4.17,14.2
			c1.19,3.28,2.41,6.55,3.8,9.74c0.55,1.26,1.54,2.33,2.4,3.43c2.16,2.76,4.35,5.46,7.75,6.89c0.97,0.41,1.82,1.36,2.45,2.26
			c1.36,1.93,2.56,3.97,3.8,5.98c1.02,1.66,0.43,4.61-1.05,4.93c-2.3,0.5-4.62,0.98-6.96,1.2c-2.42,0.22-4.87,0.21-7.3,0.14
			c-3.46-0.09-6.91-0.31-10.36-0.49c-0.85-0.04-1.12-0.39-1.07-1.36c0.06-1.2-0.13-2.5-0.57-3.61c-3.27-8.15-6.56-16.29-9.98-24.38
			c-2.14-5.06-4.33-10.11-6.82-15c-1.93-3.79-4.38-7.3-6.54-10.97c-2.42-4.11-4.18-8.37-3.46-13.36c0.62-4.27,1.76-7.94,5.89-10.34
			c4.3-2.49,8.45-5.32,12.36-8.39c2.72-2.15,5-4.89,7.32-7.5c1.39-1.55,2.24-3.66,3.79-4.98c2.17-1.85,3.43-4.12,4.31-6.68
			c2.31-6.71,2.73-13.63,2.19-20.64c-0.19-2.5-0.62-4.97-0.93-7.46c-0.97,0.96-1.58,2.01-2.21,3.05c-0.83,1.38-1.67,2.77-2.53,4.14
			c-1.53,2.46-3.21,4.83-4.56,7.38c-2.27,4.28-4.03,8.85-6.55,12.97c-2.69,4.39-5.8,8.57-9.13,12.5
			c-5.37,6.32-10.98,12.45-16.67,18.49c-6.39,6.77-13.23,13.13-19.43,20.06c-7.7,8.61-14.56,17.83-16.25,29.79
			c-0.17,1.23-0.42,2.45-0.71,3.66c-1.51,6.29-2.04,12.67-2.08,19.12c-0.02,3.59,1.51,6.13,4.42,8.1c1.21,0.82,2.32,1.94,3.15,3.16
			c1.11,1.64,2.1,3.42,2.77,5.27c0.61,1.67,0.79,3.52,1.03,5.3c0.05,0.34-0.43,0.97-0.8,1.11c-2.51,0.93-5.05,1.77-7.58,2.64
			c-2.81,0-5.63,0-8.44,0c-2.16-0.44-4.32-0.82-6.46-1.32c-3.23-0.76-5.19-2.71-6.03-6.02c-1.44-5.69-2.69-11.39-1.81-17.28
			c0.35-2.39,1.28-4.69,1.68-7.08c1.76-10.33,3.46-20.67,3.5-31.21c0.02-5.67,0-11.36,0.41-17c0.23-3.13,1.23-6.22,2.04-9.29
			c0.47-1.78,1.77-2.79,3.45-3.74c3.04-1.7,5.86-3.83,8.62-5.98c9-7,14.82-16.2,18.42-26.92c4.07-12.11,5.63-24.61,5.81-37.3
			c0.17-11.74,0.26-23.47,0.2-35.21c-0.03-4.58-0.58-9.17-0.91-13.75c-0.04-0.52-0.22-1.02-0.33-1.54c-0.15-0.01-0.29-0.01-0.44-0.02
			c-0.29,1.67-0.68,3.33-0.84,5.01c-0.48,4.95-0.64,9.94-1.34,14.86c-1.23,8.7-2.58,17.4-4.25,26.03c-1.08,5.6-2.73,11.1-4.27,16.6
			c-2.21,7.87-5.37,15.36-9.72,22.3c-4.51,7.18-9.77,13.72-17.15,18.18c-3.9,2.36-8.09,4.1-12.56,5.04c-0.64,0.13-1.36-0.13-2.04-0.2
			c0-0.22,0-0.43,0-0.65c5.65-2.59,9.31-7.24,12.53-12.28c3.97-6.21,8.15-12.34,11.63-18.82c4.46-8.3,7.11-17.36,8.9-26.58
			c1.62-8.37,2.66-16.86,3.93-25.3c1.8-11.91,3.28-23.87,5.5-35.7c1.22-6.47,3.23-12.89,5.72-19c1.61-3.95,4.54-7.43,7.21-10.86
			c4.2-5.4,9.41-9.77,15.05-13.61c7.76-5.29,15.95-9.72,25.34-11.36c7.33-1.29,14.65-3.07,22.04-3.55
			c10.02-0.66,20.11-0.33,30.18-0.34c13.53-0.02,27.05,0.15,40.58,0.02c4.25-0.04,8.49-0.83,12.75-1.13
			c3.51-0.25,7.03-0.22,10.54-0.42c10.03-0.59,20.12-1,29.93-3.31c4.26-1,8.36-2.87,12.4-4.63c3.85-1.68,7.63-3.57,11.24-5.7
			c1.85-1.09,3.38-2.8,4.87-4.4c5.29-5.7,10.08-11.78,14.11-18.45c3.83-6.35,7.07-12.99,9.45-20c4.07-12.01,8.23-23.99,13.94-35.32
			c2-3.96,4.89-7.47,7.49-11.11c1.34-1.87,2.6-3.66,2.66-6.1c0.06-2.67,1.56-4.88,2.56-7.26c0,0,2.45-8.71,7.36-11.3s13.35,0,13.35,0
			c1.37,0.82,2.69,1.75,4.12,2.43c1.39,0.66,2.88,1.34,4.38,1.5c8.25,0.87,16.06,3.29,23.57,6.64c4.71,2.1,7.92,5.75,9.83,10.61
			c1.33,3.39,3.31,6.09,7.27,7.15c6.14,1.63,12.15,3.76,18.22,5.63c4.47,1.38,6.83,1.99,11.32,3.33
			C443.69,65.27,447.62,65.43,445.82,69.54z"/>
	</g>
</svg>
