<?xml version="1.0" encoding="utf-8"?>
<!-- Generator: Adobe Illustrator 24.0.1, SVG Export Plug-In . SVG Version: 6.00 Build 0)  -->
<svg version="1.1" xmlns="http://www.w3.org/2000/svg" xmlns:xlink="http://www.w3.org/1999/xlink" x="0px" y="0px"
	 viewBox="0 0 565 377" style="enable-background:new 0 0 565 377;" xml:space="preserve">
	<style type="text/css">
		.st4{fill:#EF6B01;}
		.st4:hover{fill:#33811c;}
	</style>
	<g>
		<path class="st4" d="M540.95,68.28c-4.31,7.22-5.83,16.14-13.14,21.54c-0.74,0.55-1.34,1.29-2.08,1.86
			c-4.46,3.41-24.35,7.48-29.92,6.16c-13.39-3.19-18.87-0.95-25.31,11.4c-5.54,10.62-10.16,21.73-15.83,32.28
			c-3.31,6.16-8.13,11.49-11.75,17.5c-1.49,2.47-1.8,5.71-2.31,8.67c-0.3,1.75,0.03,3.61,0.13,5.41c0.37,6.69-1.8,12.01-7.11,16.5
			c-2.15,1.82-2.38,5.75-3.91,8.49c-3.9,6.96-7.02,14.71-12.28,20.48c-12.86,14.13-18.93,30.39-19.7,49.23
			c-0.36,8.87-2.33,17.67-2.9,26.54c-0.29,4.51,0.56,9.19,1.54,13.64c0.92,4.18,3.25,6.6,8.46,5.75c5.5-0.89,13.95,7.2,14.27,12.72
			c0.16,2.74-0.37,4.6-3.81,4.78c-5.86,0.31-11.7,1.06-17.93,1.66c1.08,2.48,1.99,5.92,3.94,8.6c1.38,1.9,4.04,3.51,6.37,3.95
			c4.53,0.84,13.89,8.22,14.46,12.64c0.15,1.14-0.8,3.16-1.75,3.55c-3.18,1.31-6.54,2.63-9.91,2.9
			c-5.74,0.46-11.54,0.26-17.31,0.09c-4.53-0.13-6.11-2.42-8.05-7.04c-3.78-9-3.42-20.15-12.9-26.73c-2.22-1.54-3.5-6.3-3.16-9.35
			c2.41-21.63,0.31-43.09-1.68-64.57c-0.54-5.86-1.27-11.72-2.32-17.5c-0.24-1.32-2.16-3.35-3.29-3.34
			c-16.49,0.17-31.67-5.28-47.17-9.9c-22.16-6.6-44.65-12.07-66.99-18.05c-2.6-0.7-5.15-1.56-8.4-2.56
			c-30.23-13.83-33.14,7.32-33.14,7.32c-2.89,8.2-5.43,16.53-8.53,24.65c-1.9,4.99-3.89,10.19-7.02,14.42
			c-8.38,11.33-17.73,21.95-26.04,33.32c-4.53,6.2-8.91,13-11.24,20.21c-2.75,8.49-1.38,11.64,7.92,11.96
			c6.05,0.2,9.59,3.41,12.28,8.18c2.9,5.13,0.89,8.98-4.88,9.15c-5.96,0.17-11.93,0.04-18.24,0.04c0.08,1.18,0.19,3.35,0.38,5.52
			c0.48,5.38,2.66,8.78,8.71,9.56c7.12,0.92,14.75,9.9,14.78,15.83c0.02,3.27-1.31,4.23-4.29,4.24
			c-6.88,0.01-13.76,0.25-20.64,0.27c-6.07,0.02-8.68-2.35-9.82-8.34c-3.57-18.74-7.25-37.47-10.77-56.22
			c-1.14-6.06-0.77-11.89,4.16-16.51c2.16-2.03,2.3-3.89,1.53-7.17c-1.47-6.22-1.66-12.88,2.77-18.65
			c3.62-4.71,7.13-9.54,10.21-14.61c3.09-5.09,3.79-10.16,0.64-16.13c-2.71-5.15-5.04-11.59-4.39-17.09
			c0.5-4.26,1.53-8.18-0.02-12.28c-0.77-2.04-2.35-3.81-2.95-5.88c-5.59-19.39-2.59-37.21,9.7-53.45
			c3.88-5.13,1.83-10.14-4.65-12.65c-21.43-8.32-42.86-16.62-64.31-24.9c-6.84-2.64-13.04-5.87-17.27-12.41
			c-2.4-3.71-6.29-6.41-9.13-9.88c-1.68-2.04-2.62-4.68-3.89-7.06c-0.52-0.97-0.78-2.46-1.57-2.83c-3.41-1.57-3.09-4.85-4.37-7.56
			c-4.85-10.26-4.62-21.34-6.53-32.07c-0.13-0.71-0.56-1.36-0.85-2.04c0-7.08-0.07-14.17,0.1-21.25c0.02-0.76,1.39-1.49,2.14-2.24
			c2.43,2.73,4.9,5.42,7.28,8.19c2.65,3.07,5.8,5.88,7.7,9.37c3.9,7.14,7.79,14.41,10.47,22.06c8.63,24.63,27.04,38.5,50.59,46.42
			c15.26,5.14,30.84,9.44,46.47,13.3c5.73,1.41,12.21,1.45,18.06,0.42c15.77-2.78,31.43-5.49,47.55-3.69
			c17.35,1.94,34.71,3.93,52.11,5.21c16.67,1.23,33.35,1.99,49.62-4.01c6.83-2.52,14.29-3.81,21.58-4.52
			c13.08-1.28,24.88-5.44,33.83-15.04c13.05-13.99,25.04-28.97,38.14-42.91c5.72-6.08,12.36-12.33,19.86-15.49
			c16.12-6.79,32.14-1.12,47.48,4.55c3.22,1.19,7.1,5.7,7.28,8.88c0.35,6.05,3.3,8.18,8.14,9.4c3.95,0.99,8.03,1.52,11.91,2.73
			c7.67,2.39,15.24,5.11,22.85,7.7C540.95,61.57,543.86,61.91,540.95,68.28z"/>
	</g>
</svg>
