<?xml version="1.0" encoding="utf-8"?>
<!-- Generator: Adobe Illustrator 24.0.1, SVG Export Plug-In . SVG Version: 6.00 Build 0)  -->
<svg version="1.1" xmlns="http://www.w3.org/2000/svg" xmlns:xlink="http://www.w3.org/1999/xlink" x="0px" y="0px"
	 viewBox="0 0 452 521" style="enable-background:new 0 0 452 521;" xml:space="preserve">
	<style type="text/css">
		.st18{fill:#671D6A;}
	</style>
	<g id="Logo_CIPA">
		<path class="st18" d="M32.84,432.79c3.11-9.62,10.48-18.19,16.08-27.23c4.74-7.68,8.21-15.72,10.84-23.9
			c2.38-7.24,4.08-14.58,5.54-21.85c1.94-9.87,2.47-18.63,4.46-31.05c-1-2.38-1.86-4.82-2.69-7.24
			c-14.97-43.08-25.31-87.78-30.89-133.02c0-0.03,0-0.03-0.03-0.06c-4.82-39.26-6.07-78.96-3.69-118.44
			c0.64-10.4,1.52-20.82,3.44-31.08c1.55-8.37,3.77-16.58,6.65-24.56c0.94-2.63,2.16-5.46,4.63-6.74c3.77-1.94,8.54,0.86,10.29,4.71
			c1.72,3.83,1.3,8.26,0.86,12.45c-3.05,30.03-3.66,60.27-1.8,90.38c2.66,44.05,10.56,87.78,23.51,129.97
			c2.11,6.79,4.57,13.95,10.09,18.46c3.19,2.63,6.99,4.02,11.03,4.71c0,0,0.03,0,0.06,0c29.55-9.7,61.22-11.59,92.35-10.2
			c32.22,1.44,64.18,6.29,96.32,9.18c6.02,0.53,12.59,0.86,17.55-2.58c3.27-2.25,5.32-5.79,7.26-9.23
			c4.8-8.62,9.34-17.36,13.64-26.23v-0.03c-0.08-1.86-0.03-3.72,0.11-5.57c0.03-0.25,0.06-0.53,0.08-0.78
			c0.86-8.4,3.77-16.44,6.82-24.34c0.69-1.89,1.44-3.77,2.41-5.57c1.28-2.36,2.97-4.49,4.96-6.29c0,0,0.01,0,0.01-0.01
			c1.98-8.73,2.98-17.76,5.51-26.34c0.55-1.91,1.17-3.8,1.92-5.66c0.61-1.51,1.41-3.14,2.9-3.82c2.52,4.78,4.91,9.63,7.2,14.52
			c0.91-4.18,2.01-8.31,3.6-12.28c0.61-1.52,1.4-3.15,2.89-3.83c4.68,8.91,8.94,18.03,12.78,27.33h0.01c1.86,0.08,3.72,0.3,5.55,0.67
			c3.96,0.8,7.82,2.25,11.28,4.3c0.08,0.06,0.14,0.08,0.22,0.14c8.15,4.91,14,13.09,22.15,18.05c4.05,2.44,8.57,4.08,12.53,6.65
			c1.41,0.91,2.74,2.02,3.91,3.27h0.03c0.44,0.47,0.89,0.97,1.25,1.5c1.47,1.91,2.44,4.13,2.61,6.54c0.08,1.33-0.11,2.69-0.3,4.05
			c-0.08,0.67-0.19,1.33-0.3,2c-0.03,0.22-0.08,0.47-0.11,0.69c-0.55,3.41-1.3,6.88-2.58,10.01l-0.03,0.03
			c-1.28,3.22-3.13,6.1-5.85,8.26c-2.77,2.19-6.18,3.44-9.54,4.55c-9.62,3.27-19.41,6.04-29.28,8.4c-1.14,15.75-2.33,33.38-3.47,49.1
			c-0.53,7.01-1.08,14.14-2.05,21.18v0.08c-1.47,11.09-3.91,21.96-8.71,31.77c-1.08,2.27-2.33,4.49-3.69,6.63
			c-1.14,6.21-2.3,12.37-3.44,18.55c-1.19,6.4-2.38,12.84-3.49,19.27c-3.02,17.27-5.54,34.74-6.29,52.76
			c-0.14,3.05-0.19,6.18,0.69,9.34c0.72,2.47,1.97,4.85,3.22,7.18c2.83,5.32,5.66,10.62,8.48,15.91c0.58,1.14,1.22,2.27,2.16,3.16
			c1.72,1.64,4.05,1.89,6.18,2.47c6.54,1.75,12.67,7.68,14.94,14.42c0.36,1.08,0.64,2.3,0.08,3.1c-0.5,0.69-1.44,0.83-2.36,0.89
			c-8.01,0.72-16.19,0.83-24.48,0.36c-1.86-0.08-3.77-0.25-5.6-1.11c-1.77-0.83-3.3-2.3-4.71-3.8c-5.27-5.57-9.54-12-13.75-18.38
			c-4.77-7.24-9.54-14.44-14.31-21.68c-1.36-2.05-2.74-4.16-3.91-6.32c-0.5,2.22-0.86,4.44-0.67,6.65c0.22,2.33,1,4.57,1.77,6.76
			c0.64,1.86,1.3,3.72,1.97,5.57c1.08,3.13,2.19,6.27,3.3,9.37c0.36,1.08,0.75,2.16,1.5,2.97c1.41,1.55,3.69,1.8,5.71,2.33
			c6.18,1.66,11.12,7.24,12.03,13.56c0.14,1,0.17,2.16-0.55,2.91c-0.61,0.67-1.61,0.78-2.52,0.86c-8.18,0.67-16.39,0.78-24.56,0.33
			c-1.83-0.11-3.71-0.25-5.35-1.05c-1.61-0.8-2.86-2.16-3.96-3.58c-4.16-5.21-7.13-11.28-10.04-17.27
			c-3.33-6.79-6.63-13.58-9.95-20.38c-1.41-2.94-2.86-5.91-3.49-9.09c-0.8-3.94-0.33-7.98,0.14-11.95c0.55-4.74,1.11-9.43,1.66-14.14
			c0.14-1.25,0.3-2.52,0.44-3.77c0.36-2.99,0.69-5.99,1.05-8.98c0.92-7.74,1.8-15.66,0.86-23.29c-20.9-0.69-41.59-5.99-61.91-11.39
			c-22.62-6.02-45.58-12.2-68.9-12.31c-6.71,17.41-17.08,33.41-30.33,46.52c-2.47,2.44-5.02,4.77-7.68,7.01
			c-5.99,5.02-12.59,9.68-16.5,16.44c-6.52,11.31-3.94,25.45-1.19,38.23c0.17,0.75,0.33,1.52,0.53,2.3c0.92,3.83,2.11,7.62,4.8,10.45
			c4.1,4.33,11.84,7.4,10.59,13.22c-0.94,4.41-6.46,5.74-10.95,6.18c-7.93,0.78-16.72,1.25-22.98-3.69
			c-3.27-2.58-5.3-6.21-6.79-10.18c-0.89-2.36-1.58-4.82-2.25-7.24c-3.77-13.61-7.51-27.25-11.26-40.87
			c-0.58-2.16-1.19-4.35-1.69-6.54c-7.85,10.95-8.68,24.23-9.07,36.24c-0.14,4.6-0.19,9.43,2.16,12.81
			c3.05,4.35,10.04,7.43,7.35,13.28c-2.02,4.41-6.32,5.74-10.92,6.18c-8.12,0.78-17.05,1.28-22.07-3.69
			c-4.21-4.13-4.57-11.03-4.77-17.49c-0.36-13.67-0.75-27.34-1.14-41C30.79,446.29,30.65,439.58,32.84,432.79z"/>
	</g>
</svg>
