<?xml version="1.0" encoding="utf-8"?>
<!-- Generator: Adobe Illustrator 24.0.1, SVG Export Plug-In . SVG Version: 6.00 Build 0)  -->
<svg version="1.1" xmlns="http://www.w3.org/2000/svg" xmlns:xlink="http://www.w3.org/1999/xlink" x="0px" y="0px"
	 viewBox="0 0 256 260" style="enable-background:new 0 0 256 260;" xml:space="preserve">
<style type="text/css">
	.st0{fill:none;stroke:#340238;stroke-width:6;stroke-linecap:round;stroke-linejoin:round;stroke-miterlimit:22.9256;}
	.st1{fill:none;stroke:#118DB0;stroke-width:6;stroke-linecap:round;stroke-linejoin:round;stroke-miterlimit:22.9256;}
	.st2{clip-path:url(#SVGID_2_);fill:#118DB0;}
	.st3{clip-path:url(#SVGID_2_);}
	.st4{fill:url(#SVGID_3_);}
	.st5{clip-path:url(#SVGID_2_);fill:none;}
	.st6{fill:#090609;}
	.st7{fill-rule:evenodd;clip-rule:evenodd;}
	.st8{fill-rule:evenodd;clip-rule:evenodd;fill:#80BC00;}
	.st9{clip-path:url(#SVGID_7_);}
	.st10{clip-path:url(#SVGID_7_);fill-rule:evenodd;clip-rule:evenodd;fill:#C3D82E;}
	.st11{fill-rule:evenodd;clip-rule:evenodd;fill:#FFFFFF;}
	.st12{fill:#FFFFFF;}
	.st13{fill:none;stroke:#FFFFFF;stroke-width:6.8882;stroke-miterlimit:22.9256;}
	.st14{clip-path:url(#SVGID_19_);}
	.st15{clip-path:url(#SVGID_21_);}
	.st16{fill:#118DB0;}
	.st17{fill:#B9D30E;}
	.st18{fill:#671D6A;}
	.st19{fill:#CCCCCC;}
	.st20{fill:#FAFFCF;}
	.st21{fill:none;stroke:#FAFFCF;stroke-width:6;stroke-miterlimit:10;}
	.st22{clip-path:url(#SVGID_25_);fill:#118DB0;}
	.st23{clip-path:url(#SVGID_25_);}
	.st24{fill:url(#SVGID_26_);}
	.st25{clip-path:url(#SVGID_25_);fill:none;}
	.st26{clip-path:url(#SVGID_30_);}
	.st27{clip-path:url(#SVGID_30_);fill-rule:evenodd;clip-rule:evenodd;fill:#C3D82E;}
	.st28{clip-path:url(#SVGID_42_);}
	.st29{clip-path:url(#SVGID_44_);}
	.st30{fill:#33811C;}
	.st31{clip-path:url(#SVGID_52_);}
	.st32{fill:#FF8300;}
	.st33{fill-rule:evenodd;clip-rule:evenodd;fill:#671D6A;}
	.st34{fill-rule:evenodd;clip-rule:evenodd;fill:#118DB0;}
	.st35{clip-path:url(#SVGID_56_);fill:#118DB0;}
	.st36{clip-path:url(#SVGID_56_);}
	.st37{fill:url(#SVGID_57_);}
	.st38{clip-path:url(#SVGID_56_);fill:none;}
	.st39{clip-path:url(#SVGID_61_);}
	.st40{clip-path:url(#SVGID_61_);fill-rule:evenodd;clip-rule:evenodd;fill:#C3D82E;}
	.st41{clip-path:url(#SVGID_73_);}
	.st42{clip-path:url(#SVGID_75_);}
	.st43{clip-path:url(#SVGID_79_);fill:#118DB0;}
	.st44{clip-path:url(#SVGID_79_);}
	.st45{fill:url(#SVGID_80_);}
	.st46{clip-path:url(#SVGID_79_);fill:none;}
	.st47{clip-path:url(#SVGID_84_);}
	.st48{clip-path:url(#SVGID_84_);fill-rule:evenodd;clip-rule:evenodd;fill:#C3D82E;}
	.st49{clip-path:url(#SVGID_96_);}
	.st50{clip-path:url(#SVGID_98_);}
	.st51{clip-path:url(#SVGID_102_);}
	.st52{fill:url(#SVGID_105_);}
	.st53{opacity:0.05;fill:#118DB0;}
	.st54{fill:none;stroke:#671D6A;stroke-width:6;stroke-linecap:round;stroke-linejoin:round;stroke-miterlimit:22.9256;}
	.st55{fill:none;stroke:#606060;stroke-width:4;stroke-miterlimit:10;}
	.st56{clip-path:url(#SVGID_107_);fill:#118DB0;}
	.st57{clip-path:url(#SVGID_107_);}
	.st58{fill:url(#SVGID_108_);}
	.st59{clip-path:url(#SVGID_107_);fill:none;}
	.st60{clip-path:url(#SVGID_112_);}
	.st61{clip-path:url(#SVGID_112_);fill-rule:evenodd;clip-rule:evenodd;fill:#C3D82E;}
	.st62{clip-path:url(#SVGID_124_);}
	.st63{clip-path:url(#SVGID_126_);}
</style>
<g id="Fondo_1_">
</g>
<g id="Divisor">
</g>
<g id="Bulto_cuido">
</g>
<g id="Imagen_Mojarras">
</g>
<g id="Imagen_Truchas">
</g>
<g id="Banner">
</g>
<g id="Imagen_Tilapias">
</g>
<g id="Estimado_txt">
</g>
<g id="titulo_recomendado">
</g>
<g id="txt_cuido">
</g>
<g id="Boton_estimado">
</g>
<g id="Sacos_txt">
</g>
<g id="Boton_N_saco">
</g>
<g id="Botón_Descarga">
</g>
<g id="Footer">
</g>
<g id="Boton_Simular">
</g>
<g id="LOGO">
</g>
<g id="Botón_1">
</g>
<g id="Botón_2">
</g>
<g id="Botón_3">
</g>
<g id="Cantidad_de_peces">
</g>
<g id="Días_de_cultivo">
</g>
<g id="Temperatura_Agua">
</g>
<g id="Texto_Mojarras">
</g>
<g id="Menu">
</g>
<g id="Logo_CIPA">
	<g>
		<path class="st16" d="M27.06,48.85c0.6,1.43,1.18,2.87,1.76,4.32c3.08,7.72,5.99,15.55,10.7,22.36
			c9.6,13.93,26.74,22.1,43.58,21.5c0.27-0.2,0.53-0.37,0.8-0.55c8.93-5.83,20.05-7,29.89-11.1c6.21-2.58,11.86-6.31,17.77-9.51
			c0.19-1.87,0.43-3.75,0.78-5.61c0.07-0.44,0.16-0.89,0.25-1.33c0.79-3.88,1.98-7.7,3.58-11.33c-3.57-8.22-5.05-17.35-6.38-26.28
			c-0.57-3.81-1.13-7.67-0.82-11.51c0.31-3.84,1.57-7.73,4.2-10.54c0.44-0.47,0.94-0.92,1.55-1.13c0.92-0.32,1.93-0.05,2.82,0.36
			c2.91,1.35,4.93,4.04,7.09,6.42c6.1,6.71,14.27,11.48,23.09,13.56c5.98-2.48,12.54-3.3,19-3.84c2.78-0.24,5.6-0.43,8.36-0.02
			c2.14,0.32,4.22,1,6.25,1.78c3.03,1.17,5.95,2.6,8.75,4.26c0.01,0.01,0.01,0,0.01,0c4.84-0.95,9.59-2.4,14.14-4.3
			c3.52-1.47,6.94-3.22,10.19-5.21c1.95-1.19,3.88-2.51,6.11-3.01c2.23-0.51,4.86-0.02,6.2,1.83c1.33,1.83,1.03,4.34,0.68,6.57
			c-0.62,3.89-1.24,7.78-1.87,11.67c-1.48,9.29-3.21,19.1-8.69,26.59c2.57,8.57,3.23,17.72,1.82,26.56
			c-0.84,5.25-2.47,10.55-5.92,14.6c-0.01-0.1-0.07-0.2-0.18-0.22c-0.33-0.1-0.64,0.2-0.86,0.46c-2.1,2.51-4.19,5.03-6.29,7.54
			c-0.1-0.75-0.2-1.5-0.29-2.25c-1.37,2.05-3.01,3.92-4.86,5.56l13.08,5.17c0.1,0.04,0.16,0.16,0.11,0.27
			c-0.03,0.08-0.11,0.13-0.19,0.13c-0.03,0-0.05,0-0.08-0.01l-13.28-5.25c-0.4,0.35-0.81,0.69-1.23,1.01
			c-0.01,0.1-0.03,0.21-0.04,0.31c-0.08,0.68-0.16,1.36-0.25,2.03c-0.05,0.36-0.1,0.72-0.15,1.08c-0.06,0.43-0.13,0.86-0.2,1.29
			c-0.06,0.38-0.12,0.75-0.18,1.13c3.68,2.93,7.2,6.09,10.52,9.46c0.08,0.08,0.08,0.21,0,0.29c-0.04,0.04-0.09,0.06-0.14,0.06
			c-0.05,0-0.11-0.02-0.15-0.06c-3.26-3.31-6.71-6.41-10.31-9.29c-0.01,0.08-0.03,0.16-0.04,0.24c-0.06,0.36-0.12,0.72-0.18,1.08
			c-0.08,0.45-0.16,0.89-0.24,1.34c-0.12,0.64-0.23,1.28-0.35,1.92c-0.37,2-0.76,4.02-1.17,6.04c2.42,3,4.75,6.07,6.98,9.21
			c0.07,0.09,0.04,0.22-0.05,0.28c-0.04,0.03-0.08,0.04-0.12,0.04c-0.06,0-0.13-0.03-0.17-0.09c-2.16-3.04-4.42-6.02-6.76-8.93
			c-1.84,8.78-4.33,17.57-9,24.86c0.19,7.17,1.05,14.4,1.93,21.51c1.12,9.11,2.25,18.22,3.37,27.33c0.85,6.91,2.08,14.53,7.48,18.92
			c2.24,1.82,5.12,3,6.61,5.47c1.97,3.26,0.6,7.77-2.27,10.26c-2.88,2.5-6.85,3.33-10.66,3.42c-3.81,0.1-7.61-0.44-11.42-0.27
			c-4.18,0.19-8.94,1.07-12.09-1.69c-2.74-2.4-2.98-6.5-3.13-10.14c-0.74-17.13-4.27-34.12-10.37-50.14
			c-2.22,11.71-2.76,23.66-3.05,35.66c-0.08,3.29,0.16,7.07,2.77,9.07c1.02,0.78,2.28,1.17,3.37,1.86c2.86,1.81,4.05,5.42,3.99,8.84
			c-0.01,0.28-0.02,0.55-0.04,0.82c-0.2,2.55-1.08,5.22-3.16,6.71c-1.93,1.38-4.47,1.46-6.84,1.48c-7.04,0.08-14.07,0.15-21.12,0.23
			c-1.84,0.03-3.83-0.01-5.29-1.12c-0.84-0.64-1.41-1.58-1.9-2.52c-3.79-7.35-3.86-16.03-3.19-24.26c0.42-5.14,1.09-10.3,1.22-15.45
			c0.07-2.57-0.01-5.13-0.31-7.68c-5.25,1.42-10.62,2.36-16.12,2.65c-0.51,0.03-1.02,0.03-1.53,0.05c-0.39,1.19-0.75,2.39-1.01,3.61
			c-1.89,8.68,0.67,18.2,6.66,24.77c2.4,2.63,5.32,4.83,7.22,7.85c1.9,3.02,2.47,7.31,0.07,9.94c-2.05,2.25-5.43,2.51-8.46,2.63
			c-4.24,0.16-8.48,0.32-12.72,0.49c-1.8,0.07-3.66,0.13-5.34-0.52c-3.35-1.3-5.04-4.96-6.39-8.29c-1.87-4.6-3.75-9.27-6.72-13.25
			c-1.64-2.2-3.63-4.21-4.67-6.74c-0.89-2.17-1.02-4.57-1.11-6.92c-0.11-2.72-0.17-5.43-0.21-8.15c-1.95,1.53-3.89,3.06-5.84,4.6
			c-1.87,1.47-3.74,2.94-5.26,4.75c-2.71,3.22-4.15,7.29-5.53,11.26c-0.56,1.61-1.13,3.27-1.07,4.97c0.11,2.71,1.78,5.25,2.5,7.82
			c0.33,1.15,0.46,2.31,0.17,3.49c-0.92,3.76-5.45,5.22-9.31,5.65c-3.17,0.36-6.37,0.46-9.56,0.31c-3.82-0.19-8.08-1-10.24-4.16
			c-1.21-1.76-1.55-3.95-1.79-6.07c-1.15-9.91-1.14-19.95,0.07-29.85c0.32-2.61,0.73-5.24,1.79-7.65c1.73-3.93,5.03-6.9,7.49-10.41
			c4.11-5.85,5.79-13.02,6.65-20.14c-1.18-8.83-2.24-17.69-2.45-26.6c-0.18-7.49,0.32-15.17,2.7-22.21
			c-4.15-2.75-8.91-4.97-12.99-7.78c-12.26-8.46-18.8-23.1-22.23-37.6c-2.14-9.03-3.31-18.28-5.53-27.31
			c-2.22-9.02-5.58-17.96-11.5-25.11C18.35,30.71,23.25,39.78,27.06,48.85z"/>
		<path class="st16" d="M232.46,106.3c0.11-0.12,0.2-0.23,0.29-0.36C232.78,106.17,232.65,106.44,232.46,106.3z"/>
	</g>
</g>
</svg>
