<?xml version="1.0" encoding="utf-8"?>
<!-- Generator: Adobe Illustrator 24.0.1, SVG Export Plug-In . SVG Version: 6.00 Build 0)  -->
<svg version="1.1" xmlns="http://www.w3.org/2000/svg" xmlns:xlink="http://www.w3.org/1999/xlink" x="0px" y="0px"
	 viewBox="0 0 319 281" style="enable-background:new 0 0 319 281;" xml:space="preserve">
	<style type="text/css">
		.st4{fill:#EF6B01;}
	</style>
	<g id="Logo_CIPA">
		<path class="st4" d="M201.39,264.11c-4.26-0.38-8.15-1.79-11.84-3.87c-0.95-0.53-1.71-1.16-2.06-2.16c-0.72-2.03-1.45-4.06-2-6.14
			c-0.72-2.71-1.65-5.31-3.21-7.65c-1-1.51-1.95-1.64-3.37-0.56c-0.12,0.09-0.25,0.17-0.41,0.29c-1.22-1.64-1.69-3.52-2.28-5.36
			c-0.37-1.14-0.83-2.27-1.35-3.35c-0.52-1.09-1.31-2.06-1.73-3.18c-0.94-2.46-1.77-4.98-2.58-7.49c-0.48-1.48-0.88-1.71-2.28-1.1
			c-0.19,0.08-0.38,0.16-0.5,0.21c-0.72-1.55-1.33-3.08-2.11-4.52c-1.1-2.04-2.37-3.99-3.46-6.03c-0.63-1.18-1.04-2.47-1.58-3.7
			c-0.1-0.24-0.31-0.56-0.52-0.61c-3.75-0.9-7.5-1.29-11.23,0.12c-0.71,0.27-1.34,0.17-1.93-0.2c-0.5-0.31-0.96-0.71-1.36-1.13
			c-0.74-0.78-1.43-1.61-2.15-2.42c-1.28-1.42-2.79-2.25-4.78-2.03c-1.15,0.13-2.32,0.14-3.47,0.22c-3.09,0.22-6.2,0.7-9.29,0.17
			c-3.59-0.62-7.2-0.61-10.8-0.8c-1.55-0.08-3.1-0.36-4.64-0.63c-1.19-0.21-2.14-0.64-2.44-2.1c-0.28-1.36-1.38-1.64-2.58-0.9
			c-0.48,0.29-0.89,0.73-1.39,0.97c-1.7,0.81-3.4,1.66-5.17,2.3c-1.25,0.46-2.59,0.75-3.92,0.87c-1.52,0.14-2.43-0.69-2.78-2.17
			c-0.18-0.75-0.58-0.9-1.11-0.36c-0.84,0.86-1.64,1.76-2.45,2.66c-2.25,2.51-4.5,5.02-6.74,7.54c-0.11,0.12-0.2,0.26-0.28,0.4
			c-0.77,1.36-1.54,2.72-2.3,4.08c-0.88,1.57-1.4,3.19-0.95,5.03c1.06,4.29,2.07,8.59,3.12,12.89c0.4,1.62,0.41,1.62,2.06,1.7
			c3.21,0.16,5.29,1.9,5.95,4.94c0.24,1.1,0.04,2.01-0.88,2.75c-0.37,0.3-0.64,0.72-0.98,1.06c-0.23,0.23-0.49,0.57-0.77,0.61
			c-1.14,0.17-2.29,0.34-3.44,0.33c-1.8-0.02-3.61-0.23-5.41-0.26c-1.18-0.02-2.37,0.19-3.55,0.17c-2.55-0.05-4.24-1.46-4.89-3.93
			c-0.45-1.69-0.9-3.39-1.42-5.06c-1.19-3.83-1.85-7.71-1.18-11.72c0.01-0.06-0.04-0.13-0.07-0.22c-0.95,1.46-1.49,3.72-1.39,5.67
			c0.16,3.12,0.29,6.25,0.45,9.37c0.13,2.49,0.44,4.93,1.25,7.31c0.35,1.04,0.97,1.73,1.95,2.11c1.05,0.41,2.16,0.7,3.19,1.16
			c0.97,0.44,2.03,0.87,2.75,1.6c1.24,1.24,2.1,2.8,2.63,4.5c0.52,1.64,0.77,3.32,0.31,5.02c-0.41,1.55-1.42,2.61-3.19,2.16
			c-0.23-0.06-0.48-0.04-0.73-0.04c-3.02-0.04-6.04-0.08-9.07-0.11c-1.97-0.02-3.95-0.14-5.9,0.02c-1.35,0.11-2.25-0.3-2.93-1.38
			c-0.81-1.29-1.16-2.71-1.27-4.21c-0.19-2.61-0.36-5.22-0.63-7.82c-0.25-2.36-0.75-4.69-0.92-7.05c-0.31-4.25-0.47-8.5-0.66-12.75
			c-0.21-4.69-0.29-9.39,0.24-14.07c0.2-1.79,0.48-3.56,0.73-5.4c-1.36-0.01-1.92-0.93-2.27-2.04c-0.17-0.54-0.29-1.09-0.39-1.65
			c-0.23-1.27-0.38-2.56-0.67-3.82c-0.34-1.48-0.62-1.6-2.05-1.17c-2.03,0.61-3.21-0.02-3.81-2.05c-0.11-0.39-0.19-0.79-0.28-1.18
			c-0.36-1.54-0.54-3.17-1.14-4.61c-0.49-1.16-0.8-2.29-0.98-3.51c-0.22-1.47-0.85-1.82-2.26-1.36c-0.18,0.06-0.36,0.12-0.54,0.17
			c-1.14,0.28-1.76-0.11-2.2-1.18c-0.79-1.91-1.62-3.82-2.51-5.69c-1.06-2.22-2.73-4.16-2.92-6.77c-0.06-0.83-0.2-1.66-0.4-2.47
			c-0.27-1.09-0.54-2.2-0.97-3.23c-0.34-0.82-0.98-0.95-1.74-0.6c-1.21,0.56-2.38,0.04-2.79-1.25c-0.12-0.38-0.22-0.77-0.32-1.16
			c0-0.59,0-1.19,0-1.78c0.12-1.57,0.29-3.14,0.35-4.71c0.02-0.53-0.22-1.07-0.35-1.61c0-0.7,0-1.4,0-2.11
			c0.59-2.33,1.77-4.35,3.04-6.37c0.69-1.1,1.05-2.44,1.41-3.71c0.21-0.76-0.2-1.09-1-1.1c-1.34-0.01-1.75-0.55-1.39-1.84
			c0.08-0.28,0.19-0.56,0.3-0.84c0.51-1.25,1.16-2.45,1.51-3.74c0.44-1.64,1.31-3,2.26-4.34c1.37-1.92,3.13-3.11,5.62-2.82
			c0.1,0.01,0.2-0.03,0.3-0.05c-0.13-0.92-0.28-1.28-1.34-1.64c-1.83-0.64-2.36-1.96-2.28-3.71c0.02-0.54-0.03-1.1,0.1-1.61
			c0.45-1.83,0.95-3.64,1.46-5.45c0.18-0.63,0.44-1.24,0.7-1.93c-0.94,0.31-1.74,0.64-2.57,0.81c-0.46,0.1-1.05,0.05-1.42-0.18
			c-0.17-0.11-0.07-0.86,0.08-1.25c1.62-4.27,3.81-8.23,6.79-11.7c1.1-1.28,2.42-2.36,3.62-3.55c0.75-0.75,0.63-1.52-0.36-1.9
			c-0.69-0.26-1.46-0.32-2.2-0.45c-0.28-0.05-0.57-0.01-0.89-0.01c-0.05-0.87,0.26-1.48,0.78-1.98c2.55-2.41,5.61-2.79,9.01-2.11
			c-0.3-0.51-0.51-0.92-0.77-1.29c-1.34-1.9-2.7-3.77-4.03-5.67c-0.64-0.92-0.26-1.95,0.84-2.15c0.73-0.13,1.5-0.09,2.25-0.09
			c0.84-0.01,1.67,0.04,2.51,0.03c0.53-0.01,0.84-0.22,0.95-0.84c0.53-3.01,2-5.65,3.6-8.16c1.57-2.45,4.38-2.51,6.41-0.39
			c0.13,0.14,0.28,0.26,0.52,0.48c-0.03-0.24-0.03-0.35-0.06-0.45c-0.37-0.95-0.78-1.9-1.11-2.86c-0.3-0.85-0.34-1.68,0.39-2.4
			c3.2-3.14,6.78-5.7,11.07-7.12c3.68-1.22,7.38-1.5,11.05,0.18c0.46,0.21,1.3,0.33,1.57,0.08c0.33-0.31,0.34-1.07,0.32-1.62
			c-0.03-0.73-0.23-1.45-0.36-2.25c4.4-0.04,8.77-0.54,12.24,2.75c0.7-0.54,1.3-1.05,1.95-1.47c0.72-0.47,1.22-0.31,1.54,0.48
			c0.23,0.57,0.36,1.18,0.51,1.78c0.41,1.65,1.19,2.42,2.87,2.62c0.96,0.12,1.94,0.04,2.91,0.1c1.4,0.09,2.8,0.12,4.18,0.36
			c0.98,0.17,1.16,0.89,0.56,1.69c-0.3,0.4-0.67,0.73-1.07,1.17c0.34,0.04,0.58,0.08,0.81,0.09c3.2,0.16,6.4,0.31,9.6,0.47
			c3.73,0.19,7.02,1.4,9.53,4.28c0.55,0.63,0.94,1.43,1.29,2.2c0.23,0.52,0.02,0.96-0.61,1.18c-0.76,0.27-1.49,0.63-2.2,1.01
			c-0.23,0.12-0.37,0.42-0.55,0.63c0.2,0.16,0.38,0.4,0.61,0.48c1.54,0.5,2.76,1.47,3.85,2.6c1.2,1.24,2.36,2.52,3.48,3.83
			c0.36,0.42,0.68,0.99,0.74,1.52c0.36,2.99-1.33,4.75-4.44,4.64c0.18,0.13,0.29,0.25,0.43,0.32c2.09,1.06,4.12,2.26,6.28,3.14
			c8.51,3.46,17.26,3.74,26.14,1.72c10.35-2.36,19.5-7.2,27.7-13.82c2.95-2.38,5.59-5.15,8.33-7.77c1.03-0.98,0.96-1.02,0.17-2.28
			c-0.14-0.21-0.23-0.58-0.15-0.79c1.21-2.98,3.31-5.27,5.74-7.28c0.77-0.64,0.89-0.88,0.2-1.67c-0.29-0.33-0.55-0.67-0.83-1
			c1.36-0.5,2.57-0.95,3.79-1.4c0.02-0.01,0.05-0.01,0.08-0.02c1.2-0.16,2.4-0.36,3.61-0.45c0.65-0.05,0.87-0.28,0.93-0.91
			c0.11-1.32,0.28-2.63,0.45-3.94c0.29-2.2,0.72-4.32,1.88-6.3c1.03-1.76,2.47-2.19,4.28-2.05c1.64,0.12,3.12,0.74,4.55,1.74
			c0.11-0.49,0.21-0.87,0.29-1.26c0.72-3.12,1.43-6.25,2.15-9.37c0.12-0.52,0.38-0.93,0.93-1.09c0.49,0,0.97,0,1.46,0
			c0.74,0.69,1.55,1.31,2.19,2.07c1.08,1.27,1.98,2.7,3.09,3.94c1.94,2.17,3.96,4.27,5.98,6.37c0.54,0.56,1.16,1.08,1.82,1.46
			c0.67,0.39,1.09,0.87,1.37,1.59c0.44,1.14,1.15,2.13,2.4,2.46c2.77,0.74,5.11,2.26,7.42,3.86c1.94,1.34,3.42,3.06,4.16,5.32
			c0.76,2.33,1.49,4.67,2.14,7.04c0.61,2.22,1.78,4,3.76,5.14c1.09,0.63,2.25,1.23,3.46,1.54c2.92,0.75,5.89,1.33,8.83,1.98
			c2.66,0.59,5.32,1.2,7.64,2.74c0,1.19,0,2.38,0,3.56c-0.06,0.26-0.14,0.52-0.18,0.78c-0.41,3.28-1.81,6.02-4.45,8.06
			c-1.51,1.17-3,2.39-4.58,3.47c-1.1,0.75-2.29,1.41-3.52,1.91c-2.04,0.84-4.2,1.39-6.19,2.32c-1.37,0.64-2.57,1.66-3.78,2.59
			c-0.68,0.52-0.87,1.23-0.63,2.15c0.35,1.32,0.55,2.69,0.69,4.05c0.06,0.55-0.09,1.22-0.39,1.66c-0.18,0.28-0.83,0.24-1.28,0.35
			c0.35,1.52,0.75,3.08,1.08,4.66c1.24,5.87,1.51,11.76,0.21,17.67c-1.06,4.8-3.05,9.26-5.17,13.66c-1.23,2.55-2.54,5.07-3.67,7.66
			c-0.64,1.46-1.49,2.66-2.79,3.57c-0.24,0.17-0.45,0.53-0.47,0.81c-0.22,4.61-1.76,8.84-3.95,12.8c-1.27,2.29-3.04,4.3-4.68,6.37
			c-2.22,2.81-4.54,5.54-6.79,8.33c-1.07,1.33-2.09,2.7-3.11,4.08c-0.97,1.31-1.86,2.68-3.22,3.65c-0.25,0.18-0.45,0.46-0.6,0.73
			c-0.39,0.7-0.88,0.82-1.49,0.32c-0.35-0.29-0.68-0.61-1.05-0.88c-0.32-0.23-0.63-0.35-0.76,0.23c-0.07,0.34-0.23,0.66-0.4,0.97
			c-0.75,1.3-1.42,2.66-2.29,3.88c-1.75,2.48-3.58,4.92-5.43,7.33c-0.65,0.84-1.57,0.87-2.45,0.26c-0.21-0.14-0.41-0.29-0.76-0.53
			c-0.09,0.59-0.2,1-0.21,1.42c-0.09,3.48-0.92,6.83-1.66,10.21c-0.59,2.67-0.98,5.35-0.85,8.1c0.08,1.75,0.03,3.5,0.03,5.25
			c0,1.11-0.09,2.22-0.01,3.32c0.12,1.82,0.58,3.46,2.76,3.81c0.05,0.01,0.11,0.03,0.15,0.07c1.29,1.05,2.89,1.28,4.42,1.69
			c1.74,0.47,3.36,1.19,4.76,2.33c1.66,1.34,2.39,3.03,1.79,5.16c-0.59,2.07-2.07,3.19-4.12,3.32c-1.81,0.11-3.65-0.08-5.47-0.24
			c-1.15-0.1-2.28-0.39-3.54-0.62c1.86,3.02,0.07,8.11-4.3,10.31L201.39,264.11z"/>
	</g>
</svg>
